Pfont-Italic.ufo
<glyph name="exclam" format="1">
  <advance width="547"/>
  <unicode hex="0021"/>
  <outline>
    <contour>
      <point x="428" y="421" type="line"/>
      <point x="442" y="427"/>
      <point x="450" y="436"/>
      <point x="454" y="449" type="curve" smooth="yes"/>
      <point x="737" y="1352" type="line" smooth="yes"/>
      <point x="742" y="1366"/>
      <point x="737" y="1377"/>
      <point x="723" y="1376" type="curve"/>
      <point x="571" y="1330" type="line"/>
      <point x="557" y="1326"/>
      <point x="546" y="1315"/>
      <point x="543" y="1302" type="curve" smooth="yes"/>
      <point x="300" y="382" type="line" smooth="yes"/>
      <point x="299" y="375"/>
      <point x="304" y="372"/>
      <point x="309" y="372" type="curve"/>
    </contour>
    <component base="period" xOffset="37" yOffset="-25" xScale="0.803" yScale="0.803"/>
  </outline>
</glyph>
<glyph name="numbersign" format="1">
  <advance width="1354"/>
  <unicode hex="0023"/>
  <outline>
    <contour>
      <point x="370" y="-157" type="line" smooth="yes"/>
      <point x="383" y="-157"/>
      <point x="397" y="-148"/>
      <point x="402" y="-135" type="curve" smooth="yes"/>
      <point x="557" y="199" type="line"/>
      <point x="800" y="199" type="line"/>
      <point x="649" y="-128" type="line" smooth="yes"/>
      <point x="642" y="-143"/>
      <point x="650" y="-157"/>
      <point x="668" y="-157" type="curve" smooth="yes"/>
      <point x="740" y="-157" type="line" smooth="yes"/>
      <point x="753" y="-157"/>
      <point x="767" y="-149"/>
      <point x="772" y="-136" type="curve" smooth="yes"/>
      <point x="926" y="199" type="line"/>
      <point x="1183" y="199" type="line" smooth="yes"/>
      <point x="1195" y="199"/>
      <point x="1210" y="207"/>
      <point x="1217" y="220" type="curve" smooth="yes"/>
      <point x="1249" y="288" type="line" smooth="yes"/>
      <point x="1258" y="305"/>
      <point x="1250" y="321"/>
      <point x="1232" y="321" type="curve" smooth="yes"/>
      <point x="984" y="321" type="line"/>
      <point x="1132" y="642" type="line"/>
      <point x="1406" y="642" type="line" smooth="yes"/>
      <point x="1419" y="642"/>
      <point x="1431" y="650"/>
      <point x="1438" y="663" type="curve" smooth="yes"/>
      <point x="1472" y="732" type="line" smooth="yes"/>
      <point x="1480" y="749"/>
      <point x="1472" y="764"/>
      <point x="1455" y="764" type="curve" smooth="yes"/>
      <point x="1189" y="764" type="line"/>
      <point x="1347" y="1105" type="line" smooth="yes"/>
      <point x="1353" y="1121"/>
      <point x="1345" y="1136"/>
      <point x="1329" y="1136" type="curve" smooth="yes"/>
      <point x="1256" y="1136" type="line" smooth="yes"/>
      <point x="1244" y="1136"/>
      <point x="1229" y="1126"/>
      <point x="1224" y="1113" type="curve" smooth="yes"/>
      <point x="1061" y="764" type="line"/>
      <point x="819" y="764" type="line"/>
      <point x="977" y="1105" type="line" smooth="yes"/>
      <point x="984" y="1121"/>
      <point x="977" y="1136"/>
      <point x="959" y="1136" type="curve" smooth="yes"/>
      <point x="887" y="1136" type="line" smooth="yes"/>
      <point x="873" y="1136"/>
      <point x="859" y="1125"/>
      <point x="854" y="1113" type="curve" smooth="yes"/>
      <point x="692" y="764" type="line"/>
      <point x="468" y="764" type="line" smooth="yes"/>
      <point x="455" y="764"/>
      <point x="440" y="754"/>
      <point x="433" y="741" type="curve" smooth="yes"/>
      <point x="403" y="673" type="line" smooth="yes"/>
      <point x="396" y="657"/>
      <point x="403" y="642"/>
      <point x="420" y="642" type="curve" smooth="yes"/>
      <point x="635" y="642" type="line"/>
      <point x="487" y="321" type="line"/>
      <point x="260" y="321" type="line" smooth="yes"/>
      <point x="246" y="321"/>
      <point x="232" y="310"/>
      <point x="226" y="298" type="curve" smooth="yes"/>
      <point x="195" y="229" type="line" smooth="yes"/>
      <point x="187" y="213"/>
      <point x="194" y="199"/>
      <point x="211" y="199" type="curve" smooth="yes"/>
      <point x="429" y="199" type="line"/>
      <point x="279" y="-128" type="line" smooth="yes"/>
      <point x="272" y="-143"/>
      <point x="281" y="-157"/>
      <point x="297" y="-157" type="curve" smooth="yes"/>
    </contour>
    <contour>
      <point x="763" y="642" type="line"/>
      <point x="1004" y="642" type="line"/>
      <point x="857" y="321" type="line"/>
      <point x="614" y="321" type="line"/>
    </contour>
  </outline>
</glyph>
<glyph name="quotesingle" format="1">
  <advance width="389"/>
  <unicode hex="0027"/>
  <outline>
    <contour>
      <point x="581" y="1101" type="line" smooth="yes"/>
      <point x="594" y="1101"/>
      <point x="598" y="1104"/>
      <point x="602" y="1114" type="curve" smooth="yes"/>
      <point x="785" y="1587" type="line" smooth="yes"/>
      <point x="789" y="1597"/>
      <point x="784" y="1605"/>
      <point x="775" y="1605" type="curve" smooth="yes"/>
      <point x="659" y="1605" type="line" smooth="yes"/>
      <point x="648" y="1605"/>
      <point x="640" y="1599"/>
      <point x="637" y="1590" type="curve" smooth="yes"/>
      <point x="485" y="1118" type="line" smooth="yes"/>
      <point x="482" y="1109"/>
      <point x="485" y="1101"/>
      <point x="493" y="1101" type="curve" smooth="yes"/>
    </contour>
  </outline>
</glyph>
<glyph name="parenleft" format="1">
  <advance width="676"/>
  <unicode hex="0028"/>
  <outline>
    <contour>
      <point x="425" y="-331" type="line" smooth="yes"/>
      <point x="441" y="-331"/>
      <point x="451" y="-323"/>
      <point x="455" y="-312" type="curve" smooth="yes"/>
      <point x="482" y="-227"/>
      <point x="305" y="25"/>
      <point x="456" y="500" type="curve" smooth="yes"/>
      <point x="606" y="971"/>
      <point x="936" y="1205"/>
      <point x="963" y="1291" type="curve" smooth="yes"/>
      <point x="967" y="1301"/>
      <point x="960" y="1309"/>
      <point x="945" y="1309" type="curve" smooth="yes"/>
      <point x="869" y="1309" type="line" smooth="yes"/>
      <point x="858" y="1309"/>
      <point x="849" y="1307"/>
      <point x="839" y="1297" type="curve" smooth="yes"/>
      <point x="550" y="1025"/>
      <point x="364" y="755"/>
      <point x="278" y="485" type="curve" smooth="yes"/>
      <point x="192" y="216"/>
      <point x="208" y="-52"/>
      <point x="325" y="-318" type="curve" smooth="yes"/>
      <point x="330" y="-327"/>
      <point x="337" y="-331"/>
      <point x="349" y="-331" type="curve" smooth="yes"/>
    </contour>
  </outline>
</glyph>
<glyph name="parenright" format="1">
  <advance width="674"/>
  <unicode hex="0029"/>
  <outline>
    <contour>
      <point x="123" y="-331" type="line" smooth="yes"/>
      <point x="135" y="-331"/>
      <point x="144" y="-327"/>
      <point x="154" y="-319" type="curve" smooth="yes"/>
      <point x="441" y="-53"/>
      <point x="626" y="215"/>
      <point x="712" y="485" type="curve" smooth="yes"/>
      <point x="797" y="754"/>
      <point x="783" y="1024"/>
      <point x="668" y="1296" type="curve" smooth="yes"/>
      <point x="665" y="1303"/>
      <point x="658" y="1309"/>
      <point x="643" y="1309" type="curve" smooth="yes"/>
      <point x="568" y="1309" type="line" smooth="yes"/>
      <point x="554" y="1309"/>
      <point x="543" y="1301"/>
      <point x="539" y="1290" type="curve" smooth="yes"/>
      <point x="513" y="1207"/>
      <point x="694" y="973"/>
      <point x="543" y="500" type="curve" smooth="yes"/>
      <point x="395" y="31"/>
      <point x="50" y="-246"/>
      <point x="29" y="-311" type="curve" smooth="yes"/>
      <point x="25" y="-323"/>
      <point x="33" y="-331"/>
      <point x="47" y="-331" type="curve" smooth="yes"/>
    </contour>
  </outline>
</glyph>
<glyph name="asterisk" format="1">
  <advance width="1027"/>
  <unicode hex="002A"/>
  <outline>
    <contour>
      <point x="587" y="95"/>
      <point x="630" y="127"/>
      <point x="641" y="167" type="curve" smooth="yes"/>
      <point x="687" y="339" type="line"/>
      <point x="763" y="211" type="line" smooth="yes"/>
      <point x="771" y="197"/>
      <point x="789" y="190"/>
      <point x="808" y="190" type="curve" smooth="yes"/>
      <point x="849" y="190"/>
      <point x="887" y="219"/>
      <point x="899" y="259" type="curve" smooth="yes"/>
      <point x="905" y="278"/>
      <point x="906" y="298"/>
      <point x="894" y="310" type="curve" smooth="yes"/>
      <point x="803" y="426" type="line"/>
      <point x="973" y="419" type="line" smooth="yes"/>
      <point x="1011" y="417"/>
      <point x="1054" y="450"/>
      <point x="1066" y="490" type="curve" smooth="yes"/>
      <point x="1079" y="529"/>
      <point x="1058" y="561"/>
      <point x="1016" y="559" type="curve" smooth="yes"/>
      <point x="843" y="551" type="line"/>
      <point x="1008" y="667" type="line" smooth="yes"/>
      <point x="1026" y="681"/>
      <point x="1039" y="700"/>
      <point x="1045" y="720" type="curve" smooth="yes"/>
      <point x="1057" y="759"/>
      <point x="1036" y="788"/>
      <point x="996" y="788" type="curve" smooth="yes"/>
      <point x="978" y="788"/>
      <point x="958" y="780"/>
      <point x="939" y="766" type="curve" smooth="yes"/>
      <point x="788" y="643" type="line"/>
      <point x="850" y="811" type="line" smooth="yes"/>
      <point x="864" y="848"/>
      <point x="841" y="882"/>
      <point x="804" y="882" type="curve" smooth="yes"/>
      <point x="762" y="882"/>
      <point x="721" y="851"/>
      <point x="710" y="810" type="curve" smooth="yes"/>
      <point x="662" y="641" type="line"/>
      <point x="585" y="769" type="line" smooth="yes"/>
      <point x="577" y="782"/>
      <point x="562" y="789"/>
      <point x="544" y="789" type="curve" smooth="yes"/>
      <point x="508" y="789"/>
      <point x="464" y="762"/>
      <point x="450" y="720" type="curve" smooth="yes"/>
      <point x="444" y="702"/>
      <point x="447" y="684"/>
      <point x="456" y="670" type="curve" smooth="yes"/>
      <point x="548" y="551" type="line"/>
      <point x="372" y="559" type="line" smooth="yes"/>
      <point x="337" y="563"/>
      <point x="292" y="529"/>
      <point x="280" y="491" type="curve" smooth="yes"/>
      <point x="267" y="450"/>
      <point x="288" y="418"/>
      <point x="328" y="419" type="curve" smooth="yes"/>
      <point x="503" y="426" type="line"/>
      <point x="338" y="310" type="line" smooth="yes"/>
      <point x="321" y="298"/>
      <point x="306" y="279"/>
      <point x="300" y="260" type="curve" smooth="yes"/>
      <point x="289" y="223"/>
      <point x="305" y="190"/>
      <point x="349" y="190" type="curve" smooth="yes"/>
      <point x="368" y="190"/>
      <point x="388" y="198"/>
      <point x="406" y="211" type="curve" smooth="yes"/>
      <point x="562" y="339" type="line"/>
      <point x="500" y="166" type="line" smooth="yes"/>
      <point x="487" y="130"/>
      <point x="507" y="95"/>
      <point x="546" y="95" type="curve" smooth="yes"/>
    </contour>
    <contour>
      <point x="595" y="398"/>
      <point x="568" y="440"/>
      <point x="583" y="489" type="curve" smooth="yes"/>
      <point x="599" y="538"/>
      <point x="654" y="580"/>
      <point x="702" y="580" type="curve" smooth="yes"/>
      <point x="751" y="580"/>
      <point x="780" y="538"/>
      <point x="764" y="489" type="curve" smooth="yes"/>
      <point x="749" y="442"/>
      <point x="692" y="398"/>
      <point x="644" y="398" type="curve" smooth="yes"/>
    </contour>
  </outline>
</glyph>
<glyph name="plus" format="1">
  <advance width="1190"/>
  <unicode hex="002B"/>
  <outline>
    <contour>
      <point x="700" y="43" type="line"/>
      <point x="813" y="418" type="line"/>
      <point x="1206" y="418" type="line"/>
      <point x="1259" y="586" type="line"/>
      <point x="870" y="586" type="line"/>
      <point x="978" y="937" type="line"/>
      <point x="806" y="936" type="line"/>
      <point x="702" y="586" type="line"/>
      <point x="310" y="586" type="line"/>
      <point x="257" y="418" type="line"/>
      <point x="649" y="418" type="line"/>
      <point x="536" y="41" type="line"/>
    </contour>
  </outline>
</glyph>
<glyph name="comma" format="1">
  <advance width="465"/>
  <unicode hex="002C"/>
  <outline>
    <contour>
      <point x="288" y="-109"/>
      <point x="333" y="-40"/>
      <point x="410" y="199" type="curve" smooth="yes"/>
      <point x="414" y="214"/>
      <point x="406" y="226"/>
      <point x="391" y="226" type="curve" smooth="yes"/>
      <point x="218" y="226" type="line" smooth="yes"/>
      <point x="204" y="226"/>
      <point x="189" y="214"/>
      <point x="185" y="200" type="curve" smooth="yes"/>
      <point x="129" y="26" type="line" smooth="yes"/>
      <point x="125" y="12"/>
      <point x="133" y="0"/>
      <point x="147" y="0" type="curve" smooth="yes"/>
      <point x="239" y="0" type="line" smooth="yes"/>
      <point x="244" y="0"/>
      <point x="246" y="-1"/>
      <point x="245" y="-4" type="curve"/>
      <point x="222" y="-52"/>
      <point x="187" y="-92"/>
      <point x="128" y="-136" type="curve" smooth="yes"/>
      <point x="120" y="-142"/>
      <point x="115" y="-149"/>
      <point x="112" y="-156" type="curve" smooth="yes"/>
      <point x="111" y="-161"/>
      <point x="111" y="-167"/>
      <point x="114" y="-172" type="curve" smooth="yes"/>
      <point x="122" y="-189" type="line" smooth="yes"/>
      <point x="126" y="-197"/>
      <point x="133" y="-202"/>
      <point x="141" y="-202" type="curve" smooth="yes"/>
      <point x="146" y="-202"/>
      <point x="150" y="-200"/>
      <point x="156" y="-196" type="curve" smooth="yes"/>
    </contour>
  </outline>
</glyph>
<glyph name="hyphen" format="1">
  <advance width="845"/>
  <unicode hex="002D"/>
  <outline>
    <contour>
      <point x="835" y="420" type="line" smooth="yes"/>
      <point x="850" y="420"/>
      <point x="865" y="430"/>
      <point x="870" y="445" type="curve" smooth="yes"/>
      <point x="898" y="532" type="line" smooth="yes"/>
      <point x="902" y="547"/>
      <point x="894" y="558"/>
      <point x="879" y="558" type="curve" smooth="yes"/>
      <point x="327" y="558" type="line" smooth="yes"/>
      <point x="313" y="558"/>
      <point x="297" y="546"/>
      <point x="293" y="532" type="curve" smooth="yes"/>
      <point x="265" y="445" type="line" smooth="yes"/>
      <point x="261" y="431"/>
      <point x="269" y="420"/>
      <point x="283" y="420" type="curve" smooth="yes"/>
    </contour>
  </outline>
</glyph>
<glyph name="period" format="1">
  <advance width="607"/>
  <unicode hex="002E"/>
  <outline>
    <contour>
      <point x="297" y="-64"/>
      <point x="305" y="-67"/>
      <point x="312" y="-67" type="curve" smooth="yes"/>
      <point x="325" y="-67"/>
      <point x="339" y="-60"/>
      <point x="352" y="-48" type="curve" smooth="yes"/>
      <point x="481" y="76" type="line" smooth="yes"/>
      <point x="510" y="105"/>
      <point x="527" y="125"/>
      <point x="533" y="141" type="curve" smooth="yes"/>
      <point x="539" y="160"/>
      <point x="529" y="176"/>
      <point x="508" y="196" type="curve"/>
      <point x="396" y="289" type="line"/>
      <point x="391" y="294"/>
      <point x="384" y="296"/>
      <point x="376" y="296" type="curve" smooth="yes"/>
      <point x="364" y="296"/>
      <point x="348" y="288"/>
      <point x="334" y="275" type="curve" smooth="yes"/>
      <point x="163" y="104" type="line" smooth="yes"/>
      <point x="154" y="94"/>
      <point x="148" y="85"/>
      <point x="145" y="78" type="curve" smooth="yes"/>
      <point x="141" y="65"/>
      <point x="145" y="54"/>
      <point x="156" y="45" type="curve" smooth="yes"/>
      <point x="290" y="-60" type="line" smooth="yes"/>
    </contour>
  </outline>
</glyph>
<glyph name="slash" format="1">
  <advance width="1006"/>
  <unicode hex="002F"/>
  <outline>
    <contour>
      <point x="102" y="-377" type="line" smooth="yes"/>
      <point x="112" y="-377"/>
      <point x="121" y="-372"/>
      <point x="129" y="-362" type="curve"/>
      <point x="1317" y="1327" type="line"/>
      <point x="1326" y="1344"/>
      <point x="1313" y="1356"/>
      <point x="1295" y="1356" type="curve" smooth="yes"/>
      <point x="1221" y="1356" type="line" smooth="yes"/>
      <point x="1212" y="1356"/>
      <point x="1201" y="1349"/>
      <point x="1194" y="1339" type="curve"/>
      <point x="7" y="-349" type="line"/>
      <point x="-2" y="-367"/>
      <point x="11" y="-377"/>
      <point x="28" y="-377" type="curve" smooth="yes"/>
    </contour>
  </outline>
</glyph>
<glyph name="semicolon" format="1">
  <advance width="629"/>
  <unicode hex="003B"/>
  <outline>
    <contour>
      <point x="294" y="-86" type="line"/>
      <point x="309" y="-89"/>
      <point x="325" y="-76"/>
      <point x="339" y="-60" type="curve" smooth="yes"/>
      <point x="431" y="49" type="line" smooth="yes"/>
      <point x="500" y="130"/>
      <point x="584" y="230"/>
      <point x="614" y="323" type="curve" smooth="yes"/>
      <point x="637" y="394"/>
      <point x="630" y="465"/>
      <point x="552" y="512" type="curve" smooth="yes"/>
      <point x="546" y="516"/>
      <point x="539" y="518"/>
      <point x="531" y="518" type="curve" smooth="yes"/>
      <point x="516" y="518"/>
      <point x="502" y="510"/>
      <point x="487" y="494" type="curve" smooth="yes"/>
      <point x="401" y="395" type="line" smooth="yes"/>
      <point x="393" y="386"/>
      <point x="388" y="378"/>
      <point x="386" y="371" type="curve" smooth="yes"/>
      <point x="383" y="357"/>
      <point x="387" y="346"/>
      <point x="398" y="337" type="curve" smooth="yes"/>
      <point x="435" y="307"/>
      <point x="466" y="282"/>
      <point x="449" y="228" type="curve" smooth="yes"/>
      <point x="440" y="198"/>
      <point x="415" y="159"/>
      <point x="370" y="108" type="curve" smooth="yes"/>
      <point x="260" y="-16" type="line" smooth="yes"/>
      <point x="253" y="-24"/>
      <point x="247" y="-32"/>
      <point x="245" y="-38" type="curve" smooth="yes"/>
      <point x="241" y="-54"/>
      <point x="246" y="-66"/>
      <point x="261" y="-74" type="curve"/>
    </contour>
    <component base="period" xOffset="297" yOffset="837" xScale="0.795" yScale="0.795"/>
  </outline>
</glyph>
<glyph name="less" format="1">
  <advance width="1143"/>
  <unicode hex="003C"/>
  <outline>
    <contour>
      <point x="1059" y="114" type="line"/>
      <point x="432" y="490" type="line"/>
      <point x="1297" y="864" type="line"/>
      <point x="1342" y="1007" type="line"/>
      <point x="301" y="557" type="line"/>
      <point x="259" y="422" type="line"/>
      <point x="1014" y="-29" type="line"/>
    </contour>
  </outline>
</glyph>
<glyph name="equal" format="1">
  <advance width="1192"/>
  <unicode hex="003D"/>
  <outline>
    <contour>
      <point x="1266" y="606" type="line"/>
      <point x="1320" y="774" type="line"/>
      <point x="371" y="774" type="line"/>
      <point x="317" y="606" type="line"/>
    </contour>
    <contour>
      <point x="1138" y="204" type="line"/>
      <point x="1192" y="372" type="line"/>
      <point x="243" y="372" type="line"/>
      <point x="189" y="204" type="line"/>
    </contour>
  </outline>
</glyph>
<glyph name="at" format="1">
  <advance width="1352"/>
  <unicode hex="0040"/>
  <outline>
    <contour>
      <point x="814" y="-91"/>
      <point x="912" y="-73"/>
      <point x="1004" y="-35" type="curve"/>
      <point x="998" y="63" type="line"/>
      <point x="919" y="32"/>
      <point x="830" y="16"/>
      <point x="737" y="16" type="curve" smooth="yes"/>
      <point x="418" y="16"/>
      <point x="287" y="180"/>
      <point x="376" y="463" type="curve" smooth="yes"/>
      <point x="469" y="752"/>
      <point x="740" y="963"/>
      <point x="1022" y="963" type="curve" smooth="yes"/>
      <point x="1245" y="963"/>
      <point x="1391" y="821"/>
      <point x="1319" y="598" type="curve" smooth="yes"/>
      <point x="1279" y="471"/>
      <point x="1109" y="280"/>
      <point x="1000" y="280" type="curve" smooth="yes"/>
      <point x="955" y="280"/>
      <point x="985" y="329"/>
      <point x="1024" y="400" type="curve" smooth="yes"/>
      <point x="1241" y="807" type="line"/>
      <point x="1126" y="827" type="line"/>
      <point x="1075" y="732" type="line"/>
      <point x="1049" y="793"/>
      <point x="999" y="827"/>
      <point x="930" y="827" type="curve" smooth="yes"/>
      <point x="754" y="827"/>
      <point x="554" y="629"/>
      <point x="493" y="437" type="curve" smooth="yes"/>
      <point x="443" y="284"/>
      <point x="487" y="162"/>
      <point x="630" y="162" type="curve" smooth="yes"/>
      <point x="694" y="162"/>
      <point x="768" y="193"/>
      <point x="842" y="250" type="curve"/>
      <point x="839" y="201"/>
      <point x="872" y="161"/>
      <point x="922" y="161" type="curve" smooth="yes"/>
      <point x="1109" y="161"/>
      <point x="1355" y="373"/>
      <point x="1426" y="597" type="curve" smooth="yes"/>
      <point x="1515" y="877"/>
      <point x="1355" y="1069"/>
      <point x="1060" y="1069" type="curve" smooth="yes"/>
      <point x="704" y="1069"/>
      <point x="381" y="808"/>
      <point x="267" y="453" type="curve" smooth="yes"/>
      <point x="160" y="114"/>
      <point x="327" y="-91"/>
      <point x="705" y="-91" type="curve" smooth="yes"/>
    </contour>
    <contour>
      <point x="787" y="720"/>
      <point x="902" y="720" type="curve" smooth="yes"/>
      <point x="980" y="720"/>
      <point x="1020" y="651"/>
      <point x="991" y="560" type="curve" smooth="yes"/>
      <point x="930" y="366"/>
      <point x="783" y="266"/>
      <point x="686" y="266" type="curve" smooth="yes"/>
      <point x="615" y="266"/>
      <point x="570" y="318"/>
      <point x="603" y="423" type="curve" smooth="yes"/>
      <point x="645" y="555"/>
    </contour>
  </outline>
</glyph>
<glyph name="bracketleft" format="1">
  <advance width="612"/>
  <unicode hex="005B"/>
  <outline>
    <contour>
      <point x="295" y="-521" type="line" smooth="yes"/>
      <point x="309" y="-521"/>
      <point x="326" y="-510"/>
      <point x="331" y="-495" type="curve" smooth="yes"/>
      <point x="347" y="-441" type="line" smooth="yes"/>
      <point x="352" y="-426"/>
      <point x="343" y="-415"/>
      <point x="329" y="-415" type="curve" smooth="yes"/>
      <point x="140" y="-415" type="line"/>
      <point x="714" y="1393" type="line"/>
      <point x="903" y="1393" type="line" smooth="yes"/>
      <point x="917" y="1393"/>
      <point x="934" y="1405"/>
      <point x="939" y="1420" type="curve" smooth="yes"/>
      <point x="955" y="1474" type="line" smooth="yes"/>
      <point x="960" y="1488"/>
      <point x="951" y="1500"/>
      <point x="937" y="1500" type="curve" smooth="yes"/>
      <point x="634" y="1500" type="line" smooth="yes"/>
      <point x="621" y="1500"/>
      <point x="604" y="1487"/>
      <point x="599" y="1474" type="curve" smooth="yes"/>
      <point x="-25" y="-495" type="line" smooth="yes"/>
      <point x="-30" y="-509"/>
      <point x="-21" y="-521"/>
      <point x="-8" y="-521" type="curve" smooth="yes"/>
    </contour>
  </outline>
</glyph>
<glyph name="backslash" format="1">
  <advance width="1032"/>
  <unicode hex="005C"/>
  <outline>
    <contour>
      <point x="758" y="-377" type="line" smooth="yes"/>
      <point x="775" y="-377"/>
      <point x="795" y="-368"/>
      <point x="798" y="-349" type="curve"/>
      <point x="682" y="1339" type="line"/>
      <point x="681" y="1349"/>
      <point x="674" y="1356"/>
      <point x="665" y="1356" type="curve" smooth="yes"/>
      <point x="591" y="1356" type="line" smooth="yes"/>
      <point x="574" y="1356"/>
      <point x="555" y="1343"/>
      <point x="551" y="1327" type="curve"/>
      <point x="667" y="-362" type="line"/>
      <point x="667" y="-372"/>
      <point x="675" y="-377"/>
      <point x="684" y="-377" type="curve" smooth="yes"/>
    </contour>
  </outline>
</glyph>
<glyph name="bracketright" format="1">
  <advance width="612"/>
  <unicode hex="005D"/>
  <outline>
    <contour>
      <point x="295" y="-521" type="line" smooth="yes"/>
      <point x="309" y="-521"/>
      <point x="326" y="-510"/>
      <point x="331" y="-495" type="curve" smooth="yes"/>
      <point x="955" y="1474" type="line" smooth="yes"/>
      <point x="960" y="1488"/>
      <point x="951" y="1500"/>
      <point x="937" y="1500" type="curve" smooth="yes"/>
      <point x="634" y="1500" type="line" smooth="yes"/>
      <point x="621" y="1500"/>
      <point x="604" y="1487"/>
      <point x="599" y="1474" type="curve" smooth="yes"/>
      <point x="583" y="1420" type="line" smooth="yes"/>
      <point x="578" y="1405"/>
      <point x="586" y="1393"/>
      <point x="600" y="1393" type="curve" smooth="yes"/>
      <point x="789" y="1393" type="line"/>
      <point x="215" y="-415" type="line"/>
      <point x="26" y="-415" type="line" smooth="yes"/>
      <point x="13" y="-415"/>
      <point x="-4" y="-427"/>
      <point x="-9" y="-441" type="curve" smooth="yes"/>
      <point x="-25" y="-495" type="line" smooth="yes"/>
      <point x="-30" y="-509"/>
      <point x="-21" y="-521"/>
      <point x="-8" y="-521" type="curve" smooth="yes"/>
    </contour>
  </outline>
</glyph>
<glyph name="asciicircum" format="1">
  <advance width="1336"/>
  <unicode hex="005E"/>
  <outline>
    <contour>
      <point x="479" y="606" type="line"/>
      <point x="1152" y="1513" type="line"/>
      <point x="1251" y="606" type="line"/>
      <point x="1413" y="606" type="line"/>
      <point x="1301" y="1696" type="line"/>
      <point x="1121" y="1696" type="line"/>
      <point x="317" y="606" type="line"/>
    </contour>
  </outline>
</glyph>
<glyph name="underscore" format="1">
  <advance width="1009"/>
  <unicode hex="005F"/>
  <outline>
    <contour>
      <point x="919" y="-275" type="line"/>
      <point x="961" y="-147" type="line"/>
      <point x="-47" y="-147" type="line"/>
      <point x="-89" y="-275" type="line"/>
    </contour>
  </outline>
</glyph>
<glyph name="braceleft" format="1">
  <advance width="743"/>
  <unicode hex="007B"/>
  <outline>
    <contour>
      <point x="427" y="-523" type="line" smooth="yes"/>
      <point x="441" y="-523"/>
      <point x="457" y="-512"/>
      <point x="462" y="-497" type="curve" smooth="yes"/>
      <point x="479" y="-443" type="line" smooth="yes"/>
      <point x="484" y="-428"/>
      <point x="475" y="-417"/>
      <point x="461" y="-417" type="curve" smooth="yes"/>
      <point x="297" y="-417" type="line" smooth="yes"/>
      <point x="283" y="-417"/>
      <point x="275" y="-406"/>
      <point x="279" y="-393" type="curve" smooth="yes"/>
      <point x="475" y="225" type="line" smooth="yes"/>
      <point x="516" y="351"/>
      <point x="469" y="427"/>
      <point x="431" y="489" type="curve"/>
      <point x="508" y="551"/>
      <point x="602" y="626"/>
      <point x="643" y="753" type="curve" smooth="yes"/>
      <point x="839" y="1370" type="line" smooth="yes"/>
      <point x="843" y="1383"/>
      <point x="857" y="1394"/>
      <point x="871" y="1394" type="curve" smooth="yes"/>
      <point x="1035" y="1394" type="line" smooth="yes"/>
      <point x="1049" y="1394"/>
      <point x="1066" y="1406"/>
      <point x="1071" y="1421" type="curve" smooth="yes"/>
      <point x="1089" y="1475" type="line" smooth="yes"/>
      <point x="1093" y="1489"/>
      <point x="1083" y="1500"/>
      <point x="1069" y="1500" type="curve" smooth="yes"/>
      <point x="883" y="1500" type="line" smooth="yes"/>
      <point x="791" y="1500"/>
      <point x="725" y="1450"/>
      <point x="696" y="1358" type="curve" smooth="yes"/>
      <point x="514" y="783" type="line" smooth="yes"/>
      <point x="462" y="618"/>
      <point x="426" y="604"/>
      <point x="290" y="504" type="curve" smooth="yes"/>
      <point x="284" y="500"/>
      <point x="281" y="494"/>
      <point x="279" y="489" type="curve" smooth="yes"/>
      <point x="277" y="483"/>
      <point x="278" y="477"/>
      <point x="280" y="473" type="curve" smooth="yes"/>
      <point x="349" y="362"/>
      <point x="375" y="348"/>
      <point x="320" y="173" type="curve" smooth="yes"/>
      <point x="144" y="-381" type="line" smooth="yes"/>
      <point x="115" y="-472"/>
      <point x="149" y="-523"/>
      <point x="241" y="-523" type="curve" smooth="yes"/>
    </contour>
  </outline>
</glyph>
<glyph name="bar" format="1">
  <advance width="394"/>
  <unicode hex="007C"/>
  <outline>
    <contour>
      <point x="105" y="-521" type="line"/>
      <point x="747" y="1500" type="line"/>
      <point x="607" y="1500" type="line"/>
      <point x="-35" y="-521" type="line"/>
    </contour>
  </outline>
</glyph>
<glyph name="braceright" format="1">
  <advance width="725"/>
  <unicode hex="007D"/>
  <outline>
    <contour>
      <point x="161" y="-523" type="line" smooth="yes"/>
      <point x="252" y="-523"/>
      <point x="319" y="-472"/>
      <point x="348" y="-381" type="curve" smooth="yes"/>
      <point x="524" y="173" type="line" smooth="yes"/>
      <point x="579" y="348"/>
      <point x="613" y="362"/>
      <point x="752" y="473" type="curve" smooth="yes"/>
      <point x="759" y="478"/>
      <point x="763" y="484"/>
      <point x="764" y="489" type="curve" smooth="yes"/>
      <point x="766" y="494"/>
      <point x="765" y="500"/>
      <point x="762" y="504" type="curve" smooth="yes"/>
      <point x="690" y="604"/>
      <point x="666" y="618"/>
      <point x="718" y="783" type="curve" smooth="yes"/>
      <point x="900" y="1358" type="line" smooth="yes"/>
      <point x="929" y="1450"/>
      <point x="894" y="1500"/>
      <point x="803" y="1500" type="curve" smooth="yes"/>
      <point x="615" y="1500" type="line" smooth="yes"/>
      <point x="602" y="1500"/>
      <point x="585" y="1488"/>
      <point x="582" y="1475" type="curve" smooth="yes"/>
      <point x="564" y="1421" type="line" smooth="yes"/>
      <point x="559" y="1406"/>
      <point x="568" y="1394"/>
      <point x="581" y="1394" type="curve" smooth="yes"/>
      <point x="746" y="1394" type="line" smooth="yes"/>
      <point x="760" y="1394"/>
      <point x="767" y="1383"/>
      <point x="763" y="1370" type="curve" smooth="yes"/>
      <point x="567" y="753" type="line" smooth="yes"/>
      <point x="526" y="626"/>
      <point x="574" y="551"/>
      <point x="611" y="489" type="curve"/>
      <point x="535" y="427"/>
      <point x="440" y="351"/>
      <point x="399" y="225" type="curve" smooth="yes"/>
      <point x="203" y="-393" type="line" smooth="yes"/>
      <point x="199" y="-406"/>
      <point x="186" y="-417"/>
      <point x="172" y="-417" type="curve" smooth="yes"/>
      <point x="7" y="-417" type="line" smooth="yes"/>
      <point x="-6" y="-417"/>
      <point x="-23" y="-429"/>
      <point x="-28" y="-443" type="curve" smooth="yes"/>
      <point x="-45" y="-497" type="line" smooth="yes"/>
      <point x="-49" y="-511"/>
      <point x="-40" y="-523"/>
      <point x="-27" y="-523" type="curve" smooth="yes"/>
    </contour>
  </outline>
</glyph>
<glyph name="asciitilde" format="1">
  <advance width="1282"/>
  <unicode hex="007E"/>
  <outline>
    <contour>
      <point x="429" y="453"/>
      <point x="528" y="484"/>
      <point x="613" y="484" type="curve" smooth="yes"/>
      <point x="799" y="484"/>
      <point x="823" y="349"/>
      <point x="1022" y="349" type="curve" smooth="yes"/>
      <point x="1112" y="349"/>
      <point x="1207" y="379"/>
      <point x="1305" y="440" type="curve"/>
      <point x="1266" y="551" type="line"/>
      <point x="1189" y="513"/>
      <point x="1120" y="493"/>
      <point x="1055" y="493" type="curve" smooth="yes"/>
      <point x="861" y="493"/>
      <point x="846" y="621"/>
      <point x="644" y="621" type="curve" smooth="yes"/>
      <point x="530" y="621"/>
      <point x="398" y="581"/>
      <point x="284" y="504" type="curve"/>
      <point x="315" y="391" type="line"/>
    </contour>
  </outline>
</glyph>
<glyph name="guillemetleft" format="1">
  <advance width="957"/>
  <unicode hex="00AB"/>
  <outline>
    <contour>
      <point x="374" y="-108"/>
      <point x="378" y="-109"/>
      <point x="383" y="-109" type="curve" smooth="yes"/>
      <point x="394" y="-109"/>
      <point x="406" y="-104"/>
      <point x="415" y="-93" type="curve" smooth="yes"/>
      <point x="515" y="30" type="line" smooth="yes"/>
      <point x="520" y="35"/>
      <point x="524" y="36"/>
      <point x="527" y="30" type="curve" smooth="yes"/>
      <point x="551" y="-15"/>
      <point x="655" y="-110"/>
      <point x="698" y="-110" type="curve" smooth="yes"/>
      <point x="708" y="-110"/>
      <point x="719" y="-105"/>
      <point x="728" y="-93" type="curve" smooth="yes"/>
      <point x="852" y="58" type="line" smooth="yes"/>
      <point x="855" y="62"/>
      <point x="858" y="67"/>
      <point x="860" y="72" type="curve" smooth="yes"/>
      <point x="864" y="84"/>
      <point x="862" y="93"/>
      <point x="850" y="98" type="curve" smooth="yes"/>
      <point x="711" y="160"/>
      <point x="671" y="228"/>
      <point x="701" y="323" type="curve" smooth="yes"/>
      <point x="751" y="481"/>
      <point x="1019" y="732"/>
      <point x="1034" y="782" type="curve" smooth="yes"/>
      <point x="1038" y="793"/>
      <point x="1036" y="802"/>
      <point x="1025" y="806" type="curve"/>
      <point x="962" y="834" type="line"/>
      <point x="954" y="835"/>
      <point x="941" y="829"/>
      <point x="932" y="819" type="curve" smooth="yes"/>
      <point x="763" y="630"/>
      <point x="571" y="426"/>
      <point x="514" y="247" type="curve" smooth="yes"/>
      <point x="501" y="206"/>
      <point x="495" y="167"/>
      <point x="498" y="130" type="curve"/>
      <point x="497" y="126"/>
      <point x="495" y="121"/>
      <point x="492" y="121" type="curve" smooth="yes"/>
      <point x="490" y="121"/>
      <point x="489" y="121"/>
      <point x="488" y="122" type="curve"/>
      <point x="388" y="178"/>
      <point x="361" y="240"/>
      <point x="387" y="322" type="curve" smooth="yes"/>
      <point x="438" y="481"/>
      <point x="706" y="734"/>
      <point x="721" y="782" type="curve" smooth="yes"/>
      <point x="725" y="793"/>
      <point x="722" y="802"/>
      <point x="711" y="806" type="curve"/>
      <point x="648" y="834" type="line"/>
      <point x="639" y="835"/>
      <point x="626" y="829"/>
      <point x="617" y="819" type="curve" smooth="yes"/>
      <point x="449" y="630"/>
      <point x="257" y="426"/>
      <point x="200" y="247" type="curve" smooth="yes"/>
      <point x="156" y="110"/>
      <point x="190" y="-13"/>
      <point x="369" y="-107" type="curve" smooth="yes"/>
    </contour>
  </outline>
</glyph>
<glyph name="degree" format="1">
  <advance width="812"/>
  <unicode hex="00B0"/>
  <outline>
    <contour>
      <point x="900" y="1027"/>
      <point x="1068" y="1155"/>
      <point x="1119" y="1313" type="curve" smooth="yes"/>
      <point x="1170" y="1472"/>
      <point x="1082" y="1599"/>
      <point x="924" y="1599" type="curve" smooth="yes"/>
      <point x="765" y="1599"/>
      <point x="598" y="1472"/>
      <point x="547" y="1313" type="curve" smooth="yes"/>
      <point x="496" y="1155"/>
      <point x="583" y="1027"/>
      <point x="742" y="1027" type="curve" smooth="yes"/>
    </contour>
    <contour>
      <point x="673" y="1129"/>
      <point x="616" y="1212"/>
      <point x="648" y="1313" type="curve" smooth="yes"/>
      <point x="681" y="1415"/>
      <point x="789" y="1497"/>
      <point x="891" y="1497" type="curve" smooth="yes"/>
      <point x="993" y="1497"/>
      <point x="1050" y="1415"/>
      <point x="1017" y="1313" type="curve" smooth="yes"/>
      <point x="984" y="1211"/>
      <point x="877" y="1129"/>
      <point x="775" y="1129" type="curve" smooth="yes"/>
    </contour>
  </outline>
</glyph>
<glyph name="guillemetright" format="1">
  <advance width="958"/>
  <unicode hex="00BB"/>
  <outline>
    <contour>
      <point x="238" y="-109"/>
      <point x="404" y="-13"/>
      <point x="461" y="37" type="curve"/>
      <point x="486" y="-94" type="line" smooth="yes"/>
      <point x="490" y="-105"/>
      <point x="499" y="-109"/>
      <point x="509" y="-109" type="curve" smooth="yes"/>
      <point x="513" y="-109"/>
      <point x="518" y="-108"/>
      <point x="523" y="-107" type="curve" smooth="yes"/>
      <point x="762" y="-13"/>
      <point x="873" y="109"/>
      <point x="918" y="246" type="curve" smooth="yes"/>
      <point x="975" y="426"/>
      <point x="911" y="630"/>
      <point x="863" y="819" type="curve"/>
      <point x="859" y="829"/>
      <point x="839" y="833"/>
      <point x="827" y="831" type="curve"/>
      <point x="762" y="806" type="line" smooth="yes"/>
      <point x="748" y="802"/>
      <point x="739" y="793"/>
      <point x="735" y="782" type="curve" smooth="yes"/>
      <point x="722" y="739"/>
      <point x="830" y="483"/>
      <point x="779" y="322" type="curve" smooth="yes"/>
      <point x="751" y="236"/>
      <point x="681" y="172"/>
      <point x="535" y="115" type="curve"/>
      <point x="567" y="157"/>
      <point x="589" y="202"/>
      <point x="604" y="247" type="curve" smooth="yes"/>
      <point x="661" y="427"/>
      <point x="598" y="630"/>
      <point x="550" y="819" type="curve"/>
      <point x="547" y="829"/>
      <point x="526" y="833"/>
      <point x="514" y="831" type="curve"/>
      <point x="448" y="806" type="line" smooth="yes"/>
      <point x="435" y="802"/>
      <point x="427" y="793"/>
      <point x="423" y="782" type="curve" smooth="yes"/>
      <point x="411" y="740"/>
      <point x="516" y="483"/>
      <point x="465" y="322" type="curve" smooth="yes"/>
      <point x="435" y="228"/>
      <point x="351" y="160"/>
      <point x="172" y="98" type="curve" smooth="yes"/>
      <point x="159" y="93"/>
      <point x="145" y="84"/>
      <point x="143" y="70" type="curve"/>
      <point x="172" y="-94" type="line"/>
      <point x="175" y="-104"/>
      <point x="185" y="-109"/>
      <point x="195" y="-109" type="curve" smooth="yes"/>
    </contour>
  </outline>
</glyph>
<glyph name="multiply" format="1">
  <advance width="1234"/>
  <unicode hex="00D7"/>
  <outline>
    <contour>
      <point x="744" y="395" type="line"/>
      <point x="988" y="-33" type="line"/>
      <point x="1132" y="56" type="line"/>
      <point x="873" y="502" type="line"/>
      <point x="1375" y="918" type="line"/>
      <point x="1298" y="1010" type="line"/>
      <point x="812" y="610" type="line"/>
      <point x="581" y="1010" type="line"/>
      <point x="444" y="918" type="line"/>
      <point x="682" y="502" type="line"/>
      <point x="137" y="53" type="line"/>
      <point x="227" y="-32" type="line"/>
    </contour>
  </outline>
</glyph>
<glyph name="divide" format="1">
  <advance width="1190"/>
  <unicode hex="00F7"/>
  <outline>
    <contour>
      <point x="1192" y="374" type="line"/>
      <point x="1245" y="542" type="line"/>
      <point x="296" y="542" type="line"/>
      <point x="243" y="374" type="line"/>
    </contour>
    <contour>
      <point x="645" y="-67"/>
      <point x="708" y="-20"/>
      <point x="725" y="36" type="curve" smooth="yes"/>
      <point x="744" y="94"/>
      <point x="712" y="142"/>
      <point x="654" y="142" type="curve" smooth="yes"/>
      <point x="597" y="142"/>
      <point x="535" y="94"/>
      <point x="516" y="36" type="curve" smooth="yes"/>
      <point x="499" y="-19"/>
      <point x="532" y="-67"/>
      <point x="588" y="-67" type="curve" smooth="yes"/>
    </contour>
    <contour>
      <point x="932" y="835"/>
      <point x="994" y="883"/>
      <point x="1013" y="941" type="curve" smooth="yes"/>
      <point x="1030" y="997"/>
      <point x="998" y="1044"/>
      <point x="940" y="1044" type="curve" smooth="yes"/>
      <point x="883" y="1044"/>
      <point x="821" y="997"/>
      <point x="804" y="941" type="curve" smooth="yes"/>
      <point x="785" y="883"/>
      <point x="817" y="835"/>
      <point x="874" y="835" type="curve" smooth="yes"/>
    </contour>
  </outline>
</glyph>
<glyph name="caron" format="1">
  <advance width="711"/>
  <unicode hex="02C7"/>
  <outline>
    <contour>
      <point x="767" y="1022" type="line"/>
      <point x="1061" y="1446" type="line"/>
      <point x="1007" y="1510" type="line"/>
      <point x="778" y="1182" type="line"/>
      <point x="763" y="1325"/>
      <point x="752" y="1454"/>
      <point x="678" y="1454" type="curve" smooth="yes"/>
      <point x="651" y="1454"/>
      <point x="618" y="1440"/>
      <point x="578" y="1410" type="curve"/>
      <point x="640" y="1289"/>
      <point x="647" y="1135"/>
      <point x="656" y="992" type="curve"/>
    </contour>
  </outline>
</glyph>
<glyph name="lowringmod" format="1">
  <advance width="763"/>
  <unicode hex="02F3"/>
  <outline>
    <contour>
      <point x="377" y="-462"/>
      <point x="532" y="-345"/>
      <point x="578" y="-199" type="curve" smooth="yes"/>
      <point x="624" y="-55"/>
      <point x="544" y="62"/>
      <point x="400" y="62" type="curve" smooth="yes"/>
      <point x="257" y="62"/>
      <point x="101" y="-56"/>
      <point x="55" y="-199" type="curve" smooth="yes"/>
      <point x="9" y="-345"/>
      <point x="88" y="-462"/>
      <point x="232" y="-462" type="curve" smooth="yes"/>
    </contour>
    <contour>
      <point x="172" y="-366"/>
      <point x="120" y="-292"/>
      <point x="150" y="-198" type="curve" smooth="yes"/>
      <point x="180" y="-106"/>
      <point x="278" y="-32"/>
      <point x="370" y="-32" type="curve" smooth="yes"/>
      <point x="462" y="-32"/>
      <point x="513" y="-107"/>
      <point x="483" y="-198" type="curve" smooth="yes"/>
      <point x="454" y="-291"/>
      <point x="357" y="-366"/>
      <point x="264" y="-366" type="curve" smooth="yes"/>
    </contour>
  </outline>
</glyph>
<glyph name="comma-ar" format="1">
  <advance width="502"/>
  <unicode hex="060C"/>
  <outline>
    <contour>
      <point x="255" y="-29"/>
      <point x="259" y="-30"/>
      <point x="263" y="-30" type="curve" smooth="yes"/>
      <point x="272" y="-30"/>
      <point x="281" y="-24"/>
      <point x="289" y="-15" type="curve" smooth="yes"/>
      <point x="418" y="122" type="line" smooth="yes"/>
      <point x="423" y="127"/>
      <point x="425" y="131"/>
      <point x="426" y="135" type="curve" smooth="yes"/>
      <point x="429" y="145"/>
      <point x="427" y="154"/>
      <point x="417" y="157" type="curve" smooth="yes"/>
      <point x="356" y="180"/>
      <point x="331" y="209"/>
      <point x="347" y="259" type="curve" smooth="yes"/>
      <point x="363" y="309"/>
      <point x="394" y="345"/>
      <point x="546" y="525" type="curve"/>
      <point x="554" y="542"/>
      <point x="554" y="551"/>
      <point x="545" y="561" type="curve"/>
      <point x="503" y="580" type="line"/>
      <point x="488" y="581"/>
      <point x="479" y="581"/>
      <point x="464" y="567" type="curve"/>
      <point x="262" y="334"/>
      <point x="206" y="264"/>
      <point x="173" y="162" type="curve" smooth="yes"/>
      <point x="148" y="84"/>
      <point x="160" y="12"/>
      <point x="252" y="-27" type="curve" smooth="yes"/>
    </contour>
  </outline>
</glyph>
<glyph name="tahabove-ar" format="1">
  <advance width="0"/>
  <unicode hex="0615"/>
  <outline>
    <contour>
      <point x="589" y="1242" type="line"/>
      <point x="592" y="1258"/>
      <point x="583" y="1267"/>
      <point x="570" y="1267" type="curve" smooth="yes"/>
      <point x="565" y="1267"/>
      <point x="560" y="1266"/>
      <point x="554" y="1262" type="curve" smooth="yes"/>
      <point x="511" y="1237" type="line" smooth="yes"/>
      <point x="502" y="1231"/>
      <point x="494" y="1223"/>
      <point x="491" y="1214" type="curve"/>
      <point x="437" y="1010" type="line"/>
      <point x="421" y="961"/>
      <point x="407" y="936"/>
      <point x="371" y="906" type="curve"/>
      <point x="322" y="910" type="line" smooth="yes"/>
      <point x="306" y="911"/>
      <point x="288" y="897"/>
      <point x="286" y="879" type="curve" smooth="yes"/>
      <point x="282" y="819"/>
      <point x="287" y="811"/>
      <point x="341" y="805" type="curve" smooth="yes"/>
      <point x="363" y="804"/>
      <point x="389" y="803"/>
      <point x="416" y="803" type="curve" smooth="yes"/>
      <point x="554" y="803"/>
      <point x="760" y="839"/>
      <point x="799" y="958" type="curve" smooth="yes"/>
      <point x="820" y="1027"/>
      <point x="780" y="1103"/>
      <point x="700" y="1103" type="curve" smooth="yes"/>
      <point x="656" y="1104"/>
      <point x="600" y="1080"/>
      <point x="527" y="1030" type="curve"/>
    </contour>
    <contour>
      <point x="647" y="913"/>
      <point x="550" y="896"/>
      <point x="444" y="897" type="curve"/>
      <point x="563" y="988"/>
      <point x="603" y="1009"/>
      <point x="647" y="1009" type="curve" smooth="yes"/>
      <point x="701" y="1009"/>
      <point x="722" y="971"/>
      <point x="728" y="945" type="curve"/>
    </contour>
    <contour>
      <point x="699" y="1466" type="move" name="top"/>
    </contour>
    <contour>
      <point x="525" y="800" type="move" name="_top"/>
    </contour>
  </outline>
</glyph>
<glyph name="alefLamYehabove-ar" format="1">
  <advance width="0"/>
  <unicode hex="0616"/>
  <outline>
    <contour>
      <point x="425" y="369"/>
      <point x="675" y="381"/>
      <point x="925" y="396" type="curve" smooth="yes"/>
      <point x="946" y="396"/>
      <point x="961" y="404"/>
      <point x="970" y="418" type="curve" smooth="yes"/>
      <point x="988" y="448" type="line" smooth="yes"/>
      <point x="998" y="467"/>
      <point x="991" y="482"/>
      <point x="973" y="480" type="curve" smooth="yes"/>
      <point x="797" y="467"/>
      <point x="574" y="455"/>
      <point x="409" y="455" type="curve" smooth="yes"/>
      <point x="336" y="455"/>
      <point x="266" y="459"/>
      <point x="210" y="474" type="curve"/>
      <point x="280" y="583"/>
      <point x="426" y="613"/>
      <point x="549" y="640" type="curve" smooth="yes"/>
      <point x="560" y="643"/>
      <point x="570" y="649"/>
      <point x="577" y="657" type="curve" smooth="yes"/>
      <point x="618" y="698"/>
      <point x="651" y="751"/>
      <point x="672" y="814" type="curve"/>
      <point x="772" y="1186" type="line"/>
      <point x="798" y="1131"/>
      <point x="815" y="1094"/>
      <point x="788" y="1010" type="curve"/>
      <point x="605" y="546" type="line"/>
      <point x="597" y="529"/>
      <point x="606" y="516"/>
      <point x="622" y="518" type="curve" smooth="yes"/>
      <point x="641" y="522" type="line" smooth="yes"/>
      <point x="657" y="526"/>
      <point x="664" y="533"/>
      <point x="670" y="547" type="curve"/>
      <point x="864" y="1029" type="line"/>
      <point x="902" y="1145"/>
      <point x="878" y="1192"/>
      <point x="845" y="1269" type="curve" smooth="yes"/>
      <point x="841" y="1276"/>
      <point x="836" y="1280"/>
      <point x="829" y="1280" type="curve" smooth="yes"/>
      <point x="823" y="1280"/>
      <point x="817" y="1278"/>
      <point x="810" y="1274" type="curve" smooth="yes"/>
      <point x="716" y="1217" type="line" smooth="yes"/>
      <point x="707" y="1212"/>
      <point x="700" y="1203"/>
      <point x="697" y="1192" type="curve"/>
      <point x="578" y="723" type="line"/>
      <point x="463" y="696"/>
      <point x="345" y="670"/>
      <point x="249" y="589" type="curve" smooth="yes"/>
      <point x="218" y="563"/>
      <point x="163" y="505"/>
      <point x="148" y="457" type="curve" smooth="yes"/>
      <point x="123" y="376"/>
      <point x="212" y="369"/>
      <point x="334" y="369" type="curve" smooth="yes"/>
    </contour>
    <contour>
      <point x="895" y="1482" type="move" name="top"/>
    </contour>
    <contour>
      <point x="541" y="368" type="move" name="_top"/>
    </contour>
  </outline>
</glyph>
<glyph name="question-ar" format="1">
  <advance width="848"/>
  <unicode hex="061F"/>
  <outline>
    <contour>
      <point x="690" y="416" type="line"/>
      <point x="707" y="420"/>
      <point x="717" y="431"/>
      <point x="721" y="445" type="curve"/>
      <point x="760" y="556" type="line"/>
      <point x="833" y="786"/>
      <point x="773" y="791"/>
      <point x="561" y="1027" type="curve" smooth="yes"/>
      <point x="560" y="1029"/>
      <point x="559" y="1031"/>
      <point x="560" y="1034" type="curve" smooth="yes"/>
      <point x="561" y="1036"/>
      <point x="563" y="1039"/>
      <point x="564" y="1042" type="curve" smooth="yes"/>
      <point x="618" y="1165"/>
      <point x="757" y="1196"/>
      <point x="857" y="1196" type="curve" smooth="yes"/>
      <point x="921" y="1196"/>
      <point x="980" y="1175"/>
      <point x="1025" y="1143" type="curve" smooth="yes"/>
      <point x="1027" y="1141"/>
      <point x="1032" y="1140"/>
      <point x="1035" y="1140" type="curve" smooth="yes"/>
      <point x="1048" y="1140"/>
      <point x="1062" y="1151"/>
      <point x="1067" y="1167" type="curve" smooth="yes"/>
      <point x="1100" y="1269" type="line" smooth="yes"/>
      <point x="1104" y="1282"/>
      <point x="1102" y="1290"/>
      <point x="1093" y="1299" type="curve" smooth="yes"/>
      <point x="1044" y="1348"/>
      <point x="978" y="1371"/>
      <point x="906" y="1371" type="curve" smooth="yes"/>
      <point x="730" y="1371"/>
      <point x="519" y="1234"/>
      <point x="446" y="1004" type="curve" smooth="yes"/>
      <point x="395" y="844"/>
      <point x="496" y="803"/>
      <point x="574" y="694" type="curve" smooth="yes"/>
      <point x="624" y="625"/>
      <point x="648" y="599"/>
      <point x="618" y="508" type="curve" smooth="yes"/>
      <point x="586" y="415" type="line" smooth="yes"/>
      <point x="580" y="398"/>
      <point x="585" y="388"/>
      <point x="599" y="390" type="curve"/>
    </contour>
    <component base="period" xOffset="295" yOffset="-20" xScale="0.876" yScale="0.876"/>
  </outline>
</glyph>
<glyph name="hamza-ar" format="1">
  <advance width="996"/>
  <unicode hex="0621"/>
  <outline>
    <contour>
      <point x="947" y="310" type="line"/>
      <point x="958" y="316"/>
      <point x="967" y="324"/>
      <point x="969" y="331" type="curve"/>
      <point x="1004" y="465" type="line"/>
      <point x="1009" y="481"/>
      <point x="1001" y="495"/>
      <point x="976" y="482" type="curve" smooth="yes"/>
      <point x="581" y="285" type="line" smooth="yes"/>
      <point x="576" y="282"/>
      <point x="571" y="283"/>
      <point x="569" y="286" type="curve" smooth="yes"/>
      <point x="434" y="462" type="line" smooth="yes"/>
      <point x="430" y="467"/>
      <point x="430" y="468"/>
      <point x="436" y="471" type="curve" smooth="yes"/>
      <point x="570" y="546"/>
      <point x="675" y="597"/>
      <point x="799" y="597" type="curve" smooth="yes"/>
      <point x="835" y="597"/>
      <point x="864" y="594"/>
      <point x="870" y="622" type="curve" smooth="yes"/>
      <point x="887" y="708" type="line" smooth="yes"/>
      <point x="889" y="721"/>
      <point x="885" y="731"/>
      <point x="873" y="734" type="curve" smooth="yes"/>
      <point x="838" y="743"/>
      <point x="803" y="750"/>
      <point x="766" y="750" type="curve" smooth="yes"/>
      <point x="579" y="750"/>
      <point x="374" y="620"/>
      <point x="318" y="445" type="curve" smooth="yes"/>
      <point x="287" y="349"/>
      <point x="353" y="242"/>
      <point x="409" y="196" type="curve" smooth="yes"/>
      <point x="413" y="193"/>
      <point x="412" y="191"/>
      <point x="406" y="188" type="curve" smooth="yes"/>
      <point x="269" y="119" type="line" smooth="yes"/>
      <point x="256" y="112"/>
      <point x="248" y="103"/>
      <point x="244" y="90" type="curve" smooth="yes"/>
      <point x="211" y="-9" type="line" smooth="yes"/>
      <point x="204" y="-30"/>
      <point x="220" y="-38"/>
      <point x="239" y="-29" type="curve"/>
    </contour>
    <contour>
      <point x="797" y="956" type="move" name="top"/>
    </contour>
    <contour>
      <point x="513" y="-220" type="move" name="bottom"/>
    </contour>
  </outline>
</glyph>
<glyph name="alef-ar" format="1">
  <advance width="512"/>
  <unicode hex="0627"/>
  <outline>
    <contour>
      <point x="360" y="-2" type="line" smooth="yes"/>
      <point x="371" y="1"/>
      <point x="380" y="10"/>
      <point x="384" y="21" type="curve" smooth="yes"/>
      <point x="835" y="1468" type="line" smooth="yes"/>
      <point x="844" y="1493"/>
      <point x="825" y="1505"/>
      <point x="800" y="1495" type="curve" smooth="yes"/>
      <point x="646" y="1423" type="line" smooth="yes"/>
      <point x="638" y="1419"/>
      <point x="632" y="1411"/>
      <point x="629" y="1403" type="curve" smooth="yes"/>
      <point x="238" y="-5" type="line" smooth="yes"/>
      <point x="235" y="-22"/>
      <point x="243" y="-37"/>
      <point x="271" y="-31" type="curve" smooth="yes"/>
    </contour>
    <contour>
      <point x="821" y="1707" type="move" name="top"/>
    </contour>
    <contour>
      <point x="251" y="-228" type="move" name="bottom"/>
    </contour>
  </outline>
</glyph>
<glyph name="tehMarbuta-ar" format="1">
  <advance width="1025"/>
  <unicode hex="0629"/>
  <outline>
    <component base="heh-ar"/>
    <component base="twodotshorizontalabove-ar" xOffset="191" yOffset="280"/>
    <contour>
      <point x="354" y="-230" type="move" name="bottom"/>
    </contour>
  </outline>
</glyph>
<glyph name="hah-ar" format="1">
  <advance width="1410"/>
  <unicode hex="062D"/>
  <outline>
    <contour>
      <point x="986" y="-646"/>
      <point x="1045" y="-620"/>
      <point x="1144" y="-481" type="curve" smooth="yes"/>
      <point x="1157" y="-458"/>
      <point x="1146" y="-444"/>
      <point x="1126" y="-444" type="curve" smooth="yes"/>
      <point x="1092" y="-444"/>
      <point x="893" y="-497"/>
      <point x="659" y="-497" type="curve" smooth="yes"/>
      <point x="381" y="-497"/>
      <point x="173" y="-403"/>
      <point x="249" y="-162" type="curve" smooth="yes"/>
      <point x="371" y="220"/>
      <point x="835" y="476"/>
      <point x="1348" y="483" type="curve" smooth="yes"/>
      <point x="1359" y="483"/>
      <point x="1370" y="490"/>
      <point x="1375" y="499" type="curve" smooth="yes"/>
      <point x="1462" y="633"/>
      <point x="1483" y="664"/>
      <point x="1486" y="674" type="curve" smooth="yes"/>
      <point x="1493" y="698"/>
      <point x="1448" y="696"/>
      <point x="1379" y="696" type="curve" smooth="yes"/>
      <point x="1011" y="696"/>
      <point x="909" y="849"/>
      <point x="719" y="849" type="curve" smooth="yes"/>
      <point x="627" y="849"/>
      <point x="548" y="804"/>
      <point x="414" y="697" type="curve" smooth="yes"/>
      <point x="403" y="689"/>
      <point x="402" y="684"/>
      <point x="402" y="673" type="curve" smooth="yes"/>
      <point x="407" y="583" type="line" smooth="yes"/>
      <point x="408" y="569"/>
      <point x="415" y="562"/>
      <point x="427" y="562" type="curve" smooth="yes"/>
      <point x="434" y="562"/>
      <point x="444" y="565"/>
      <point x="453" y="572" type="curve" smooth="yes"/>
      <point x="540" y="638"/>
      <point x="587" y="660"/>
      <point x="634" y="660" type="curve" smooth="yes"/>
      <point x="672" y="660"/>
      <point x="679" y="657"/>
      <point x="947" y="573" type="curve"/>
      <point x="551" y="491"/>
      <point x="221" y="155"/>
      <point x="115" y="-178" type="curve" smooth="yes"/>
      <point x="-16" y="-590"/>
      <point x="204" y="-697"/>
      <point x="506" y="-697" type="curve" smooth="yes"/>
      <point x="595" y="-697"/>
      <point x="692" y="-687"/>
      <point x="788" y="-674" type="curve" smooth="yes"/>
    </contour>
    <contour>
      <point x="802" y="-10" type="move" name="center"/>
    </contour>
    <contour>
      <point x="451" y="-901" type="move" name="bottom"/>
    </contour>
    <contour>
      <point x="787" y="1048" type="move" name="top"/>
    </contour>
  </outline>
</glyph>
<glyph name="dal-ar" format="1">
  <advance width="1134"/>
  <unicode hex="062F"/>
  <outline>
    <contour>
      <point x="568" y="-38"/>
      <point x="844" y="8"/>
      <point x="948" y="68" type="curve" smooth="yes"/>
      <point x="1011" y="105"/>
      <point x="1055" y="168"/>
      <point x="1082" y="255" type="curve" smooth="yes"/>
      <point x="1143" y="445"/>
      <point x="1089" y="554"/>
      <point x="965" y="956" type="curve" smooth="yes"/>
      <point x="963" y="964"/>
      <point x="957" y="968"/>
      <point x="949" y="968" type="curve" smooth="yes"/>
      <point x="943" y="968"/>
      <point x="936" y="965"/>
      <point x="930" y="959" type="curve" smooth="yes"/>
      <point x="815" y="832" type="line" smooth="yes"/>
      <point x="810" y="828"/>
      <point x="807" y="822"/>
      <point x="805" y="816" type="curve" smooth="yes"/>
      <point x="802" y="810"/>
      <point x="804" y="804"/>
      <point x="806" y="798" type="curve" smooth="yes"/>
      <point x="942" y="407"/>
      <point x="957" y="294"/>
      <point x="948" y="220" type="curve"/>
      <point x="823" y="180"/>
      <point x="662" y="151"/>
      <point x="522" y="151" type="curve" smooth="yes"/>
      <point x="355" y="151"/>
      <point x="352" y="159"/>
      <point x="393" y="321" type="curve" smooth="yes"/>
      <point x="398" y="337"/>
      <point x="390" y="347"/>
      <point x="375" y="347" type="curve" smooth="yes"/>
      <point x="316" y="347" type="line" smooth="yes"/>
      <point x="300" y="347"/>
      <point x="288" y="338"/>
      <point x="282" y="323" type="curve" smooth="yes"/>
      <point x="270" y="290"/>
      <point x="256" y="257"/>
      <point x="246" y="226" type="curve" smooth="yes"/>
      <point x="201" y="82"/>
      <point x="206" y="-38"/>
      <point x="434" y="-38" type="curve" smooth="yes"/>
    </contour>
    <contour>
      <point x="976" y="1170" type="move" name="top"/>
    </contour>
    <contour>
      <point x="449" y="-268" type="move" name="bottom"/>
    </contour>
    <contour>
      <point x="834" y="-135" type="move" name="ring"/>
    </contour>
  </outline>
</glyph>
<glyph name="reh-ar" format="1">
  <advance width="885"/>
  <unicode hex="0631"/>
  <outline>
    <contour>
      <point x="531" y="-283"/>
      <point x="747" y="-12"/>
      <point x="808" y="180" type="curve" smooth="yes"/>
      <point x="850" y="313"/>
      <point x="849" y="495"/>
      <point x="861" y="685" type="curve" smooth="yes"/>
      <point x="863" y="702"/>
      <point x="848" y="710"/>
      <point x="826" y="694" type="curve" smooth="yes"/>
      <point x="695" y="594" type="line" smooth="yes"/>
      <point x="687" y="588"/>
      <point x="681" y="582"/>
      <point x="678" y="573" type="curve"/>
      <point x="678" y="138" type="line"/>
      <point x="678" y="132"/>
      <point x="677" y="130"/>
      <point x="673" y="123" type="curve" smooth="yes"/>
      <point x="481" y="-139"/>
      <point x="302" y="-255"/>
      <point x="80" y="-255" type="curve" smooth="yes"/>
      <point x="22" y="-255"/>
      <point x="-40" y="-248"/>
      <point x="-103" y="-232" type="curve" smooth="yes"/>
      <point x="-117" y="-229"/>
      <point x="-133" y="-238"/>
      <point x="-142" y="-253" type="curve"/>
      <point x="-188" y="-326" type="line"/>
      <point x="-193" y="-336"/>
      <point x="-186" y="-344"/>
      <point x="-174" y="-348" type="curve" smooth="yes"/>
      <point x="-57" y="-392"/>
      <point x="44" y="-419"/>
      <point x="140" y="-419" type="curve" smooth="yes"/>
      <point x="210" y="-419"/>
      <point x="277" y="-404"/>
      <point x="346" y="-372" type="curve" smooth="yes"/>
    </contour>
    <contour>
      <point x="868" y="919" type="move" name="top"/>
    </contour>
    <contour>
      <point x="89" y="-614" type="move" name="bottom"/>
    </contour>
    <contour>
      <point x="414" y="-479" type="move" name="ring"/>
    </contour>
  </outline>
</glyph>
<glyph name="seen-ar" format="1">
  <advance width="2562"/>
  <unicode hex="0633"/>
  <outline>
    <contour>
      <point x="645" y="-510"/>
      <point x="1022" y="-419"/>
      <point x="1188" y="-256" type="curve" smooth="yes"/>
      <point x="1233" y="-213"/>
      <point x="1257" y="-162"/>
      <point x="1275" y="-100" type="curve" smooth="yes"/>
      <point x="1286" y="-65"/>
      <point x="1295" y="-26"/>
      <point x="1305" y="16" type="curve"/>
      <point x="1340" y="3"/>
      <point x="1399" y="-5"/>
      <point x="1466" y="-5" type="curve" smooth="yes"/>
      <point x="1593" y="-5"/>
      <point x="1751" y="23"/>
      <point x="1831" y="88" type="curve"/>
      <point x="1912" y="29"/>
      <point x="2012" y="-7"/>
      <point x="2132" y="-7" type="curve" smooth="yes"/>
      <point x="2359" y="-7"/>
      <point x="2463" y="76"/>
      <point x="2525" y="305" type="curve" smooth="yes"/>
      <point x="2552" y="403"/>
      <point x="2596" y="655"/>
      <point x="2605" y="817" type="curve" smooth="yes"/>
      <point x="2606" y="829"/>
      <point x="2600" y="835"/>
      <point x="2590" y="835" type="curve" smooth="yes"/>
      <point x="2585" y="835"/>
      <point x="2576" y="832"/>
      <point x="2569" y="827" type="curve" smooth="yes"/>
      <point x="2440" y="726" type="line" smooth="yes"/>
      <point x="2432" y="719"/>
      <point x="2427" y="711"/>
      <point x="2424" y="703" type="curve"/>
      <point x="2385" y="212" type="line"/>
      <point x="2384" y="205"/>
      <point x="2378" y="199"/>
      <point x="2370" y="197" type="curve" smooth="yes"/>
      <point x="2311" y="186"/>
      <point x="2257" y="180"/>
      <point x="2207" y="180" type="curve" smooth="yes"/>
      <point x="2118" y="180"/>
      <point x="2041" y="198"/>
      <point x="1969" y="234" type="curve" smooth="yes"/>
      <point x="1967" y="235"/>
      <point x="1966" y="237"/>
      <point x="1967" y="240" type="curve" smooth="yes"/>
      <point x="2106" y="574" type="line" smooth="yes"/>
      <point x="2113" y="589"/>
      <point x="2106" y="602"/>
      <point x="2091" y="603" type="curve" smooth="yes"/>
      <point x="2022" y="609" type="line" smooth="yes"/>
      <point x="2008" y="610"/>
      <point x="1993" y="602"/>
      <point x="1988" y="587" type="curve" smooth="yes"/>
      <point x="1880" y="344" type="line" smooth="yes"/>
      <point x="1830" y="231"/>
      <point x="1739" y="186"/>
      <point x="1565" y="186" type="curve" smooth="yes"/>
      <point x="1423" y="186"/>
      <point x="1340" y="200"/>
      <point x="1356" y="300" type="curve" smooth="yes"/>
      <point x="1397" y="557" type="line" smooth="yes"/>
      <point x="1399" y="574"/>
      <point x="1389" y="584"/>
      <point x="1376" y="584" type="curve" smooth="yes"/>
      <point x="1369" y="584"/>
      <point x="1362" y="582"/>
      <point x="1356" y="577" type="curve" smooth="yes"/>
      <point x="1225" y="498" type="line" smooth="yes"/>
      <point x="1218" y="494"/>
      <point x="1212" y="485"/>
      <point x="1209" y="477" type="curve"/>
      <point x="1121" y="-162" type="line"/>
      <point x="1121" y="-165"/>
      <point x="1118" y="-167"/>
      <point x="1116" y="-168" type="curve" smooth="yes"/>
      <point x="1051" y="-195"/>
      <point x="769" y="-298"/>
      <point x="517" y="-298" type="curve" smooth="yes"/>
      <point x="318" y="-298"/>
      <point x="242" y="-206"/>
      <point x="294" y="-35" type="curve" smooth="yes"/>
      <point x="311" y="22"/>
      <point x="326" y="49"/>
      <point x="422" y="249" type="curve" smooth="yes"/>
      <point x="430" y="264"/>
      <point x="422" y="277"/>
      <point x="407" y="279" type="curve" smooth="yes"/>
      <point x="339" y="290" type="line" smooth="yes"/>
      <point x="326" y="292"/>
      <point x="311" y="283"/>
      <point x="305" y="269" type="curve" smooth="yes"/>
      <point x="181" y="14"/>
      <point x="167" y="-13"/>
      <point x="142" y="-96" type="curve" smooth="yes"/>
      <point x="74" y="-322"/>
      <point x="128" y="-510"/>
      <point x="427" y="-510" type="curve" smooth="yes"/>
    </contour>
    <contour>
      <point x="900" y="678" type="move" name="top"/>
    </contour>
    <contour>
      <point x="440" y="-725" type="move" name="bottom"/>
    </contour>
  </outline>
</glyph>
<glyph name="sad-ar" format="1">
  <advance width="2611"/>
  <unicode hex="0635"/>
  <outline>
    <contour>
      <point x="645" y="-519"/>
      <point x="1022" y="-419"/>
      <point x="1185" y="-266" type="curve" smooth="yes"/>
      <point x="1225" y="-228"/>
      <point x="1249" y="-191"/>
      <point x="1273" y="-113" type="curve" smooth="yes"/>
      <point x="1285" y="-70"/>
      <point x="1299" y="-13"/>
      <point x="1315" y="63" type="curve"/>
      <point x="1402" y="7"/>
      <point x="1562" y="-21"/>
      <point x="1739" y="-21" type="curve" smooth="yes"/>
      <point x="2003" y="-21"/>
      <point x="2307" y="40"/>
      <point x="2466" y="160" type="curve"/>
      <point x="2528" y="212"/>
      <point x="2566" y="275"/>
      <point x="2586" y="339" type="curve" smooth="yes"/>
      <point x="2645" y="538"/>
      <point x="2517" y="757"/>
      <point x="2279" y="759" type="curve" smooth="yes"/>
      <point x="2108" y="760"/>
      <point x="1875" y="692"/>
      <point x="1391" y="258" type="curve"/>
      <point x="1352" y="312"/>
      <point x="1385" y="410"/>
      <point x="1411" y="555" type="curve" smooth="yes"/>
      <point x="1413" y="572"/>
      <point x="1405" y="582"/>
      <point x="1391" y="582" type="curve" smooth="yes"/>
      <point x="1384" y="582"/>
      <point x="1376" y="580"/>
      <point x="1369" y="575" type="curve" smooth="yes"/>
      <point x="1239" y="496" type="line" smooth="yes"/>
      <point x="1232" y="492"/>
      <point x="1226" y="483"/>
      <point x="1223" y="475" type="curve"/>
      <point x="1119" y="-171" type="line"/>
      <point x="1119" y="-174"/>
      <point x="1117" y="-176"/>
      <point x="1114" y="-178" type="curve" smooth="yes"/>
      <point x="1025" y="-215"/>
      <point x="811" y="-307"/>
      <point x="516" y="-307" type="curve" smooth="yes"/>
      <point x="314" y="-307"/>
      <point x="239" y="-221"/>
      <point x="290" y="-48" type="curve" smooth="yes"/>
      <point x="306" y="3"/>
      <point x="321" y="30"/>
      <point x="420" y="239" type="curve" smooth="yes"/>
      <point x="427" y="254"/>
      <point x="422" y="267"/>
      <point x="406" y="270" type="curve" smooth="yes"/>
      <point x="338" y="280" type="line" smooth="yes"/>
      <point x="326" y="283"/>
      <point x="309" y="275"/>
      <point x="303" y="259" type="curve" smooth="yes"/>
      <point x="180" y="5"/>
      <point x="158" y="-38"/>
      <point x="133" y="-123" type="curve" smooth="yes"/>
      <point x="56" y="-381"/>
      <point x="156" y="-519"/>
      <point x="426" y="-519" type="curve" smooth="yes"/>
    </contour>
    <contour>
      <point x="1829" y="513"/>
      <point x="1994" y="572"/>
      <point x="2148" y="572" type="curve" smooth="yes"/>
      <point x="2344" y="572"/>
      <point x="2438" y="385"/>
      <point x="2455" y="303" type="curve" smooth="yes"/>
      <point x="2457" y="298"/>
      <point x="2453" y="296"/>
      <point x="2449" y="294" type="curve" smooth="yes"/>
      <point x="2271" y="203"/>
      <point x="2056" y="164"/>
      <point x="1857" y="164" type="curve" smooth="yes"/>
      <point x="1721" y="164"/>
      <point x="1592" y="181"/>
      <point x="1488" y="212" type="curve"/>
    </contour>
    <contour>
      <point x="892" y="654" type="move" name="top"/>
    </contour>
    <contour>
      <point x="435" y="-750" type="move" name="bottom"/>
    </contour>
  </outline>
</glyph>
<glyph name="tah-ar" format="1">
  <advance width="1752"/>
  <unicode hex="0637"/>
  <outline>
    <contour>
      <point x="448" y="-15"/>
      <point x="529" y="-18"/>
      <point x="615" y="-18" type="curve" smooth="yes"/>
      <point x="1016" y="-18"/>
      <point x="1652" y="78"/>
      <point x="1753" y="418" type="curve" smooth="yes"/>
      <point x="1812" y="611"/>
      <point x="1680" y="824"/>
      <point x="1462" y="825" type="curve" smooth="yes"/>
      <point x="1299" y="826"/>
      <point x="1083" y="718"/>
      <point x="826" y="510" type="curve"/>
      <point x="862" y="575"/>
      <point x="888" y="648"/>
      <point x="914" y="736" type="curve"/>
      <point x="1111" y="1460" type="line"/>
      <point x="1115" y="1479"/>
      <point x="1107" y="1492"/>
      <point x="1091" y="1492" type="curve" smooth="yes"/>
      <point x="1085" y="1492"/>
      <point x="1077" y="1489"/>
      <point x="1069" y="1484" type="curve" smooth="yes"/>
      <point x="915" y="1391" type="line" smooth="yes"/>
      <point x="907" y="1386"/>
      <point x="901" y="1379"/>
      <point x="899" y="1371" type="curve" smooth="yes"/>
      <point x="731" y="810"/>
      <point x="752" y="715"/>
      <point x="704" y="555" type="curve" smooth="yes"/>
      <point x="650" y="375"/>
      <point x="603" y="317"/>
      <point x="459" y="205" type="curve" smooth="yes"/>
      <point x="456" y="204"/>
      <point x="454" y="203"/>
      <point x="451" y="203" type="curve" smooth="yes"/>
      <point x="390" y="203"/>
      <point x="333" y="214"/>
      <point x="276" y="221" type="curve" smooth="yes"/>
      <point x="259" y="223"/>
      <point x="241" y="209"/>
      <point x="236" y="192" type="curve" smooth="yes"/>
      <point x="234" y="189"/>
      <point x="234" y="187"/>
      <point x="235" y="184" type="curve" smooth="yes"/>
      <point x="240" y="38"/>
      <point x="254" y="-5"/>
      <point x="378" y="-12" type="curve" smooth="yes"/>
    </contour>
    <contour>
      <point x="1028" y="537"/>
      <point x="1163" y="621"/>
      <point x="1323" y="621" type="curve" smooth="yes"/>
      <point x="1539" y="621"/>
      <point x="1597" y="441"/>
      <point x="1600" y="361" type="curve" smooth="yes"/>
      <point x="1600" y="358"/>
      <point x="1597" y="356"/>
      <point x="1595" y="355" type="curve" smooth="yes"/>
      <point x="1333" y="241"/>
      <point x="1011" y="191"/>
      <point x="718" y="191" type="curve"/>
      <point x="592" y="194" type="line"/>
    </contour>
    <contour>
      <point x="1524" y="1056" type="move" name="top"/>
    </contour>
    <contour>
      <point x="747" y="-226" type="move" name="bottom"/>
    </contour>
  </outline>
</glyph>
<glyph name="ain-ar" format="1">
  <advance width="1289"/>
  <unicode hex="0639"/>
  <outline>
    <contour>
      <point x="900" y="-460"/>
      <point x="712" y="-491"/>
      <point x="561" y="-478" type="curve" smooth="yes"/>
      <point x="288" y="-454"/>
      <point x="278" y="-330"/>
      <point x="334" y="-143" type="curve" smooth="yes"/>
      <point x="435" y="196"/>
      <point x="873" y="414"/>
      <point x="1256" y="498" type="curve" smooth="yes"/>
      <point x="1268" y="501"/>
      <point x="1278" y="510"/>
      <point x="1285" y="525" type="curve" smooth="yes"/>
      <point x="1343" y="676" type="line" smooth="yes"/>
      <point x="1349" y="692"/>
      <point x="1342" y="702"/>
      <point x="1329" y="702" type="curve" smooth="yes"/>
      <point x="1273" y="702"/>
      <point x="922" y="564"/>
      <point x="789" y="509" type="curve" smooth="yes"/>
      <point x="771" y="501"/>
      <point x="758" y="498"/>
      <point x="747" y="498" type="curve" smooth="yes"/>
      <point x="732" y="498"/>
      <point x="721" y="504"/>
      <point x="709" y="516" type="curve" smooth="yes"/>
      <point x="618" y="612"/>
      <point x="567" y="712"/>
      <point x="589" y="844" type="curve" smooth="yes"/>
      <point x="590" y="849"/>
      <point x="593" y="852"/>
      <point x="599" y="856" type="curve" smooth="yes"/>
      <point x="705" y="935"/>
      <point x="812" y="974"/>
      <point x="928" y="974" type="curve" smooth="yes"/>
      <point x="1000" y="974"/>
      <point x="1075" y="960"/>
      <point x="1153" y="931" type="curve" smooth="yes"/>
      <point x="1166" y="926"/>
      <point x="1192" y="937"/>
      <point x="1192" y="958" type="curve" smooth="yes"/>
      <point x="1197" y="1080" type="line" smooth="yes"/>
      <point x="1197" y="1097"/>
      <point x="1197" y="1098"/>
      <point x="1188" y="1104" type="curve" smooth="yes"/>
      <point x="1118" y="1144"/>
      <point x="1039" y="1163"/>
      <point x="958" y="1163" type="curve" smooth="yes"/>
      <point x="728" y="1163"/>
      <point x="486" y="1010"/>
      <point x="428" y="783" type="curve" smooth="yes"/>
      <point x="390" y="633"/>
      <point x="426" y="503"/>
      <point x="550" y="348" type="curve"/>
      <point x="380" y="202"/>
      <point x="240" y="0"/>
      <point x="184" y="-187" type="curve" smooth="yes"/>
      <point x="81" y="-529"/>
      <point x="186" y="-700"/>
      <point x="542" y="-700" type="curve" smooth="yes"/>
      <point x="614" y="-700"/>
      <point x="693" y="-693"/>
      <point x="776" y="-678" type="curve" smooth="yes"/>
      <point x="948" y="-647"/>
      <point x="1004" y="-607"/>
      <point x="1095" y="-475" type="curve" smooth="yes"/>
      <point x="1112" y="-449"/>
      <point x="1094" y="-437"/>
      <point x="1068" y="-440" type="curve" smooth="yes"/>
    </contour>
    <contour>
      <point x="906" y="1370" type="move" name="top"/>
    </contour>
    <contour>
      <point x="488" y="-896" type="move" name="bottom"/>
    </contour>
  </outline>
</glyph>
<glyph name="kashida-ar" format="1">
  <advance width="444"/>
  <unicode hex="0640"/>
  <outline>
    <contour>
      <point x="51" y="191" type="line" smooth="yes"/>
      <point x="-13" y="191"/>
      <point x="-58" y="143"/>
      <point x="-73" y="96" type="curve" smooth="yes"/>
      <point x="-88" y="49"/>
      <point x="-73" y="0"/>
      <point x="-9" y="0" type="curve" smooth="yes"/>
      <point x="455" y="0" type="line"/>
      <point x="492" y="32"/>
      <point x="514" y="64"/>
      <point x="524" y="96" type="curve" smooth="yes"/>
      <point x="534" y="128"/>
      <point x="532" y="159"/>
      <point x="515" y="191" type="curve"/>
    </contour>
  </outline>
</glyph>
<glyph name="lam-ar" format="1">
  <advance width="1413"/>
  <unicode hex="0644"/>
  <outline>
    <contour>
      <point x="662" y="-503"/>
      <point x="1139" y="-413"/>
      <point x="1234" y="-135" type="curve"/>
      <point x="1704" y="1470" type="line"/>
      <point x="1709" y="1484"/>
      <point x="1704" y="1493"/>
      <point x="1693" y="1493" type="curve" smooth="yes"/>
      <point x="1687" y="1493"/>
      <point x="1682" y="1491"/>
      <point x="1674" y="1486" type="curve"/>
      <point x="1506" y="1384" type="line" smooth="yes"/>
      <point x="1497" y="1378"/>
      <point x="1489" y="1369"/>
      <point x="1485" y="1356" type="curve" smooth="yes"/>
      <point x="1077" y="-193" type="line"/>
      <point x="1028" y="-209"/>
      <point x="761" y="-298"/>
      <point x="500" y="-298" type="curve" smooth="yes"/>
      <point x="316" y="-298"/>
      <point x="238" y="-210"/>
      <point x="284" y="-66" type="curve" smooth="yes"/>
      <point x="298" y="-23"/>
      <point x="317" y="10"/>
      <point x="491" y="326" type="curve" smooth="yes"/>
      <point x="500" y="341"/>
      <point x="495" y="355"/>
      <point x="482" y="358" type="curve" smooth="yes"/>
      <point x="417" y="373" type="line" smooth="yes"/>
      <point x="403" y="376"/>
      <point x="391" y="370"/>
      <point x="381" y="355" type="curve" smooth="yes"/>
      <point x="189" y="13"/>
      <point x="159" y="-39"/>
      <point x="132" y="-128" type="curve" smooth="yes"/>
      <point x="69" y="-324"/>
      <point x="110" y="-503"/>
      <point x="397" y="-503" type="curve" smooth="yes"/>
    </contour>
    <contour>
      <point x="830" y="600" type="move" name="top"/>
    </contour>
    <contour>
      <point x="388" y="-698" type="move" name="bottom"/>
    </contour>
  </outline>
</glyph>
<glyph name="meem-ar" format="1">
  <advance width="1225"/>
  <unicode hex="0645"/>
  <outline>
    <contour>
      <point x="172" y="-593" type="line"/>
      <point x="186" y="-588"/>
      <point x="195" y="-579"/>
      <point x="197" y="-564" type="curve" smooth="yes"/>
      <point x="312" y="44" type="line" smooth="yes"/>
      <point x="316" y="60"/>
      <point x="323" y="68"/>
      <point x="340" y="74" type="curve" smooth="yes"/>
      <point x="499" y="122"/>
      <point x="681" y="142"/>
      <point x="849" y="142" type="curve" smooth="yes"/>
      <point x="920" y="142"/>
      <point x="986" y="138"/>
      <point x="1048" y="132" type="curve" smooth="yes"/>
      <point x="1072" y="131"/>
      <point x="1093" y="143"/>
      <point x="1107" y="169" type="curve" smooth="yes"/>
      <point x="1170" y="281"/>
      <point x="1200" y="337"/>
      <point x="1211" y="371" type="curve" smooth="yes"/>
      <point x="1269" y="566"/>
      <point x="1089" y="866"/>
      <point x="901" y="866" type="curve" smooth="yes"/>
      <point x="672" y="866"/>
      <point x="527" y="616"/>
      <point x="471" y="445" type="curve" smooth="yes"/>
      <point x="410" y="255" type="line"/>
      <point x="286" y="195"/>
      <point x="200" y="85"/>
      <point x="148" y="-77" type="curve"/>
      <point x="4" y="-625" type="line"/>
      <point x="0" y="-639"/>
      <point x="9" y="-652"/>
      <point x="21" y="-648" type="curve"/>
    </contour>
    <contour>
      <point x="628" y="304"/>
      <point x="591" y="304" type="curve" smooth="yes"/>
      <point x="581" y="304"/>
      <point x="575" y="310"/>
      <point x="577" y="323" type="curve" smooth="yes"/>
      <point x="579" y="423"/>
      <point x="579" y="436"/>
      <point x="581" y="445" type="curve" smooth="yes"/>
      <point x="584" y="451"/>
      <point x="587" y="458"/>
      <point x="592" y="466" type="curve" smooth="yes"/>
      <point x="675" y="594"/>
      <point x="749" y="658"/>
      <point x="815" y="658" type="curve" smooth="yes"/>
      <point x="932" y="658"/>
      <point x="1039" y="523"/>
      <point x="1074" y="329" type="curve" smooth="yes"/>
      <point x="1074" y="326"/>
      <point x="1073" y="324"/>
      <point x="1069" y="324" type="curve" smooth="yes"/>
      <point x="1008" y="328"/>
      <point x="950" y="330"/>
      <point x="894" y="330" type="curve" smooth="yes"/>
      <point x="701" y="330"/>
    </contour>
    <contour>
      <point x="968" y="1072" type="move" name="top"/>
    </contour>
    <contour>
      <point x="36" y="-833" type="move" name="bottom"/>
    </contour>
  </outline>
</glyph>
<glyph name="heh-ar" format="1">
  <advance width="1025"/>
  <unicode hex="0647"/>
  <outline>
    <contour>
      <point x="656" y="-38"/>
      <point x="958" y="202"/>
      <point x="1026" y="420" type="curve" smooth="yes"/>
      <point x="1079" y="587"/>
      <point x="892" y="765"/>
      <point x="725" y="882" type="curve" smooth="yes"/>
      <point x="719" y="886"/>
      <point x="713" y="888"/>
      <point x="706" y="888" type="curve" smooth="yes"/>
      <point x="695" y="888"/>
      <point x="681" y="881"/>
      <point x="672" y="870" type="curve" smooth="yes"/>
      <point x="482" y="660"/>
      <point x="329" y="484"/>
      <point x="265" y="282" type="curve" smooth="yes"/>
      <point x="204" y="90"/>
      <point x="270" y="-38"/>
      <point x="435" y="-38" type="curve" smooth="yes"/>
    </contour>
    <contour>
      <point x="417" y="153"/>
      <point x="364" y="238"/>
      <point x="403" y="360" type="curve" smooth="yes"/>
      <point x="431" y="448"/>
      <point x="495" y="544"/>
      <point x="605" y="657" type="curve" smooth="yes"/>
      <point x="610" y="662"/>
      <point x="615" y="665"/>
      <point x="620" y="665" type="curve" smooth="yes"/>
      <point x="623" y="665"/>
      <point x="627" y="664"/>
      <point x="631" y="661" type="curve" smooth="yes"/>
      <point x="753" y="570"/>
      <point x="834" y="499"/>
      <point x="899" y="404" type="curve" smooth="yes"/>
      <point x="901" y="400"/>
      <point x="902" y="396"/>
      <point x="900" y="390" type="curve" smooth="yes"/>
      <point x="899" y="387"/>
      <point x="898" y="383"/>
      <point x="894" y="379" type="curve" smooth="yes"/>
      <point x="785" y="245"/>
      <point x="653" y="153"/>
      <point x="521" y="153" type="curve" smooth="yes"/>
    </contour>
    <contour>
      <point x="776" y="1091" type="move" name="top"/>
    </contour>
    <contour>
      <point x="385" y="-248" type="move" name="bottom"/>
    </contour>
  </outline>
</glyph>
<glyph name="waw-ar" format="1">
  <advance width="1022"/>
  <unicode hex="0648"/>
  <outline>
    <contour>
      <point x="849" y="-127"/>
      <point x="966" y="242" type="curve" smooth="yes"/>
      <point x="1058" y="530"/>
      <point x="1035" y="848"/>
      <point x="812" y="848" type="curve" smooth="yes"/>
      <point x="584" y="848"/>
      <point x="340" y="534"/>
      <point x="267" y="304" type="curve" smooth="yes"/>
      <point x="200" y="95"/>
      <point x="268" y="-10"/>
      <point x="467" y="-10" type="curve" smooth="yes"/>
      <point x="541" y="-10"/>
      <point x="634" y="5"/>
      <point x="744" y="34" type="curve"/>
      <point x="562" y="-189"/>
      <point x="368" y="-295"/>
      <point x="134" y="-295" type="curve" smooth="yes"/>
      <point x="67" y="-295"/>
      <point x="-3" y="-286"/>
      <point x="-76" y="-269" type="curve" smooth="yes"/>
      <point x="-91" y="-266"/>
      <point x="-105" y="-275"/>
      <point x="-115" y="-290" type="curve" smooth="yes"/>
      <point x="-161" y="-366" type="line" smooth="yes"/>
      <point x="-170" y="-379"/>
      <point x="-165" y="-392"/>
      <point x="-151" y="-396" type="curve" smooth="yes"/>
      <point x="-16" y="-446"/>
      <point x="102" y="-472"/>
      <point x="206" y="-472" type="curve" smooth="yes"/>
      <point x="545" y="-472"/>
    </contour>
    <contour>
      <point x="725" y="212"/>
      <point x="645" y="203"/>
      <point x="577" y="203" type="curve" smooth="yes"/>
      <point x="484" y="203"/>
      <point x="414" y="220"/>
      <point x="372" y="255" type="curve" smooth="yes"/>
      <point x="369" y="258"/>
      <point x="369" y="262"/>
      <point x="370" y="268" type="curve" smooth="yes"/>
      <point x="416" y="439"/>
      <point x="596" y="635"/>
      <point x="707" y="635" type="curve" smooth="yes"/>
      <point x="818" y="635"/>
      <point x="875" y="426"/>
      <point x="817" y="231" type="curve"/>
    </contour>
    <contour>
      <point x="846" y="1052" type="move" name="top"/>
    </contour>
    <contour>
      <point x="173" y="-676" type="move" name="bottom"/>
    </contour>
  </outline>
</glyph>
<glyph name="alefMaksura-ar" format="1">
  <advance width="1593"/>
  <unicode hex="0649"/>
  <outline>
    <contour>
      <point x="765" y="-567"/>
      <point x="1345" y="-358"/>
      <point x="1432" y="-81" type="curve" smooth="yes"/>
      <point x="1460" y="5"/>
      <point x="1425" y="36"/>
      <point x="1291" y="47" type="curve" smooth="yes"/>
      <point x="1071" y="67" type="line" smooth="yes"/>
      <point x="962" y="80"/>
      <point x="911" y="111"/>
      <point x="926" y="156" type="curve" smooth="yes"/>
      <point x="957" y="254"/>
      <point x="1275" y="497"/>
      <point x="1383" y="497" type="curve" smooth="yes"/>
      <point x="1411" y="497"/>
      <point x="1437" y="489"/>
      <point x="1461" y="471" type="curve" smooth="yes"/>
      <point x="1465" y="469"/>
      <point x="1469" y="468"/>
      <point x="1474" y="468" type="curve" smooth="yes"/>
      <point x="1483" y="468"/>
      <point x="1492" y="474"/>
      <point x="1501" y="486" type="curve" smooth="yes"/>
      <point x="1583" y="592" type="line" smooth="yes"/>
      <point x="1587" y="597"/>
      <point x="1591" y="602"/>
      <point x="1592" y="607" type="curve" smooth="yes"/>
      <point x="1594" y="612"/>
      <point x="1592" y="618"/>
      <point x="1590" y="625" type="curve" smooth="yes"/>
      <point x="1576" y="668"/>
      <point x="1527" y="693"/>
      <point x="1460" y="693" type="curve" smooth="yes"/>
      <point x="1240" y="693"/>
      <point x="834" y="286"/>
      <point x="762" y="56" type="curve" smooth="yes"/>
      <point x="725" y="-60"/>
      <point x="790" y="-111"/>
      <point x="959" y="-129" type="curve" smooth="yes"/>
      <point x="1273" y="-160" type="line"/>
      <point x="1038" y="-284"/>
      <point x="770" y="-358"/>
      <point x="556" y="-358" type="curve" smooth="yes"/>
      <point x="318" y="-358"/>
      <point x="231" y="-257"/>
      <point x="296" y="-54" type="curve" smooth="yes"/>
      <point x="324" y="37"/>
      <point x="350" y="81"/>
      <point x="476" y="300" type="curve" smooth="yes"/>
      <point x="483" y="310"/>
      <point x="483" y="328"/>
      <point x="467" y="331" type="curve" smooth="yes"/>
      <point x="401" y="347" type="line" smooth="yes"/>
      <point x="387" y="349"/>
      <point x="372" y="342"/>
      <point x="363" y="327" type="curve" smooth="yes"/>
      <point x="210" y="62"/>
      <point x="171" y="-6"/>
      <point x="130" y="-133" type="curve" smooth="yes"/>
      <point x="40" y="-419"/>
      <point x="151" y="-567"/>
      <point x="461" y="-567" type="curve" smooth="yes"/>
    </contour>
    <contour>
      <point x="718" y="580" type="move" name="top"/>
    </contour>
    <contour>
      <point x="398" y="-770" type="move" name="bottom"/>
    </contour>
  </outline>
</glyph>
<glyph name="yeh-ar" format="1">
  <advance width="1593"/>
  <unicode hex="064A"/>
  <outline>
    <component base="alefMaksura-ar"/>
    <component base="twodotshorizontalbelow-ar" xOffset="139" yOffset="-610"/>
    <contour>
      <point x="751" y="610" type="move" name="top"/>
    </contour>
  </outline>
</glyph>
<glyph name="dammatan-ar" format="1">
  <advance width="0"/>
  <unicode hex="064C"/>
  <outline>
    <contour>
      <point x="514" y="710"/>
      <point x="647" y="821"/>
      <point x="731" y="912" type="curve"/>
      <point x="826" y="927" type="line" smooth="yes"/>
      <point x="831" y="928"/>
      <point x="834" y="931"/>
      <point x="837" y="935" type="curve" smooth="yes"/>
      <point x="869" y="1002" type="line" smooth="yes"/>
      <point x="872" y="1009"/>
      <point x="869" y="1015"/>
      <point x="862" y="1015" type="curve" smooth="yes"/>
      <point x="862" y="1015"/>
      <point x="861" y="1015"/>
      <point x="861" y="1015" type="curve" smooth="yes"/>
      <point x="776" y="1006" type="line"/>
      <point x="790" y="1044" type="line"/>
      <point x="820" y="1139"/>
      <point x="819" y="1246"/>
      <point x="734" y="1246" type="curve" smooth="yes"/>
      <point x="655" y="1246"/>
      <point x="548" y="1122"/>
      <point x="518" y="1028" type="curve" smooth="yes"/>
      <point x="492" y="945"/>
      <point x="534" y="897"/>
      <point x="628" y="901" type="curve"/>
      <point x="575" y="859"/>
      <point x="497" y="800"/>
      <point x="439" y="758" type="curve"/>
      <point x="483" y="884"/>
      <point x="482" y="949"/>
      <point x="427" y="949" type="curve" smooth="yes"/>
      <point x="398" y="949"/>
      <point x="352" y="930"/>
      <point x="303" y="913" type="curve" smooth="yes"/>
      <point x="299" y="912"/>
      <point x="296" y="908"/>
      <point x="294" y="904" type="curve" smooth="yes"/>
      <point x="269" y="815" type="line" smooth="yes"/>
      <point x="267" y="808"/>
      <point x="271" y="804"/>
      <point x="275" y="804" type="curve" smooth="yes"/>
      <point x="287" y="804"/>
      <point x="358" y="839"/>
      <point x="376" y="839" type="curve" smooth="yes"/>
      <point x="393" y="839"/>
      <point x="394" y="823"/>
      <point x="382" y="784" type="curve"/>
      <point x="358" y="713" type="line"/>
      <point x="357" y="710"/>
      <point x="357" y="706"/>
      <point x="361" y="703" type="curve" smooth="yes"/>
      <point x="419" y="654" type="line" smooth="yes"/>
      <point x="422" y="651"/>
      <point x="426" y="652"/>
      <point x="429" y="655" type="curve" smooth="yes"/>
    </contour>
    <contour>
      <point x="622" y="991"/>
      <point x="574" y="1008"/>
      <point x="582" y="1033" type="curve" smooth="yes"/>
      <point x="601" y="1093"/>
      <point x="648" y="1144"/>
      <point x="686" y="1144" type="curve" smooth="yes"/>
      <point x="721" y="1144"/>
      <point x="733" y="1072"/>
      <point x="715" y="1016" type="curve"/>
      <point x="706" y="992" type="line"/>
    </contour>
    <contour>
      <point x="760" y="1463" type="move" name="top"/>
    </contour>
    <contour>
      <point x="491" y="648" type="move" name="_top"/>
    </contour>
  </outline>
</glyph>
<glyph name="fatha-ar" format="1">
  <advance width="0"/>
  <unicode hex="064E"/>
  <outline>
    <contour>
      <point x="868" y="1099" type="line"/>
      <point x="871" y="1100"/>
      <point x="874" y="1103"/>
      <point x="875" y="1107" type="curve" smooth="yes"/>
      <point x="908" y="1210" type="line" smooth="yes"/>
      <point x="910" y="1216"/>
      <point x="907" y="1221"/>
      <point x="901" y="1221" type="curve"/>
      <point x="346" y="1048" type="line"/>
      <point x="343" y="1047"/>
      <point x="340" y="1044"/>
      <point x="338" y="1041" type="curve" smooth="yes"/>
      <point x="306" y="940" type="line" smooth="yes"/>
      <point x="304" y="933"/>
      <point x="308" y="928"/>
      <point x="314" y="928" type="curve"/>
    </contour>
    <contour>
      <point x="709" y="1394" type="move" name="top"/>
    </contour>
    <contour>
      <point x="586" y="910" type="move" name="_top"/>
    </contour>
  </outline>
</glyph>
<glyph name="damma-ar" format="1">
  <advance width="0"/>
  <unicode hex="064F"/>
  <outline>
    <contour>
      <point x="346" y="653"/>
      <point x="497" y="812"/>
      <point x="561" y="881" type="curve"/>
      <point x="666" y="900" type="line" smooth="yes"/>
      <point x="669" y="900"/>
      <point x="673" y="903"/>
      <point x="675" y="906" type="curve" smooth="yes"/>
      <point x="713" y="980" type="line" smooth="yes"/>
      <point x="717" y="987"/>
      <point x="715" y="993"/>
      <point x="708" y="993" type="curve" smooth="yes"/>
      <point x="707" y="993"/>
      <point x="707" y="993"/>
      <point x="706" y="993" type="curve" smooth="yes"/>
      <point x="609" y="983" type="line"/>
      <point x="627" y="1032" type="line"/>
      <point x="660" y="1135"/>
      <point x="656" y="1247"/>
      <point x="565" y="1247" type="curve" smooth="yes"/>
      <point x="479" y="1247"/>
      <point x="360" y="1112"/>
      <point x="328" y="1010" type="curve" smooth="yes"/>
      <point x="300" y="922"/>
      <point x="340" y="870"/>
      <point x="434" y="870" type="curve"/>
      <point x="440" y="870"/>
      <point x="440" y="866"/>
      <point x="439" y="860" type="curve" smooth="yes"/>
      <point x="437" y="856"/>
      <point x="435" y="852"/>
      <point x="432" y="849" type="curve" smooth="yes"/>
      <point x="346" y="768"/>
      <point x="263" y="694"/>
      <point x="223" y="658" type="curve" smooth="yes"/>
      <point x="219" y="656"/>
      <point x="218" y="653"/>
      <point x="217" y="650" type="curve" smooth="yes"/>
      <point x="215" y="646"/>
      <point x="216" y="642"/>
      <point x="221" y="640" type="curve" smooth="yes"/>
      <point x="276" y="610" type="line" smooth="yes"/>
      <point x="278" y="608"/>
      <point x="282" y="609"/>
      <point x="286" y="612" type="curve" smooth="yes"/>
    </contour>
    <contour>
      <point x="435" y="968"/>
      <point x="386" y="986"/>
      <point x="395" y="1013" type="curve" smooth="yes"/>
      <point x="417" y="1081"/>
      <point x="471" y="1139"/>
      <point x="512" y="1139" type="curve" smooth="yes"/>
      <point x="560" y="1139"/>
      <point x="563" y="1054"/>
      <point x="544" y="996" type="curve"/>
      <point x="536" y="976" type="line" smooth="yes"/>
      <point x="534" y="971"/>
      <point x="529" y="968"/>
      <point x="524" y="968" type="curve" smooth="yes"/>
    </contour>
    <contour>
      <point x="627" y="1453" type="move" name="top"/>
    </contour>
    <contour>
      <point x="377" y="603" type="move" name="_top"/>
    </contour>
  </outline>
</glyph>
<glyph name="kasra-ar" format="1">
  <advance width="0"/>
  <unicode hex="0650"/>
  <outline>
    <component base="fatha-ar" xOffset="-547" yOffset="-1683"/>
    <contour>
      <point x="88" y="-478" type="move" name="_bottom"/>
    </contour>
    <contour>
      <point x="-18" y="-922" type="move" name="bottom"/>
    </contour>
  </outline>
</glyph>
<glyph name="shadda-ar" format="1">
  <advance width="0"/>
  <unicode hex="0651"/>
  <outline>
    <contour>
      <point x="332" y="837"/>
      <point x="436" y="837" type="curve" smooth="yes"/>
      <point x="493" y="837"/>
      <point x="555" y="852"/>
      <point x="602" y="878" type="curve"/>
      <point x="627" y="853"/>
      <point x="667" y="841"/>
      <point x="714" y="841" type="curve" smooth="yes"/>
      <point x="762" y="841"/>
      <point x="819" y="854"/>
      <point x="883" y="881" type="curve" smooth="yes"/>
      <point x="896" y="887"/>
      <point x="904" y="895"/>
      <point x="910" y="907" type="curve" smooth="yes"/>
      <point x="941" y="969"/>
      <point x="959" y="1014"/>
      <point x="970" y="1049" type="curve" smooth="yes"/>
      <point x="985" y="1096"/>
      <point x="986" y="1105"/>
      <point x="1001" y="1253" type="curve" smooth="yes"/>
      <point x="1002" y="1266"/>
      <point x="996" y="1273"/>
      <point x="986" y="1273" type="curve" smooth="yes"/>
      <point x="981" y="1273"/>
      <point x="976" y="1271"/>
      <point x="968" y="1267" type="curve" smooth="yes"/>
      <point x="918" y="1238" type="line" smooth="yes"/>
      <point x="909" y="1232"/>
      <point x="901" y="1224"/>
      <point x="898" y="1215" type="curve"/>
      <point x="885" y="999" type="line"/>
      <point x="844" y="986"/>
      <point x="803" y="974"/>
      <point x="761" y="974" type="curve" smooth="yes"/>
      <point x="735" y="974"/>
      <point x="709" y="979"/>
      <point x="681" y="990" type="curve"/>
      <point x="731" y="1166" type="line" smooth="yes"/>
      <point x="735" y="1181"/>
      <point x="727" y="1192"/>
      <point x="712" y="1192" type="curve" smooth="yes"/>
      <point x="690" y="1192" type="line" smooth="yes"/>
      <point x="676" y="1192"/>
      <point x="661" y="1181"/>
      <point x="657" y="1166" type="curve" smooth="yes"/>
      <point x="595" y="988" type="line"/>
      <point x="558" y="977"/>
      <point x="524" y="969"/>
      <point x="487" y="969" type="curve" smooth="yes"/>
      <point x="459" y="969"/>
      <point x="430" y="973"/>
      <point x="400" y="984" type="curve"/>
      <point x="484" y="1190" type="line" smooth="yes"/>
      <point x="490" y="1205"/>
      <point x="483" y="1217"/>
      <point x="469" y="1220" type="curve" smooth="yes"/>
      <point x="448" y="1222" type="line" smooth="yes"/>
      <point x="433" y="1223"/>
      <point x="418" y="1213"/>
      <point x="410" y="1198" type="curve" smooth="yes"/>
      <point x="348" y="1052"/>
      <point x="328" y="1008"/>
      <point x="319" y="982" type="curve" smooth="yes"/>
      <point x="286" y="877"/>
    </contour>
    <contour>
      <point x="769" y="1404" type="move" name="top"/>
    </contour>
    <contour>
      <point x="592" y="849" type="move" name="_top"/>
    </contour>
  </outline>
</glyph>
<glyph name="sukun-ar" format="1">
  <advance width="0"/>
  <unicode hex="0652"/>
  <outline>
    <contour>
      <point x="509" y="723"/>
      <point x="663" y="864"/>
      <point x="710" y="1011" type="curve" smooth="yes"/>
      <point x="751" y="1140"/>
      <point x="703" y="1245"/>
      <point x="598" y="1245" type="curve" smooth="yes"/>
      <point x="486" y="1245"/>
      <point x="346" y="1068"/>
      <point x="301" y="926" type="curve" smooth="yes"/>
      <point x="263" y="805"/>
      <point x="290" y="732"/>
      <point x="380" y="727" type="curve" smooth="yes"/>
    </contour>
    <contour>
      <point x="397" y="871"/>
      <point x="369" y="909"/>
      <point x="385" y="961" type="curve" smooth="yes"/>
      <point x="400" y="1008"/>
      <point x="480" y="1106"/>
      <point x="535" y="1106" type="curve" smooth="yes"/>
      <point x="596" y="1106"/>
      <point x="629" y="1002"/>
      <point x="618" y="969" type="curve" smooth="yes"/>
      <point x="606" y="928"/>
      <point x="506" y="871"/>
      <point x="449" y="871" type="curve" smooth="yes"/>
    </contour>
    <contour>
      <point x="655" y="1441" type="move" name="top"/>
    </contour>
    <contour>
      <point x="428" y="727" type="move" name="_top"/>
    </contour>
  </outline>
</glyph>
<glyph name="madda-ar" format="1">
  <advance width="0"/>
  <unicode hex="0653"/>
  <outline>
    <contour>
      <point x="385" y="966"/>
      <point x="389" y="964"/>
      <point x="395" y="964" type="curve" smooth="yes"/>
      <point x="401" y="964"/>
      <point x="411" y="969"/>
      <point x="419" y="978" type="curve" smooth="yes"/>
      <point x="490" y="1064" type="line"/>
      <point x="559" y="1040"/>
      <point x="647" y="1028"/>
      <point x="736" y="1028" type="curve" smooth="yes"/>
      <point x="834" y="1028"/>
      <point x="934" y="1043"/>
      <point x="1009" y="1071" type="curve" smooth="yes"/>
      <point x="1020" y="1075"/>
      <point x="1029" y="1083"/>
      <point x="1036" y="1094" type="curve"/>
      <point x="1113" y="1220" type="line"/>
      <point x="1118" y="1232"/>
      <point x="1111" y="1238"/>
      <point x="1100" y="1238" type="curve" smooth="yes"/>
      <point x="1080" y="1238"/>
      <point x="1009" y="1200"/>
      <point x="850" y="1200" type="curve" smooth="yes"/>
      <point x="735" y="1200"/>
      <point x="600" y="1241"/>
      <point x="569" y="1241" type="curve" smooth="yes"/>
      <point x="510" y="1241"/>
      <point x="447" y="1190"/>
      <point x="352" y="1072" type="curve" smooth="yes"/>
      <point x="346" y="1067"/>
      <point x="344" y="1060"/>
      <point x="342" y="1054" type="curve" smooth="yes"/>
      <point x="339" y="1045"/>
      <point x="339" y="1038"/>
      <point x="344" y="1032" type="curve" smooth="yes"/>
      <point x="382" y="971" type="line" smooth="yes"/>
    </contour>
    <contour>
      <point x="820" y="1429" type="move" name="top"/>
    </contour>
    <contour>
      <point x="704" y="973" type="move" name="_top"/>
    </contour>
  </outline>
</glyph>
<glyph name="alefbelow-ar" format="1">
  <advance width="0"/>
  <unicode hex="0656"/>
  <outline>
    <component base="alefabove-ar" xOffset="-489" yOffset="-1505"/>
    <contour>
      <point x="28" y="-251" type="move" name="_bottom"/>
    </contour>
    <contour>
      <point x="-202" y="-926" type="move" name="bottom"/>
    </contour>
  </outline>
</glyph>
<glyph name="noonghunnaabove-ar" format="1">
  <advance width="0"/>
  <unicode hex="0658"/>
  <outline>
    <contour>
      <point x="545" y="901"/>
      <point x="726" y="938"/>
      <point x="763" y="1044" type="curve" smooth="yes"/>
      <point x="778" y="1093"/>
      <point x="799" y="1204"/>
      <point x="807" y="1253" type="curve" smooth="yes"/>
      <point x="810" y="1273"/>
      <point x="801" y="1284"/>
      <point x="786" y="1284" type="curve" smooth="yes"/>
      <point x="778" y="1284"/>
      <point x="769" y="1282"/>
      <point x="761" y="1277" type="curve" smooth="yes"/>
      <point x="733" y="1260" type="line" smooth="yes"/>
      <point x="717" y="1250"/>
      <point x="706" y="1236"/>
      <point x="703" y="1220" type="curve" smooth="yes"/>
      <point x="678" y="1036" type="line" smooth="yes"/>
      <point x="678" y="1035"/>
      <point x="678" y="1034"/>
      <point x="675" y="1033" type="curve" smooth="yes"/>
      <point x="641" y="1023"/>
      <point x="567" y="1006"/>
      <point x="495" y="1006" type="curve" smooth="yes"/>
      <point x="436" y="1006"/>
      <point x="415" y="1030"/>
      <point x="432" y="1081" type="curve" smooth="yes"/>
      <point x="441" y="1111"/>
      <point x="464" y="1149"/>
      <point x="469" y="1164" type="curve" smooth="yes"/>
      <point x="476" y="1186"/>
      <point x="466" y="1200"/>
      <point x="443" y="1200" type="curve" smooth="yes"/>
      <point x="425" y="1200"/>
      <point x="405" y="1187"/>
      <point x="396" y="1169" type="curve" smooth="yes"/>
      <point x="362" y="1103"/>
      <point x="352" y="1082"/>
      <point x="343" y="1057" type="curve" smooth="yes"/>
      <point x="313" y="962"/>
      <point x="353" y="901"/>
      <point x="452" y="901" type="curve" smooth="yes"/>
    </contour>
    <contour>
      <point x="693" y="1487" type="move" name="top"/>
    </contour>
    <contour>
      <point x="511" y="900" type="move" name="_top"/>
    </contour>
  </outline>
</glyph>
<glyph name="vabove-ar" format="1">
  <advance width="0"/>
  <unicode hex="065A"/>
  <outline>
    <contour>
      <point x="551" y="815" type="line"/>
      <point x="564" y="819"/>
      <point x="571" y="825"/>
      <point x="579" y="835" type="curve" smooth="yes"/>
      <point x="861" y="1224" type="line" smooth="yes"/>
      <point x="865" y="1229"/>
      <point x="867" y="1234"/>
      <point x="869" y="1238" type="curve" smooth="yes"/>
      <point x="872" y="1249"/>
      <point x="869" y="1259"/>
      <point x="859" y="1260" type="curve"/>
      <point x="804" y="1266" type="line"/>
      <point x="795" y="1266"/>
      <point x="785" y="1263"/>
      <point x="777" y="1250" type="curve" smooth="yes"/>
      <point x="585" y="983" type="line" smooth="yes"/>
      <point x="578" y="976"/>
      <point x="574" y="972"/>
      <point x="570" y="972" type="curve" smooth="yes"/>
      <point x="568" y="972"/>
      <point x="566" y="975"/>
      <point x="565" y="982" type="curve" smooth="yes"/>
      <point x="537" y="1175" type="line" smooth="yes"/>
      <point x="529" y="1229"/>
      <point x="522" y="1254"/>
      <point x="496" y="1251" type="curve"/>
      <point x="413" y="1225" type="line"/>
      <point x="403" y="1220"/>
      <point x="395" y="1213"/>
      <point x="392" y="1205" type="curve" smooth="yes"/>
      <point x="391" y="1200"/>
      <point x="391" y="1195"/>
      <point x="393" y="1189" type="curve" smooth="yes"/>
      <point x="456" y="812" type="line" smooth="yes"/>
      <point x="458" y="802"/>
      <point x="463" y="796"/>
      <point x="472" y="796" type="curve" smooth="yes"/>
      <point x="472" y="796"/>
      <point x="473" y="796"/>
      <point x="474" y="796" type="curve"/>
    </contour>
    <contour>
      <point x="735" y="1460" type="move" name="top"/>
    </contour>
    <contour>
      <point x="504" y="795" type="move" name="_top"/>
    </contour>
  </outline>
</glyph>
<glyph name="vinvertedabove-ar" format="1">
  <advance width="0"/>
  <unicode hex="065B"/>
  <outline>
    <contour>
      <point x="337" y="754" type="line"/>
      <point x="366" y="754"/>
      <point x="381" y="776"/>
      <point x="419" y="841" type="curve" smooth="yes"/>
      <point x="546" y="1047" type="line" smooth="yes"/>
      <point x="553" y="1060"/>
      <point x="559" y="1066"/>
      <point x="562" y="1066" type="curve" smooth="yes"/>
      <point x="566" y="1066"/>
      <point x="568" y="1061"/>
      <point x="571" y="1051" type="curve" smooth="yes"/>
      <point x="644" y="782" type="line" smooth="yes"/>
      <point x="646" y="774"/>
      <point x="653" y="769"/>
      <point x="660" y="769" type="curve" smooth="yes"/>
      <point x="667" y="769"/>
      <point x="675" y="772"/>
      <point x="683" y="779" type="curve" smooth="yes"/>
      <point x="722" y="814" type="line" smooth="yes"/>
      <point x="729" y="819"/>
      <point x="733" y="825"/>
      <point x="734" y="830" type="curve" smooth="yes"/>
      <point x="736" y="836"/>
      <point x="736" y="842"/>
      <point x="735" y="848" type="curve" smooth="yes"/>
      <point x="636" y="1203" type="line" smooth="yes"/>
      <point x="632" y="1212"/>
      <point x="628" y="1217"/>
      <point x="615" y="1218" type="curve" smooth="yes"/>
      <point x="554" y="1226" type="line" smooth="yes"/>
      <point x="539" y="1227"/>
      <point x="527" y="1220"/>
      <point x="518" y="1207" type="curve"/>
      <point x="257" y="790" type="line"/>
      <point x="254" y="780"/>
      <point x="258" y="772"/>
      <point x="271" y="768" type="curve"/>
    </contour>
    <contour>
      <point x="645" y="1454" type="move" name="top"/>
    </contour>
    <contour>
      <point x="506" y="751" type="move" name="_top"/>
    </contour>
  </outline>
</glyph>
<glyph name="zero-ar" format="1">
  <advance width="836"/>
  <unicode hex="0660"/>
  <outline>
    <contour>
      <point x="428" y="187"/>
      <point x="454" y="176"/>
      <point x="482" y="176" type="curve" smooth="yes"/>
      <point x="509" y="176"/>
      <point x="541" y="187"/>
      <point x="570" y="210" type="curve" smooth="yes"/>
      <point x="816" y="399" type="line" smooth="yes"/>
      <point x="844" y="421"/>
      <point x="862" y="448"/>
      <point x="871" y="476" type="curve" smooth="yes"/>
      <point x="880" y="504"/>
      <point x="878" y="533"/>
      <point x="863" y="555" type="curve" smooth="yes"/>
      <point x="737" y="739" type="line" smooth="yes"/>
      <point x="721" y="762"/>
      <point x="697" y="773"/>
      <point x="670" y="773" type="curve" smooth="yes"/>
      <point x="642" y="773"/>
      <point x="611" y="762"/>
      <point x="582" y="740" type="curve" smooth="yes"/>
      <point x="335" y="556" type="line" smooth="yes"/>
      <point x="305" y="534"/>
      <point x="283" y="505"/>
      <point x="275" y="477" type="curve" smooth="yes"/>
      <point x="266" y="449"/>
      <point x="268" y="420"/>
      <point x="284" y="398" type="curve" smooth="yes"/>
      <point x="413" y="209" type="line" smooth="yes"/>
    </contour>
    <contour>
      <point x="421" y="475" type="line"/>
      <point x="622" y="624" type="line"/>
      <point x="723" y="475" type="line"/>
      <point x="526" y="323" type="line"/>
    </contour>
  </outline>
</glyph>
<glyph name="one-ar" format="1">
  <advance width="591"/>
  <unicode hex="0661"/>
  <outline>
    <contour>
      <point x="445" y="-13" type="line"/>
      <point x="458" y="-11"/>
      <point x="471" y="1"/>
      <point x="476" y="14" type="curve" smooth="yes"/>
      <point x="649" y="563"/>
      <point x="731" y="886"/>
      <point x="672" y="1214" type="curve" smooth="yes"/>
      <point x="670" y="1224"/>
      <point x="663" y="1230"/>
      <point x="655" y="1230" type="curve" smooth="yes"/>
      <point x="648" y="1230"/>
      <point x="641" y="1226"/>
      <point x="633" y="1218" type="curve" smooth="yes"/>
      <point x="473" y="1065" type="line" smooth="yes"/>
      <point x="466" y="1059"/>
      <point x="462" y="1052"/>
      <point x="460" y="1045" type="curve" smooth="yes"/>
      <point x="459" y="1041"/>
      <point x="458" y="1036"/>
      <point x="459" y="1031" type="curve" smooth="yes"/>
      <point x="562" y="665"/>
      <point x="427" y="255"/>
      <point x="343" y="-8" type="curve" smooth="yes"/>
      <point x="339" y="-24"/>
      <point x="344" y="-33"/>
      <point x="357" y="-33" type="curve"/>
    </contour>
  </outline>
</glyph>
<glyph name="two-ar" format="1">
  <advance width="984"/>
  <unicode hex="0662"/>
  <outline>
    <contour>
      <point x="445" y="-13" type="line"/>
      <point x="458" y="-11"/>
      <point x="471" y="0"/>
      <point x="474" y="13" type="curve"/>
      <point x="518" y="142" type="line"/>
      <point x="585" y="356"/>
      <point x="657" y="571"/>
      <point x="670" y="775" type="curve" smooth="yes"/>
      <point x="671" y="779"/>
      <point x="673" y="780"/>
      <point x="677" y="779" type="curve" smooth="yes"/>
      <point x="707" y="770"/>
      <point x="741" y="769"/>
      <point x="772" y="769" type="curve" smooth="yes"/>
      <point x="989" y="769"/>
      <point x="1149" y="923"/>
      <point x="1258" y="1212" type="curve" smooth="yes"/>
      <point x="1264" y="1227"/>
      <point x="1258" y="1235"/>
      <point x="1240" y="1237" type="curve" smooth="yes"/>
      <point x="1170" y="1251" type="line" smooth="yes"/>
      <point x="1158" y="1254"/>
      <point x="1142" y="1242"/>
      <point x="1135" y="1224" type="curve" smooth="yes"/>
      <point x="1072" y="1077"/>
      <point x="976" y="997"/>
      <point x="848" y="997" type="curve" smooth="yes"/>
      <point x="815" y="997"/>
      <point x="779" y="1003"/>
      <point x="743" y="1014" type="curve" smooth="yes"/>
      <point x="735" y="1016"/>
      <point x="733" y="1018"/>
      <point x="731" y="1020" type="curve" smooth="yes"/>
      <point x="705" y="1058"/>
      <point x="690" y="1137"/>
      <point x="672" y="1216" type="curve" smooth="yes"/>
      <point x="670" y="1225"/>
      <point x="663" y="1230"/>
      <point x="655" y="1230" type="curve" smooth="yes"/>
      <point x="649" y="1230"/>
      <point x="641" y="1226"/>
      <point x="632" y="1218" type="curve" smooth="yes"/>
      <point x="473" y="1065" type="line" smooth="yes"/>
      <point x="466" y="1059"/>
      <point x="462" y="1052"/>
      <point x="460" y="1045" type="curve" smooth="yes"/>
      <point x="458" y="1041"/>
      <point x="458" y="1036"/>
      <point x="459" y="1031" type="curve" smooth="yes"/>
      <point x="562" y="665"/>
      <point x="427" y="255"/>
      <point x="343" y="-8" type="curve" smooth="yes"/>
      <point x="337" y="-24"/>
      <point x="342" y="-33"/>
      <point x="355" y="-33" type="curve"/>
    </contour>
  </outline>
</glyph>
<glyph name="three-ar" format="1">
  <advance width="1242"/>
  <unicode hex="0663"/>
  <outline>
    <contour>
      <point x="445" y="-13" type="line"/>
      <point x="459" y="-11"/>
      <point x="471" y="1"/>
      <point x="476" y="14" type="curve" smooth="yes"/>
      <point x="577" y="332"/>
      <point x="624" y="453"/>
      <point x="671" y="780" type="curve"/>
      <point x="700" y="775"/>
      <point x="726" y="772"/>
      <point x="753" y="772" type="curve" smooth="yes"/>
      <point x="841" y="772"/>
      <point x="924" y="802"/>
      <point x="985" y="857" type="curve"/>
      <point x="1030" y="822"/>
      <point x="1079" y="804"/>
      <point x="1132" y="804" type="curve" smooth="yes"/>
      <point x="1272" y="804"/>
      <point x="1425" y="924"/>
      <point x="1482" y="1109" type="curve" smooth="yes"/>
      <point x="1524" y="1251" type="line" smooth="yes"/>
      <point x="1528" y="1266"/>
      <point x="1522" y="1275"/>
      <point x="1507" y="1277" type="curve" smooth="yes"/>
      <point x="1451" y="1284" type="line" smooth="yes"/>
      <point x="1434" y="1285"/>
      <point x="1419" y="1275"/>
      <point x="1415" y="1259" type="curve" smooth="yes"/>
      <point x="1358" y="1081"/>
      <point x="1298" y="1006"/>
      <point x="1191" y="1006" type="curve" smooth="yes"/>
      <point x="1161" y="1006"/>
      <point x="1127" y="1012"/>
      <point x="1089" y="1023" type="curve"/>
      <point x="1166" y="1250" type="line" smooth="yes"/>
      <point x="1170" y="1264"/>
      <point x="1161" y="1275"/>
      <point x="1147" y="1276" type="curve" smooth="yes"/>
      <point x="1090" y="1279" type="line" smooth="yes"/>
      <point x="1075" y="1280"/>
      <point x="1059" y="1267"/>
      <point x="1055" y="1251" type="curve" smooth="yes"/>
      <point x="999" y="1077"/>
      <point x="955" y="993"/>
      <point x="830" y="989" type="curve" smooth="yes"/>
      <point x="688" y="984"/>
      <point x="684" y="1066"/>
      <point x="672" y="1215" type="curve" smooth="yes"/>
      <point x="671" y="1225"/>
      <point x="665" y="1230"/>
      <point x="657" y="1230" type="curve" smooth="yes"/>
      <point x="650" y="1230"/>
      <point x="642" y="1226"/>
      <point x="633" y="1218" type="curve" smooth="yes"/>
      <point x="473" y="1065" type="line" smooth="yes"/>
      <point x="467" y="1059"/>
      <point x="463" y="1052"/>
      <point x="460" y="1045" type="curve" smooth="yes"/>
      <point x="459" y="1041"/>
      <point x="458" y="1036"/>
      <point x="460" y="1031" type="curve" smooth="yes"/>
      <point x="562" y="665"/>
      <point x="427" y="255"/>
      <point x="343" y="-8" type="curve" smooth="yes"/>
      <point x="339" y="-24"/>
      <point x="344" y="-33"/>
      <point x="357" y="-33" type="curve"/>
    </contour>
  </outline>
</glyph>
<glyph name="four-ar" format="1">
  <advance width="988"/>
  <unicode hex="0664"/>
  <outline>
    <contour>
      <point x="811" y="-4"/>
      <point x="822" y="3"/>
      <point x="829" y="15" type="curve"/>
      <point x="920" y="159" type="line"/>
      <point x="926" y="175"/>
      <point x="917" y="182"/>
      <point x="898" y="180" type="curve" smooth="yes"/>
      <point x="791" y="162"/>
      <point x="686" y="153"/>
      <point x="594" y="153" type="curve" smooth="yes"/>
      <point x="422" y="153"/>
      <point x="303" y="193"/>
      <point x="320" y="244" type="curve" smooth="yes"/>
      <point x="336" y="296"/>
      <point x="571" y="447"/>
      <point x="799" y="552" type="curve" smooth="yes"/>
      <point x="815" y="559"/>
      <point x="824" y="570"/>
      <point x="826" y="584" type="curve" smooth="yes"/>
      <point x="842" y="728" type="line" smooth="yes"/>
      <point x="843" y="742"/>
      <point x="834" y="749"/>
      <point x="821" y="750" type="curve" smooth="yes"/>
      <point x="738" y="756"/>
      <point x="618" y="783"/>
      <point x="552" y="845" type="curve"/>
      <point x="659" y="930"/>
      <point x="808" y="1010"/>
      <point x="971" y="1090" type="curve" smooth="yes"/>
      <point x="984" y="1096"/>
      <point x="993" y="1104"/>
      <point x="998" y="1118" type="curve" smooth="yes"/>
      <point x="1040" y="1246" type="line" smooth="yes"/>
      <point x="1045" y="1261"/>
      <point x="1040" y="1270"/>
      <point x="1028" y="1270" type="curve" smooth="yes"/>
      <point x="1024" y="1270"/>
      <point x="1021" y="1269"/>
      <point x="1014" y="1267" type="curve" smooth="yes"/>
      <point x="658" y="1140"/>
      <point x="457" y="938"/>
      <point x="400" y="759" type="curve" smooth="yes"/>
      <point x="375" y="679"/>
      <point x="440" y="625"/>
      <point x="591" y="591" type="curve"/>
      <point x="424" y="492"/>
      <point x="225" y="324"/>
      <point x="173" y="162" type="curve" smooth="yes"/>
      <point x="124" y="3"/>
      <point x="283" y="-37"/>
      <point x="463" y="-37" type="curve" smooth="yes"/>
      <point x="584" y="-37"/>
      <point x="714" y="-19"/>
      <point x="796" y="-7" type="curve"/>
    </contour>
  </outline>
</glyph>
<glyph name="five-ar" format="1">
  <advance width="931"/>
  <unicode hex="0665"/>
  <outline>
    <contour>
      <point x="686" y="130"/>
      <point x="922" y="335"/>
      <point x="1020" y="643" type="curve" smooth="yes"/>
      <point x="1089" y="862"/>
      <point x="950" y="1073"/>
      <point x="792" y="1073" type="curve" smooth="yes"/>
      <point x="588" y="1073"/>
      <point x="342" y="687"/>
      <point x="273" y="470" type="curve" smooth="yes"/>
      <point x="200" y="237"/>
      <point x="248" y="130"/>
      <point x="427" y="130" type="curve" smooth="yes"/>
    </contour>
    <contour>
      <point x="415" y="349"/>
      <point x="365" y="411"/>
      <point x="398" y="519" type="curve" smooth="yes"/>
      <point x="424" y="599"/>
      <point x="527" y="838"/>
      <point x="668" y="838" type="curve" smooth="yes"/>
      <point x="781" y="838"/>
      <point x="922" y="687"/>
      <point x="876" y="541" type="curve" smooth="yes"/>
      <point x="850" y="461"/>
      <point x="657" y="349"/>
      <point x="541" y="349" type="curve" smooth="yes"/>
    </contour>
  </outline>
</glyph>
<glyph name="six-ar" format="1">
  <advance width="1052"/>
  <unicode hex="0666"/>
  <outline>
    <contour>
      <point x="948" y="81" type="line"/>
      <point x="957" y="86"/>
      <point x="963" y="93"/>
      <point x="964" y="100" type="curve" smooth="yes"/>
      <point x="966" y="105"/>
      <point x="965" y="109"/>
      <point x="965" y="114" type="curve" smooth="yes"/>
      <point x="949" y="309"/>
      <point x="958" y="514"/>
      <point x="1034" y="751" type="curve" smooth="yes"/>
      <point x="1063" y="844"/>
      <point x="1091" y="943"/>
      <point x="1147" y="1043" type="curve" smooth="yes"/>
      <point x="1148" y="1046"/>
      <point x="1149" y="1050"/>
      <point x="1151" y="1054" type="curve" smooth="yes"/>
      <point x="1152" y="1059"/>
      <point x="1154" y="1063"/>
      <point x="1154" y="1068" type="curve" smooth="yes"/>
      <point x="1161" y="1206" type="line" smooth="yes"/>
      <point x="1161" y="1219"/>
      <point x="1152" y="1226"/>
      <point x="1137" y="1225" type="curve" smooth="yes"/>
      <point x="1069" y="1220"/>
      <point x="988" y="1215"/>
      <point x="908" y="1215" type="curve" smooth="yes"/>
      <point x="640" y="1215"/>
      <point x="626" y="1255"/>
      <point x="555" y="1255" type="curve" smooth="yes"/>
      <point x="542" y="1255"/>
      <point x="529" y="1245"/>
      <point x="524" y="1231" type="curve" smooth="yes"/>
      <point x="463" y="1056" type="line" smooth="yes"/>
      <point x="458" y="1042"/>
      <point x="462" y="1032"/>
      <point x="474" y="1027" type="curve" smooth="yes"/>
      <point x="542" y="1000"/>
      <point x="653" y="998"/>
      <point x="760" y="998" type="curve" smooth="yes"/>
      <point x="850" y="998"/>
      <point x="942" y="1004"/>
      <point x="1012" y="1012" type="curve"/>
      <point x="946" y="858"/>
      <point x="889" y="717"/>
      <point x="846" y="583" type="curve" smooth="yes"/>
      <point x="781" y="378"/>
      <point x="741" y="185"/>
      <point x="762" y="-15" type="curve" smooth="yes"/>
      <point x="762" y="-27"/>
      <point x="768" y="-33"/>
      <point x="776" y="-33" type="curve" smooth="yes"/>
      <point x="781" y="-33"/>
      <point x="789" y="-30"/>
      <point x="796" y="-25" type="curve" smooth="yes"/>
    </contour>
  </outline>
</glyph>
<glyph name="seven-ar" format="1">
  <advance width="1196"/>
  <unicode hex="0667"/>
  <outline>
    <contour>
      <point x="733" y="11" type="line"/>
      <point x="746" y="14"/>
      <point x="755" y="22"/>
      <point x="761" y="34" type="curve" smooth="yes"/>
      <point x="950" y="365"/>
      <point x="1181" y="767"/>
      <point x="1440" y="1129" type="curve" smooth="yes"/>
      <point x="1443" y="1134"/>
      <point x="1446" y="1139"/>
      <point x="1447" y="1143" type="curve" smooth="yes"/>
      <point x="1449" y="1150"/>
      <point x="1450" y="1156"/>
      <point x="1448" y="1162" type="curve" smooth="yes"/>
      <point x="1409" y="1273" type="line" smooth="yes"/>
      <point x="1405" y="1282"/>
      <point x="1399" y="1285"/>
      <point x="1393" y="1285" type="curve" smooth="yes"/>
      <point x="1386" y="1285"/>
      <point x="1377" y="1281"/>
      <point x="1369" y="1270" type="curve" smooth="yes"/>
      <point x="1144" y="979"/>
      <point x="945" y="652"/>
      <point x="782" y="347" type="curve"/>
      <point x="831" y="683"/>
      <point x="725" y="1030"/>
      <point x="675" y="1245" type="curve" smooth="yes"/>
      <point x="672" y="1254"/>
      <point x="665" y="1258"/>
      <point x="659" y="1258" type="curve" smooth="yes"/>
      <point x="652" y="1258"/>
      <point x="643" y="1254"/>
      <point x="637" y="1247" type="curve" smooth="yes"/>
      <point x="486" y="1104" type="line" smooth="yes"/>
      <point x="479" y="1098"/>
      <point x="475" y="1092"/>
      <point x="473" y="1085" type="curve" smooth="yes"/>
      <point x="472" y="1080"/>
      <point x="470" y="1075"/>
      <point x="472" y="1070" type="curve" smooth="yes"/>
      <point x="610" y="586"/>
      <point x="636" y="420"/>
      <point x="592" y="-11" type="curve" smooth="yes"/>
      <point x="591" y="-24"/>
      <point x="596" y="-34"/>
      <point x="607" y="-33" type="curve"/>
    </contour>
  </outline>
</glyph>
<glyph name="eight-ar" format="1">
  <advance width="1175"/>
  <unicode hex="0668"/>
  <outline>
    <contour>
      <point x="198" y="-29"/>
      <point x="203" y="-33"/>
      <point x="210" y="-33" type="curve" smooth="yes"/>
      <point x="218" y="-33"/>
      <point x="228" y="-27"/>
      <point x="236" y="-16" type="curve" smooth="yes"/>
      <point x="453" y="264"/>
      <point x="660" y="613"/>
      <point x="795" y="882" type="curve"/>
      <point x="763" y="597"/>
      <point x="827" y="189"/>
      <point x="899" y="-15" type="curve" smooth="yes"/>
      <point x="901" y="-24"/>
      <point x="908" y="-28"/>
      <point x="916" y="-28" type="curve" smooth="yes"/>
      <point x="922" y="-28"/>
      <point x="930" y="-24"/>
      <point x="938" y="-17" type="curve" smooth="yes"/>
      <point x="1090" y="125" type="line" smooth="yes"/>
      <point x="1096" y="132"/>
      <point x="1100" y="137"/>
      <point x="1101" y="143" type="curve" smooth="yes"/>
      <point x="1103" y="149"/>
      <point x="1103" y="155"/>
      <point x="1100" y="160" type="curve" smooth="yes"/>
      <point x="991" y="474"/>
      <point x="947" y="753"/>
      <point x="990" y="1260" type="curve" smooth="yes"/>
      <point x="991" y="1273"/>
      <point x="984" y="1280"/>
      <point x="975" y="1280" type="curve" smooth="yes"/>
      <point x="970" y="1280"/>
      <point x="963" y="1278"/>
      <point x="956" y="1274" type="curve" smooth="yes"/>
      <point x="841" y="1204" type="line" smooth="yes"/>
      <point x="831" y="1198"/>
      <point x="823" y="1188"/>
      <point x="819" y="1178" type="curve" smooth="yes"/>
      <point x="686" y="853"/>
      <point x="433" y="452"/>
      <point x="163" y="123" type="curve" smooth="yes"/>
      <point x="160" y="119"/>
      <point x="157" y="114"/>
      <point x="156" y="110" type="curve" smooth="yes"/>
      <point x="154" y="104"/>
      <point x="154" y="98"/>
      <point x="157" y="91" type="curve" smooth="yes"/>
      <point x="195" y="-20" type="line" smooth="yes"/>
    </contour>
  </outline>
</glyph>
<glyph name="nine-ar" format="1">
  <advance width="1005"/>
  <unicode hex="0669"/>
  <outline>
    <contour>
      <point x="914" y="114" type="line" smooth="yes"/>
      <point x="923" y="120"/>
      <point x="927" y="127"/>
      <point x="928" y="133" type="curve" smooth="yes"/>
      <point x="930" y="138"/>
      <point x="930" y="142"/>
      <point x="930" y="147" type="curve" smooth="yes"/>
      <point x="913" y="344"/>
      <point x="926" y="530"/>
      <point x="979" y="746" type="curve" smooth="yes"/>
      <point x="1032" y="968"/>
      <point x="1107" y="1284"/>
      <point x="847" y="1284" type="curve" smooth="yes"/>
      <point x="653" y="1284"/>
      <point x="447" y="1010"/>
      <point x="385" y="814" type="curve" smooth="yes"/>
      <point x="329" y="639"/>
      <point x="397" y="536"/>
      <point x="561" y="536" type="curve" smooth="yes"/>
      <point x="640" y="536"/>
      <point x="732" y="561"/>
      <point x="802" y="600" type="curve"/>
      <point x="747" y="394"/>
      <point x="701" y="197"/>
      <point x="712" y="-16" type="curve" smooth="yes"/>
      <point x="710" y="-27"/>
      <point x="717" y="-33"/>
      <point x="726" y="-33" type="curve" smooth="yes"/>
      <point x="732" y="-33"/>
      <point x="737" y="-31"/>
      <point x="746" y="-25" type="curve" smooth="yes"/>
    </contour>
    <contour>
      <point x="765" y="755"/>
      <point x="702" y="741"/>
      <point x="647" y="741" type="curve" smooth="yes"/>
      <point x="594" y="741"/>
      <point x="549" y="755"/>
      <point x="502" y="776" type="curve" smooth="yes"/>
      <point x="497" y="778"/>
      <point x="496" y="780"/>
      <point x="498" y="784" type="curve"/>
      <point x="507" y="830" type="line"/>
      <point x="549" y="961"/>
      <point x="672" y="1085"/>
      <point x="770" y="1085" type="curve" smooth="yes"/>
      <point x="855" y="1085"/>
      <point x="902" y="955"/>
      <point x="845" y="776" type="curve" smooth="yes"/>
      <point x="843" y="772"/>
      <point x="841" y="769"/>
      <point x="835" y="768" type="curve" smooth="yes"/>
    </contour>
  </outline>
</glyph>
<glyph name="percent-ar" format="1">
  <advance width="1069"/>
  <unicode hex="066A"/>
  <outline>
    <contour>
      <point x="1237" y="1109" type="line"/>
      <point x="1255" y="1183"/>
      <point x="1252" y="1237"/>
      <point x="1225" y="1283" type="curve"/>
      <point x="202" y="77" type="line"/>
      <point x="205" y="26"/>
      <point x="223" y="-18"/>
      <point x="255" y="-49" type="curve"/>
    </contour>
    <component base="period" xOffset="591" yOffset="103" xScale="0.803" yScale="0.803"/>
    <component base="period" xOffset="307" yOffset="870" xScale="0.803" yScale="0.803"/>
  </outline>
</glyph>
<glyph name="decimalseparator-ar" format="1">
  <advance width="758"/>
  <unicode hex="066B"/>
  <outline>
    <contour>
      <point x="88" y="-398"/>
      <point x="101" y="-391"/>
      <point x="110" y="-380" type="curve"/>
      <point x="864" y="696" type="line"/>
      <point x="872" y="713"/>
      <point x="861" y="722"/>
      <point x="848" y="724" type="curve" smooth="yes"/>
      <point x="791" y="731" type="line" smooth="yes"/>
      <point x="780" y="732"/>
      <point x="768" y="725"/>
      <point x="759" y="714" type="curve"/>
      <point x="2" y="-363" type="line"/>
      <point x="-3" y="-376"/>
      <point x="6" y="-388"/>
      <point x="19" y="-390" type="curve" smooth="yes"/>
      <point x="78" y="-396" type="line" smooth="yes"/>
    </contour>
  </outline>
</glyph>
<glyph name="thousandseparator-ar" format="1">
  <advance width="605"/>
  <unicode hex="066C"/>
  <outline>
    <contour>
      <point x="217" y="15"/>
      <point x="228" y="20"/>
      <point x="237" y="31" type="curve"/>
      <point x="667" y="560" type="line"/>
      <point x="673" y="573"/>
      <point x="667" y="586"/>
      <point x="651" y="588" type="curve" smooth="yes"/>
      <point x="598" y="594" type="line" smooth="yes"/>
      <point x="589" y="595"/>
      <point x="577" y="590"/>
      <point x="569" y="580" type="curve"/>
      <point x="137" y="51" type="line"/>
      <point x="130" y="36"/>
      <point x="139" y="25"/>
      <point x="154" y="23" type="curve" smooth="yes"/>
      <point x="208" y="16" type="line" smooth="yes"/>
    </contour>
  </outline>
</glyph>
<glyph name="asterisk-ar" format="1">
  <advance width="849"/>
  <unicode hex="066D"/>
  <outline>
    <contour>
      <point x="538" y="335" type="line"/>
      <point x="664" y="209" type="line"/>
      <point x="706" y="237" type="line"/>
      <point x="691" y="426" type="line"/>
      <point x="904" y="540" type="line"/>
      <point x="904" y="581" type="line"/>
      <point x="691" y="571" type="line"/>
      <point x="695" y="776" type="line"/>
      <point x="653" y="776" type="line"/>
      <point x="538" y="571" type="line"/>
      <point x="321" y="578" type="line"/>
      <point x="295" y="540" type="line"/>
      <point x="444" y="425" type="line"/>
      <point x="310" y="227" type="line"/>
      <point x="334" y="202" type="line"/>
    </contour>
  </outline>
</glyph>
<glyph name="behDotless-ar" format="1">
  <advance width="1779"/>
  <unicode hex="066E"/>
  <outline>
    <contour>
      <point x="356" y="-38"/>
      <point x="685" y="-38" type="curve" smooth="yes"/>
      <point x="805" y="-38"/>
      <point x="958" y="-22"/>
      <point x="1117" y="1" type="curve" smooth="yes"/>
      <point x="1422" y="45"/>
      <point x="1691" y="137"/>
      <point x="1780" y="419" type="curve" smooth="yes"/>
      <point x="1809" y="508"/>
      <point x="1830" y="781"/>
      <point x="1842" y="950" type="curve" smooth="yes"/>
      <point x="1843" y="962"/>
      <point x="1837" y="968"/>
      <point x="1828" y="968" type="curve" smooth="yes"/>
      <point x="1822" y="968"/>
      <point x="1814" y="965"/>
      <point x="1807" y="959" type="curve" smooth="yes"/>
      <point x="1675" y="859" type="line" smooth="yes"/>
      <point x="1667" y="853"/>
      <point x="1662" y="846"/>
      <point x="1659" y="838" type="curve"/>
      <point x="1613" y="301" type="line"/>
      <point x="1613" y="295"/>
      <point x="1612" y="294"/>
      <point x="1605" y="291" type="curve" smooth="yes"/>
      <point x="1458" y="228"/>
      <point x="1116" y="153"/>
      <point x="820" y="153" type="curve" smooth="yes"/>
      <point x="567" y="153"/>
      <point x="364" y="216"/>
      <point x="428" y="419" type="curve" smooth="yes"/>
      <point x="434" y="437"/>
      <point x="438" y="451"/>
      <point x="497" y="586" type="curve" smooth="yes"/>
      <point x="503" y="601"/>
      <point x="496" y="612"/>
      <point x="482" y="613" type="curve" smooth="yes"/>
      <point x="424" y="619" type="line" smooth="yes"/>
      <point x="409" y="620"/>
      <point x="393" y="611"/>
      <point x="387" y="596" type="curve" smooth="yes"/>
      <point x="315" y="438"/>
      <point x="302" y="398"/>
      <point x="289" y="356" type="curve" smooth="yes"/>
      <point x="196" y="63"/>
    </contour>
    <contour>
      <point x="1064" y="856" type="move" name="top"/>
    </contour>
    <contour>
      <point x="759" y="-237" type="move" name="bottom"/>
    </contour>
    <contour>
      <point x="258" y="-136" type="move" name="ring"/>
    </contour>
  </outline>
</glyph>
<glyph name="qafDotless-ar" format="1">
  <advance width="1593"/>
  <unicode hex="066F"/>
  <outline>
    <contour>
      <point x="637" y="-508"/>
      <point x="1122" y="-446"/>
      <point x="1315" y="-254" type="curve" smooth="yes"/>
      <point x="1394" y="-177"/>
      <point x="1431" y="-70"/>
      <point x="1479" y="64" type="curve" smooth="yes"/>
      <point x="1589" y="382"/>
      <point x="1559" y="789"/>
      <point x="1331" y="789" type="curve" smooth="yes"/>
      <point x="1102" y="789"/>
      <point x="866" y="464"/>
      <point x="793" y="235" type="curve" smooth="yes"/>
      <point x="726" y="24"/>
      <point x="847" y="-39"/>
      <point x="1005" y="-39" type="curve" smooth="yes"/>
      <point x="1107" y="-39"/>
      <point x="1225" y="-14"/>
      <point x="1317" y="24" type="curve" smooth="yes"/>
      <point x="1323" y="27"/>
      <point x="1323" y="26"/>
      <point x="1322" y="22" type="curve" smooth="yes"/>
      <point x="1251" y="-173" type="line" smooth="yes"/>
      <point x="1251" y="-177"/>
      <point x="1247" y="-180"/>
      <point x="1241" y="-181" type="curve" smooth="yes"/>
      <point x="1171" y="-204"/>
      <point x="866" y="-296"/>
      <point x="537" y="-296" type="curve" smooth="yes"/>
      <point x="321" y="-296"/>
      <point x="238" y="-189"/>
      <point x="308" y="2" type="curve" smooth="yes"/>
      <point x="316" y="22"/>
      <point x="326" y="43"/>
      <point x="441" y="272" type="curve" smooth="yes"/>
      <point x="448" y="287"/>
      <point x="445" y="300"/>
      <point x="431" y="304" type="curve" smooth="yes"/>
      <point x="360" y="320" type="line" smooth="yes"/>
      <point x="346" y="323"/>
      <point x="329" y="314"/>
      <point x="323" y="299" type="curve" smooth="yes"/>
      <point x="185" y="19"/>
      <point x="166" y="-21"/>
      <point x="146" y="-83" type="curve" smooth="yes"/>
      <point x="73" y="-313"/>
      <point x="139" y="-508"/>
      <point x="443" y="-508" type="curve" smooth="yes"/>
    </contour>
    <contour>
      <point x="1259" y="160"/>
      <point x="1179" y="155"/>
      <point x="1109" y="155" type="curve" smooth="yes"/>
      <point x="1033" y="155"/>
      <point x="970" y="162"/>
      <point x="921" y="188" type="curve" smooth="yes"/>
      <point x="918" y="190"/>
      <point x="917" y="192"/>
      <point x="919" y="200" type="curve" smooth="yes"/>
      <point x="960" y="368"/>
      <point x="1095" y="587"/>
      <point x="1228" y="587" type="curve" smooth="yes"/>
      <point x="1344" y="587"/>
      <point x="1412" y="391"/>
      <point x="1367" y="190" type="curve" smooth="yes"/>
      <point x="1366" y="185"/>
      <point x="1362" y="182"/>
      <point x="1357" y="181" type="curve" smooth="yes"/>
    </contour>
    <contour>
      <point x="1381" y="992" type="move" name="top"/>
    </contour>
    <contour>
      <point x="387" y="-713" type="move" name="bottom"/>
    </contour>
  </outline>
</glyph>
<glyph name="alefabove-ar" format="1">
  <advance width="0"/>
  <unicode hex="0670"/>
  <outline>
    <contour>
      <point x="391" y="824" type="line" smooth="yes"/>
      <point x="396" y="827"/>
      <point x="402" y="832"/>
      <point x="403" y="838" type="curve" smooth="yes"/>
      <point x="527" y="1234" type="line" smooth="yes"/>
      <point x="530" y="1242"/>
      <point x="524" y="1248"/>
      <point x="517" y="1248" type="curve" smooth="yes"/>
      <point x="515" y="1248"/>
      <point x="512" y="1247"/>
      <point x="511" y="1246" type="curve" smooth="yes"/>
      <point x="396" y="1191" type="line" smooth="yes"/>
      <point x="389" y="1188"/>
      <point x="383" y="1182"/>
      <point x="382" y="1176" type="curve" smooth="yes"/>
      <point x="281" y="779" type="line" smooth="yes"/>
      <point x="279" y="771"/>
      <point x="283" y="766"/>
      <point x="289" y="766" type="curve" smooth="yes"/>
      <point x="292" y="766"/>
      <point x="295" y="766"/>
      <point x="298" y="768" type="curve" smooth="yes"/>
    </contour>
    <contour>
      <point x="530" y="1454" type="move" name="top"/>
    </contour>
    <contour>
      <point x="317" y="770" type="move" name="_top"/>
    </contour>
  </outline>
</glyph>
<glyph name="tehRing-ar" format="1">
  <advance width="1779"/>
  <unicode hex="067C"/>
  <outline>
    <component base="teh-ar"/>
    <component base="ringbelow-ar" xOffset="293" yOffset="397"/>
    <contour>
      <point x="767" y="-330" type="move" name="bottom"/>
    </contour>
  </outline>
</glyph>
<glyph name="hahThreedotsabove-ar" format="1">
  <advance width="1410"/>
  <unicode hex="0685"/>
  <outline>
    <component base="hah-ar"/>
    <component base="threedotsupabove-ar" xOffset="276" yOffset="428"/>
    <contour>
      <point x="376" y="-911" type="move" name="bottom"/>
    </contour>
  </outline>
</glyph>
<glyph name="fehDotless-ar" format="1">
  <advance width="1801"/>
  <unicode hex="06A1"/>
  <outline>
    <contour>
      <point x="194" y="61"/>
      <point x="355" y="-39"/>
      <point x="685" y="-39" type="curve" smooth="yes"/>
      <point x="903" y="-39"/>
      <point x="1160" y="-6"/>
      <point x="1361" y="42" type="curve" smooth="yes"/>
      <point x="1655" y="114"/>
      <point x="1760" y="287"/>
      <point x="1809" y="439" type="curve" smooth="yes"/>
      <point x="1893" y="705"/>
      <point x="1872" y="1081"/>
      <point x="1663" y="1081" type="curve" smooth="yes"/>
      <point x="1435" y="1081"/>
      <point x="1233" y="800"/>
      <point x="1161" y="571" type="curve" smooth="yes"/>
      <point x="1102" y="386"/>
      <point x="1219" y="325"/>
      <point x="1364" y="325" type="curve" smooth="yes"/>
      <point x="1459" y="325"/>
      <point x="1566" y="350"/>
      <point x="1646" y="384" type="curve" smooth="yes"/>
      <point x="1656" y="389"/>
      <point x="1662" y="384"/>
      <point x="1659" y="373" type="curve" smooth="yes"/>
      <point x="1636" y="290" type="line"/>
      <point x="1498" y="234"/>
      <point x="1121" y="152"/>
      <point x="816" y="152" type="curve" smooth="yes"/>
      <point x="566" y="152"/>
      <point x="364" y="215"/>
      <point x="428" y="418" type="curve" smooth="yes"/>
      <point x="434" y="438"/>
      <point x="444" y="468"/>
      <point x="496" y="585" type="curve" smooth="yes"/>
      <point x="502" y="600"/>
      <point x="495" y="611"/>
      <point x="480" y="612" type="curve" smooth="yes"/>
      <point x="422" y="618" type="line" smooth="yes"/>
      <point x="406" y="620"/>
      <point x="391" y="609"/>
      <point x="385" y="594" type="curve" smooth="yes"/>
      <point x="316" y="442"/>
      <point x="300" y="393"/>
      <point x="288" y="355" type="curve" smooth="yes"/>
    </contour>
    <contour>
      <point x="1350" y="509"/>
      <point x="1270" y="542"/>
      <point x="1273" y="557" type="curve"/>
      <point x="1334" y="751"/>
      <point x="1451" y="878"/>
      <point x="1560" y="878" type="curve" smooth="yes"/>
      <point x="1657" y="878"/>
      <point x="1717" y="720"/>
      <point x="1694" y="534" type="curve"/>
      <point x="1692" y="533"/>
      <point x="1586" y="509"/>
      <point x="1472" y="509" type="curve" smooth="yes"/>
    </contour>
    <contour>
      <point x="1724" y="1290" type="move" name="top"/>
    </contour>
    <contour>
      <point x="637" y="-236" type="move" name="bottom"/>
    </contour>
  </outline>
</glyph>
<glyph name="keheh-ar" format="1">
  <advance width="1655"/>
  <unicode hex="06A9"/>
  <outline>
    <contour>
      <point x="194" y="58"/>
      <point x="357" y="-38"/>
      <point x="696" y="-38" type="curve" smooth="yes"/>
      <point x="1021" y="-38"/>
      <point x="1338" y="48"/>
      <point x="1490" y="107" type="curve" smooth="yes"/>
      <point x="1495" y="108"/>
      <point x="1501" y="113"/>
      <point x="1510" y="125" type="curve" smooth="yes"/>
      <point x="1562" y="192"/>
      <point x="1622" y="289"/>
      <point x="1641" y="349" type="curve" smooth="yes"/>
      <point x="1712" y="572"/>
      <point x="1531" y="921"/>
      <point x="1354" y="1034" type="curve" smooth="yes"/>
      <point x="1351" y="1036"/>
      <point x="1352" y="1037"/>
      <point x="1356" y="1038" type="curve" smooth="yes"/>
      <point x="2048" y="1236" type="line" smooth="yes"/>
      <point x="2063" y="1240"/>
      <point x="2073" y="1249"/>
      <point x="2077" y="1261" type="curve" smooth="yes"/>
      <point x="2139" y="1401" type="line" smooth="yes"/>
      <point x="2146" y="1417"/>
      <point x="2142" y="1429"/>
      <point x="2127" y="1428" type="curve"/>
      <point x="1390" y="1205" type="line"/>
      <point x="1378" y="1201"/>
      <point x="1370" y="1196"/>
      <point x="1361" y="1186" type="curve"/>
      <point x="1162" y="931" type="line"/>
      <point x="1157" y="922"/>
      <point x="1162" y="915"/>
      <point x="1169" y="909" type="curve" smooth="yes"/>
      <point x="1468" y="715"/>
      <point x="1523" y="438"/>
      <point x="1519" y="288" type="curve" smooth="yes"/>
      <point x="1520" y="283"/>
      <point x="1520" y="283"/>
      <point x="1513" y="280" type="curve" smooth="yes"/>
      <point x="1386" y="235"/>
      <point x="1108" y="153"/>
      <point x="817" y="153" type="curve" smooth="yes"/>
      <point x="569" y="153"/>
      <point x="363" y="215"/>
      <point x="427" y="419" type="curve" smooth="yes"/>
      <point x="430" y="427"/>
      <point x="434" y="448"/>
      <point x="495" y="585" type="curve" smooth="yes"/>
      <point x="502" y="600"/>
      <point x="495" y="612"/>
      <point x="480" y="613" type="curve" smooth="yes"/>
      <point x="422" y="618" type="line" smooth="yes"/>
      <point x="406" y="619"/>
      <point x="391" y="610"/>
      <point x="384" y="594" type="curve" smooth="yes"/>
      <point x="311" y="429"/>
      <point x="305" y="407"/>
      <point x="290" y="360" type="curve" smooth="yes"/>
    </contour>
    <contour>
      <point x="920" y="1077" type="move" name="top"/>
    </contour>
    <contour>
      <point x="635" y="-243" type="move" name="bottom"/>
    </contour>
    <contour>
      <point x="1851" y="1021" type="move" name="ring"/>
    </contour>
  </outline>
</glyph>
<glyph name="ng-ar" format="1">
  <advance width="1466"/>
  <unicode hex="06AD"/>
  <outline>
    <component base="kaf-ar"/>
    <component base="threedotsupabove-ar" xOffset="492" yOffset="399"/>
    <contour>
      <point x="575" y="-260" type="move" name="bottom"/>
    </contour>
  </outline>
</glyph>
<glyph name="gaf-ar" format="1">
  <advance width="1656"/>
  <unicode hex="06AF"/>
  <outline>
    <contour>
      <point x="358" y="-38"/>
      <point x="697" y="-38" type="curve" smooth="yes"/>
      <point x="1022" y="-38"/>
      <point x="1339" y="48"/>
      <point x="1491" y="107" type="curve" smooth="yes"/>
      <point x="1496" y="108"/>
      <point x="1502" y="112"/>
      <point x="1510" y="125" type="curve" smooth="yes"/>
      <point x="1563" y="192"/>
      <point x="1622" y="289"/>
      <point x="1642" y="349" type="curve" smooth="yes"/>
      <point x="1712" y="572"/>
      <point x="1532" y="921"/>
      <point x="1355" y="1034" type="curve" smooth="yes"/>
      <point x="1352" y="1036"/>
      <point x="1352" y="1037"/>
      <point x="1356" y="1038" type="curve" smooth="yes"/>
      <point x="2049" y="1236" type="line" smooth="yes"/>
      <point x="2063" y="1240"/>
      <point x="2073" y="1249"/>
      <point x="2078" y="1261" type="curve" smooth="yes"/>
      <point x="2140" y="1401" type="line" smooth="yes"/>
      <point x="2147" y="1417"/>
      <point x="2142" y="1428"/>
      <point x="2127" y="1428" type="curve"/>
      <point x="1391" y="1205" type="line"/>
      <point x="1378" y="1202"/>
      <point x="1371" y="1196"/>
      <point x="1362" y="1186" type="curve"/>
      <point x="1163" y="931" type="line"/>
      <point x="1159" y="921"/>
      <point x="1162" y="914"/>
      <point x="1170" y="909" type="curve" smooth="yes"/>
      <point x="1469" y="715"/>
      <point x="1524" y="438"/>
      <point x="1520" y="288" type="curve" smooth="yes"/>
      <point x="1521" y="283"/>
      <point x="1521" y="283"/>
      <point x="1513" y="280" type="curve" smooth="yes"/>
      <point x="1387" y="235"/>
      <point x="1108" y="153"/>
      <point x="817" y="153" type="curve" smooth="yes"/>
      <point x="569" y="153"/>
      <point x="363" y="215"/>
      <point x="428" y="419" type="curve" smooth="yes"/>
      <point x="431" y="427"/>
      <point x="434" y="436"/>
      <point x="495" y="586" type="curve" smooth="yes"/>
      <point x="503" y="601"/>
      <point x="496" y="613"/>
      <point x="480" y="614" type="curve" smooth="yes"/>
      <point x="422" y="619" type="line" smooth="yes"/>
      <point x="407" y="620"/>
      <point x="392" y="611"/>
      <point x="384" y="595" type="curve" smooth="yes"/>
      <point x="314" y="430"/>
      <point x="305" y="407"/>
      <point x="290" y="360" type="curve" smooth="yes"/>
      <point x="194" y="58"/>
    </contour>
    <contour>
      <point x="2008" y="1513" type="line"/>
      <point x="2021" y="1517"/>
      <point x="2032" y="1525"/>
      <point x="2039" y="1537" type="curve" smooth="yes"/>
      <point x="2081" y="1610" type="line" smooth="yes"/>
      <point x="2091" y="1627"/>
      <point x="2084" y="1639"/>
      <point x="2070" y="1639" type="curve"/>
      <point x="1604" y="1504" type="line"/>
      <point x="1592" y="1500"/>
      <point x="1584" y="1495"/>
      <point x="1575" y="1484" type="curve"/>
      <point x="1508" y="1391" type="line"/>
      <point x="1503" y="1380"/>
      <point x="1508" y="1373"/>
      <point x="1520" y="1373" type="curve"/>
    </contour>
    <contour>
      <point x="933" y="1083" type="move" name="top"/>
    </contour>
    <contour>
      <point x="635" y="-243" type="move" name="bottom"/>
    </contour>
  </outline>
</glyph>
<glyph name="noonghunna-ar" format="1">
  <advance width="1467"/>
  <unicode hex="06BA"/>
  <outline>
    <contour>
      <point x="641" y="-510"/>
      <point x="1039" y="-409"/>
      <point x="1205" y="-256" type="curve" smooth="yes"/>
      <point x="1252" y="-213"/>
      <point x="1277" y="-168"/>
      <point x="1297" y="-109" type="curve" smooth="yes"/>
      <point x="1314" y="-54"/>
      <point x="1320" y="-16"/>
      <point x="1430" y="557" type="curve" smooth="yes"/>
      <point x="1432" y="574"/>
      <point x="1423" y="584"/>
      <point x="1409" y="584" type="curve" smooth="yes"/>
      <point x="1403" y="584"/>
      <point x="1396" y="582"/>
      <point x="1389" y="577" type="curve" smooth="yes"/>
      <point x="1256" y="498" type="line" smooth="yes"/>
      <point x="1249" y="494"/>
      <point x="1244" y="486"/>
      <point x="1242" y="478" type="curve"/>
      <point x="1141" y="-162" type="line"/>
      <point x="1140" y="-163"/>
      <point x="1139" y="-166"/>
      <point x="1133" y="-169" type="curve" smooth="yes"/>
      <point x="1067" y="-205"/>
      <point x="811" y="-298"/>
      <point x="516" y="-298" type="curve" smooth="yes"/>
      <point x="317" y="-298"/>
      <point x="240" y="-206"/>
      <point x="294" y="-38" type="curve" smooth="yes"/>
      <point x="311" y="15"/>
      <point x="326" y="41"/>
      <point x="422" y="227" type="curve" smooth="yes"/>
      <point x="431" y="242"/>
      <point x="425" y="254"/>
      <point x="409" y="257" type="curve" smooth="yes"/>
      <point x="341" y="268" type="line" smooth="yes"/>
      <point x="329" y="270"/>
      <point x="313" y="262"/>
      <point x="306" y="247" type="curve" smooth="yes"/>
      <point x="182" y="10"/>
      <point x="166" y="-19"/>
      <point x="141" y="-100" type="curve" smooth="yes"/>
      <point x="69" y="-324"/>
      <point x="125" y="-510"/>
      <point x="422" y="-510" type="curve" smooth="yes"/>
    </contour>
    <contour>
      <point x="841" y="495" type="move" name="top"/>
    </contour>
    <contour>
      <point x="423" y="-715" type="move" name="bottom"/>
    </contour>
    <contour>
      <point x="63" y="-591" type="move" name="ring"/>
    </contour>
  </outline>
</glyph>
<glyph name="hehDoachashmee-ar" format="1">
  <advance width="1348"/>
  <unicode hex="06BE"/>
  <outline>
    <contour>
      <point x="201" y="-177"/>
      <point x="236" y="-177" type="curve" smooth="yes"/>
      <point x="301" y="-177"/>
      <point x="359" y="-139"/>
      <point x="448" y="-51" type="curve" smooth="yes"/>
      <point x="613" y="113" type="line"/>
      <point x="618" y="118"/>
      <point x="622" y="119"/>
      <point x="628" y="119" type="curve"/>
      <point x="1130" y="35" type="line" smooth="yes"/>
      <point x="1143" y="34"/>
      <point x="1155" y="39"/>
      <point x="1165" y="52" type="curve" smooth="yes"/>
      <point x="1240" y="148"/>
      <point x="1290" y="235"/>
      <point x="1317" y="321" type="curve" smooth="yes"/>
      <point x="1387" y="541"/>
      <point x="1294" y="750"/>
      <point x="1021" y="1081" type="curve" smooth="yes"/>
      <point x="1015" y="1086"/>
      <point x="1010" y="1089"/>
      <point x="1005" y="1089" type="curve" smooth="yes"/>
      <point x="997" y="1089"/>
      <point x="987" y="1084"/>
      <point x="980" y="1074" type="curve" smooth="yes"/>
      <point x="854" y="925" type="line" smooth="yes"/>
      <point x="850" y="920"/>
      <point x="847" y="918"/>
      <point x="839" y="915" type="curve" smooth="yes"/>
      <point x="630" y="841"/>
      <point x="357" y="570"/>
      <point x="294" y="372" type="curve" smooth="yes"/>
      <point x="257" y="252"/>
      <point x="301" y="159"/>
      <point x="419" y="116" type="curve" smooth="yes"/>
      <point x="425" y="114"/>
      <point x="425" y="113"/>
      <point x="421" y="110" type="curve" smooth="yes"/>
      <point x="152" y="-122" type="line" smooth="yes"/>
      <point x="147" y="-127"/>
      <point x="142" y="-132"/>
      <point x="141" y="-138" type="curve" smooth="yes"/>
      <point x="132" y="-165"/>
    </contour>
    <contour>
      <point x="473" y="327"/>
      <point x="424" y="385"/>
      <point x="450" y="469" type="curve" smooth="yes"/>
      <point x="498" y="619"/>
      <point x="670" y="725"/>
      <point x="792" y="725" type="curve" smooth="yes"/>
      <point x="850" y="725"/>
      <point x="899" y="700"/>
      <point x="914" y="642" type="curve" smooth="yes"/>
      <point x="914" y="636"/>
      <point x="914" y="635"/>
      <point x="910" y="630" type="curve" smooth="yes"/>
      <point x="619" y="300" type="line" smooth="yes"/>
      <point x="615" y="296"/>
      <point x="613" y="295"/>
      <point x="607" y="297" type="curve" smooth="yes"/>
    </contour>
    <contour>
      <point x="803" y="301" type="line" smooth="yes"/>
      <point x="798" y="302"/>
      <point x="797" y="303"/>
      <point x="798" y="306" type="curve"/>
      <point x="1033" y="662" type="line"/>
      <point x="1036" y="666"/>
      <point x="1037" y="667"/>
      <point x="1040" y="663" type="curve" smooth="yes"/>
      <point x="1117" y="552"/>
      <point x="1210" y="361"/>
      <point x="1174" y="229" type="curve" smooth="yes"/>
      <point x="1173" y="225"/>
      <point x="1171" y="224"/>
      <point x="1167" y="225" type="curve" smooth="yes"/>
    </contour>
    <contour>
      <point x="1072" y="1280" type="move" name="top"/>
    </contour>
    <contour>
      <point x="567" y="-320" type="move" name="bottom"/>
    </contour>
  </outline>
</glyph>
<glyph name="tehMarbutagoal-ar" format="1">
  <advance width="1025"/>
  <unicode hex="06C3"/>
  <outline>
    <component base="heh-ar"/>
    <component base="twodotshorizontalabove-ar" xOffset="191" yOffset="280"/>
    <contour>
      <point x="334" y="-230" type="move" name="bottom"/>
    </contour>
  </outline>
</glyph>
<glyph name="ve-ar" format="1">
  <advance width="1022"/>
  <unicode hex="06CB"/>
  <outline>
    <component base="waw-ar"/>
    <component base="threedotsupabove-ar" xOffset="335" yOffset="432"/>
    <contour>
      <point x="165" y="-680" type="move" name="bottom"/>
    </contour>
  </outline>
</glyph>
<glyph name="yehTail-ar" format="1">
  <advance width="2008"/>
  <unicode hex="06CD"/>
  <outline>
    <contour>
      <point x="1173" y="-587"/>
      <point x="1753" y="-377"/>
      <point x="1840" y="-100" type="curve" smooth="yes"/>
      <point x="1868" y="-14"/>
      <point x="1833" y="17"/>
      <point x="1699" y="28" type="curve" smooth="yes"/>
      <point x="1402" y="59"/>
      <point x="1309" y="64"/>
      <point x="1333" y="137" type="curve" smooth="yes"/>
      <point x="1363" y="234"/>
      <point x="1685" y="478"/>
      <point x="1791" y="478" type="curve" smooth="yes"/>
      <point x="1819" y="478"/>
      <point x="1843" y="469"/>
      <point x="1869" y="452" type="curve" smooth="yes"/>
      <point x="1873" y="449"/>
      <point x="1877" y="448"/>
      <point x="1882" y="448" type="curve" smooth="yes"/>
      <point x="1891" y="448"/>
      <point x="1899" y="455"/>
      <point x="1910" y="467" type="curve" smooth="yes"/>
      <point x="1992" y="573" type="line" smooth="yes"/>
      <point x="1995" y="578"/>
      <point x="1998" y="583"/>
      <point x="1999" y="588" type="curve" smooth="yes"/>
      <point x="2001" y="594"/>
      <point x="2000" y="599"/>
      <point x="1999" y="606" type="curve" smooth="yes"/>
      <point x="1984" y="649"/>
      <point x="1934" y="674"/>
      <point x="1869" y="674" type="curve" smooth="yes"/>
      <point x="1647" y="674"/>
      <point x="1245" y="269"/>
      <point x="1171" y="37" type="curve" smooth="yes"/>
      <point x="1134" y="-79"/>
      <point x="1198" y="-131"/>
      <point x="1367" y="-148" type="curve" smooth="yes"/>
      <point x="1664" y="-178" type="line" smooth="yes"/>
      <point x="1667" y="-179"/>
      <point x="1669" y="-180"/>
      <point x="1668" y="-183" type="curve" smooth="yes"/>
      <point x="1667" y="-185"/>
      <point x="1666" y="-187"/>
      <point x="1663" y="-189" type="curve" smooth="yes"/>
      <point x="1431" y="-308"/>
      <point x="1172" y="-377"/>
      <point x="964" y="-377" type="curve" smooth="yes"/>
      <point x="723" y="-377"/>
      <point x="639" y="-277"/>
      <point x="705" y="-71" type="curve" smooth="yes"/>
      <point x="732" y="17"/>
      <point x="776" y="107"/>
      <point x="797" y="172" type="curve" smooth="yes"/>
      <point x="816" y="234"/>
      <point x="821" y="277"/>
      <point x="768" y="275" type="curve"/>
      <point x="222" y="115" type="line"/>
      <point x="214" y="112"/>
      <point x="207" y="107"/>
      <point x="204" y="96" type="curve" smooth="yes"/>
      <point x="199" y="83"/>
      <point x="228" y="-39"/>
      <point x="333" y="-39" type="curve" smooth="yes"/>
      <point x="375" y="-39"/>
      <point x="440" y="-12"/>
      <point x="632" y="57" type="curve"/>
      <point x="599" y="-16"/>
      <point x="572" y="-83"/>
      <point x="552" y="-143" type="curve" smooth="yes"/>
      <point x="456" y="-448"/>
      <point x="557" y="-587"/>
      <point x="869" y="-587" type="curve" smooth="yes"/>
    </contour>
    <contour>
      <point x="1069" y="513" type="move" name="top"/>
    </contour>
    <contour>
      <point x="807" y="-788" type="move" name="bottom"/>
    </contour>
  </outline>
</glyph>
<glyph name="yehbarree-ar" format="1">
  <advance width="1805"/>
  <unicode hex="06D2"/>
  <outline>
    <contour>
      <point x="1651" y="-59" type="line"/>
      <point x="1699" y="89"/>
      <point x="1712" y="136"/>
      <point x="1599" y="136" type="curve" smooth="yes"/>
      <point x="490" y="137" type="line" smooth="yes"/>
      <point x="391" y="137"/>
      <point x="346" y="161"/>
      <point x="361" y="206" type="curve" smooth="yes"/>
      <point x="363" y="214"/>
      <point x="368" y="223"/>
      <point x="374" y="232" type="curve" smooth="yes"/>
      <point x="452" y="344"/>
      <point x="809" y="420"/>
      <point x="1007" y="636" type="curve" smooth="yes"/>
      <point x="1016" y="646"/>
      <point x="1085" y="588"/>
      <point x="1103" y="577" type="curve" smooth="yes"/>
      <point x="1106" y="575"/>
      <point x="1109" y="574"/>
      <point x="1113" y="574" type="curve" smooth="yes"/>
      <point x="1124" y="574"/>
      <point x="1133" y="580"/>
      <point x="1143" y="591" type="curve" smooth="yes"/>
      <point x="1225" y="698" type="line" smooth="yes"/>
      <point x="1228" y="702"/>
      <point x="1231" y="707"/>
      <point x="1232" y="710" type="curve" smooth="yes"/>
      <point x="1234" y="717"/>
      <point x="1235" y="724"/>
      <point x="1231" y="731" type="curve" smooth="yes"/>
      <point x="1218" y="770"/>
      <point x="1148" y="831"/>
      <point x="1089" y="831" type="curve" smooth="yes"/>
      <point x="1078" y="831"/>
      <point x="1068" y="829"/>
      <point x="1059" y="826" type="curve" smooth="yes"/>
      <point x="970" y="787"/>
      <point x="963" y="707"/>
      <point x="709" y="585" type="curve" smooth="yes"/>
      <point x="535" y="501"/>
      <point x="417" y="429"/>
      <point x="312" y="288" type="curve" smooth="yes"/>
      <point x="259" y="219"/>
      <point x="225" y="159"/>
      <point x="209" y="110" type="curve" smooth="yes"/>
      <point x="174" y="0"/>
      <point x="231" y="-59"/>
      <point x="379" y="-59" type="curve" smooth="yes"/>
    </contour>
    <contour>
      <point x="1158" y="1040" type="move" name="top"/>
    </contour>
    <contour>
      <point x="798" y="-270" type="move" name="bottom"/>
    </contour>
  </outline>
</glyph>
<glyph name="fullstop-ar" format="1">
  <advance width="775"/>
  <unicode hex="06D4"/>
  <outline>
    <contour>
      <point x="706" y="307" type="line" smooth="yes"/>
      <point x="718" y="307"/>
      <point x="731" y="316"/>
      <point x="738" y="327" type="curve" smooth="yes"/>
      <point x="796" y="436" type="line" smooth="yes"/>
      <point x="805" y="455"/>
      <point x="797" y="469"/>
      <point x="780" y="469" type="curve" smooth="yes"/>
      <point x="321" y="469" type="line" smooth="yes"/>
      <point x="309" y="469"/>
      <point x="297" y="461"/>
      <point x="290" y="450" type="curve" smooth="yes"/>
      <point x="231" y="341" type="line" smooth="yes"/>
      <point x="221" y="322"/>
      <point x="229" y="307"/>
      <point x="247" y="307" type="curve" smooth="yes"/>
    </contour>
  </outline>
</glyph>
<glyph name="sadLamAlefMaksuraabove-ar" format="1">
  <advance width="0"/>
  <unicode hex="06D6"/>
  <outline>
    <contour>
      <point x="1427" y="353" type="line"/>
      <point x="1447" y="354"/>
      <point x="1461" y="360"/>
      <point x="1470" y="372" type="curve"/>
      <point x="1501" y="420" type="line"/>
      <point x="1508" y="436"/>
      <point x="1497" y="438"/>
      <point x="1479" y="438" type="curve"/>
      <point x="380" y="412" type="line"/>
      <point x="316" y="412"/>
      <point x="262" y="416"/>
      <point x="205" y="430" type="curve" smooth="yes"/>
      <point x="201" y="431"/>
      <point x="202" y="432"/>
      <point x="204" y="438" type="curve" smooth="yes"/>
      <point x="270" y="531"/>
      <point x="372" y="561"/>
      <point x="487" y="584" type="curve" smooth="yes"/>
      <point x="499" y="587"/>
      <point x="509" y="592"/>
      <point x="517" y="603" type="curve" smooth="yes"/>
      <point x="550" y="640" type="line" smooth="yes"/>
      <point x="553" y="644"/>
      <point x="554" y="644"/>
      <point x="554" y="639" type="curve" smooth="yes"/>
      <point x="566" y="586"/>
      <point x="609" y="558"/>
      <point x="660" y="558" type="curve" smooth="yes"/>
      <point x="699" y="558"/>
      <point x="744" y="574"/>
      <point x="783" y="607" type="curve" smooth="yes"/>
      <point x="787" y="612"/>
      <point x="789" y="612"/>
      <point x="793" y="610" type="curve" smooth="yes"/>
      <point x="836" y="589"/>
      <point x="900" y="577"/>
      <point x="964" y="577" type="curve" smooth="yes"/>
      <point x="1094" y="577"/>
      <point x="1279" y="633"/>
      <point x="1313" y="741" type="curve" smooth="yes"/>
      <point x="1333" y="803"/>
      <point x="1258" y="887"/>
      <point x="1186" y="888" type="curve" smooth="yes"/>
      <point x="1124" y="888"/>
      <point x="1049" y="840"/>
      <point x="872" y="687" type="curve" smooth="yes"/>
      <point x="869" y="684"/>
      <point x="867" y="683"/>
      <point x="864" y="684" type="curve"/>
      <point x="825" y="697" type="line"/>
      <point x="816" y="698"/>
      <point x="807" y="693"/>
      <point x="798" y="685" type="curve" smooth="yes"/>
      <point x="767" y="656"/>
      <point x="735" y="641"/>
      <point x="704" y="641" type="curve" smooth="yes"/>
      <point x="588" y="641"/>
      <point x="613" y="778"/>
      <point x="659" y="936" type="curve"/>
      <point x="722" y="1187" type="line"/>
      <point x="722" y="1189"/>
      <point x="717" y="1191"/>
      <point x="714" y="1191" type="curve" smooth="yes"/>
      <point x="708" y="1191"/>
      <point x="701" y="1188"/>
      <point x="692" y="1182" type="curve" smooth="yes"/>
      <point x="653" y="1157" type="line" smooth="yes"/>
      <point x="640" y="1148"/>
      <point x="633" y="1139"/>
      <point x="631" y="1128" type="curve" smooth="yes"/>
      <point x="513" y="672" type="line" smooth="yes"/>
      <point x="511" y="666"/>
      <point x="509" y="664"/>
      <point x="503" y="663" type="curve" smooth="yes"/>
      <point x="364" y="635"/>
      <point x="241" y="601"/>
      <point x="141" y="423" type="curve" smooth="yes"/>
      <point x="136" y="417"/>
      <point x="133" y="410"/>
      <point x="131" y="403" type="curve" smooth="yes"/>
      <point x="110" y="337"/>
      <point x="207" y="326"/>
      <point x="312" y="326" type="curve"/>
    </contour>
    <contour>
      <point x="904" y="661"/>
      <point x="903" y="661"/>
      <point x="911" y="667" type="curve" smooth="yes"/>
      <point x="1029" y="769"/>
      <point x="1090" y="806"/>
      <point x="1133" y="806" type="curve" smooth="yes"/>
      <point x="1193" y="806"/>
      <point x="1228" y="750"/>
      <point x="1243" y="721" type="curve"/>
      <point x="1247" y="717"/>
      <point x="1246" y="714"/>
      <point x="1238" y="711" type="curve" smooth="yes"/>
      <point x="1150" y="672"/>
      <point x="1074" y="656"/>
      <point x="992" y="656" type="curve"/>
      <point x="911" y="660" type="line"/>
    </contour>
    <contour>
      <point x="941" y="1419" type="move" name="top"/>
    </contour>
    <contour>
      <point x="788" y="336" type="move" name="_top"/>
    </contour>
  </outline>
</glyph>
<glyph name="qafLamAlefMaksuraabove-ar" format="1">
  <advance width="0"/>
  <unicode hex="06D7"/>
  <outline>
    <contour>
      <point x="395" y="311"/>
      <point x="812" y="328"/>
      <point x="975" y="338" type="curve" smooth="yes"/>
      <point x="999" y="339"/>
      <point x="1011" y="345"/>
      <point x="1019" y="357" type="curve" smooth="yes"/>
      <point x="1041" y="384" type="line" smooth="yes"/>
      <point x="1048" y="393"/>
      <point x="1052" y="398"/>
      <point x="1053" y="403" type="curve" smooth="yes"/>
      <point x="1056" y="413"/>
      <point x="1049" y="422"/>
      <point x="1033" y="422" type="curve" smooth="yes"/>
      <point x="1008" y="422"/>
      <point x="651" y="396"/>
      <point x="394" y="396" type="curve" smooth="yes"/>
      <point x="321" y="396"/>
      <point x="251" y="400"/>
      <point x="196" y="416" type="curve"/>
      <point x="261" y="514"/>
      <point x="406" y="545"/>
      <point x="526" y="568" type="curve" smooth="yes"/>
      <point x="538" y="571"/>
      <point x="548" y="577"/>
      <point x="556" y="588" type="curve" smooth="yes"/>
      <point x="592" y="631" type="line"/>
      <point x="607" y="571"/>
      <point x="675" y="543"/>
      <point x="752" y="543" type="curve" smooth="yes"/>
      <point x="856" y="543"/>
      <point x="975" y="593"/>
      <point x="1011" y="684" type="curve"/>
      <point x="1067" y="842"/>
      <point x="1074" y="1037"/>
      <point x="954" y="1037" type="curve" smooth="yes"/>
      <point x="864" y="1037"/>
      <point x="774" y="895"/>
      <point x="746" y="805" type="curve" smooth="yes"/>
      <point x="722" y="729"/>
      <point x="776" y="705"/>
      <point x="841" y="705" type="curve" smooth="yes"/>
      <point x="885" y="705"/>
      <point x="932" y="715"/>
      <point x="965" y="728" type="curve"/>
      <point x="942" y="658" type="line"/>
      <point x="901" y="639"/>
      <point x="850" y="628"/>
      <point x="801" y="628" type="curve" smooth="yes"/>
      <point x="730" y="628"/>
      <point x="666" y="652"/>
      <point x="660" y="712" type="curve" smooth="yes"/>
      <point x="656" y="744"/>
      <point x="662" y="783"/>
      <point x="761" y="1146" type="curve" smooth="yes"/>
      <point x="766" y="1164"/>
      <point x="760" y="1174"/>
      <point x="750" y="1174" type="curve" smooth="yes"/>
      <point x="748" y="1174"/>
      <point x="745" y="1173"/>
      <point x="741" y="1171" type="curve" smooth="yes"/>
      <point x="692" y="1141" type="line" smooth="yes"/>
      <point x="684" y="1137"/>
      <point x="676" y="1131"/>
      <point x="670" y="1116" type="curve"/>
      <point x="550" y="650" type="line"/>
      <point x="405" y="621"/>
      <point x="237" y="589"/>
      <point x="136" y="408" type="curve" smooth="yes"/>
      <point x="131" y="401"/>
      <point x="128" y="395"/>
      <point x="127" y="388" type="curve" smooth="yes"/>
      <point x="104" y="319"/>
      <point x="210" y="311"/>
      <point x="323" y="311" type="curve" smooth="yes"/>
    </contour>
    <contour>
      <point x="976" y="794"/>
      <point x="932" y="787"/>
      <point x="886" y="787" type="curve" smooth="yes"/>
      <point x="853" y="787"/>
      <point x="819" y="790"/>
      <point x="800" y="803" type="curve"/>
      <point x="825" y="879"/>
      <point x="876" y="943"/>
      <point x="910" y="943" type="curve" smooth="yes"/>
      <point x="966" y="943"/>
      <point x="983" y="876"/>
      <point x="976" y="791" type="curve"/>
    </contour>
    <contour>
      <point x="838" y="1405" type="move" name="top"/>
    </contour>
    <contour>
      <point x="558" y="311" type="move" name="_top"/>
    </contour>
  </outline>
</glyph>
<glyph name="endofayah-ar" format="1">
  <advance width="2865"/>
  <unicode hex="06DD"/>
  <outline>
    <contour>
      <point x="1183" y="-1035" type="line" smooth="yes"/>
      <point x="1197" y="-1035"/>
      <point x="1213" y="-1023"/>
      <point x="1218" y="-1009" type="curve" smooth="yes"/>
      <point x="1276" y="-826" type="line" smooth="yes"/>
      <point x="1277" y="-821"/>
      <point x="1280" y="-819"/>
      <point x="1285" y="-819" type="curve" smooth="yes"/>
      <point x="1980" y="-763"/>
      <point x="2687" y="-193"/>
      <point x="2904" y="489" type="curve" smooth="yes"/>
      <point x="3121" y="1170"/>
      <point x="2777" y="1740"/>
      <point x="2115" y="1796" type="curve" smooth="yes"/>
      <point x="2110" y="1796"/>
      <point x="2109" y="1798"/>
      <point x="2110" y="1803" type="curve" smooth="yes"/>
      <point x="2168" y="1986" type="line" smooth="yes"/>
      <point x="2173" y="2001"/>
      <point x="2165" y="2012"/>
      <point x="2151" y="2012" type="curve" smooth="yes"/>
      <point x="1998" y="2012" type="line" smooth="yes"/>
      <point x="1984" y="2012"/>
      <point x="1968" y="2001"/>
      <point x="1963" y="1986" type="curve" smooth="yes"/>
      <point x="1906" y="1804" type="line" smooth="yes"/>
      <point x="1905" y="1799"/>
      <point x="1902" y="1797"/>
      <point x="1898" y="1797" type="curve" smooth="yes"/>
      <point x="1201" y="1740"/>
      <point x="496" y="1171"/>
      <point x="279" y="489" type="curve" smooth="yes"/>
      <point x="62" y="-194"/>
      <point x="406" y="-764"/>
      <point x="1066" y="-820" type="curve" smooth="yes"/>
      <point x="1070" y="-820"/>
      <point x="1071" y="-822"/>
      <point x="1070" y="-827" type="curve" smooth="yes"/>
      <point x="1013" y="-1009" type="line" smooth="yes"/>
      <point x="1008" y="-1023"/>
      <point x="1016" y="-1035"/>
      <point x="1030" y="-1035" type="curve" smooth="yes"/>
    </contour>
    <contour>
      <point x="1145" y="-701"/>
      <point x="1108" y="-649"/>
      <point x="1129" y="-582" type="curve" smooth="yes"/>
      <point x="1152" y="-515"/>
      <point x="1224" y="-457"/>
      <point x="1290" y="-457" type="curve" smooth="yes"/>
      <point x="1356" y="-457"/>
      <point x="1396" y="-515"/>
      <point x="1373" y="-582" type="curve" smooth="yes"/>
      <point x="1353" y="-648"/>
      <point x="1280" y="-701"/>
      <point x="1212" y="-701" type="curve" smooth="yes"/>
    </contour>
    <contour>
      <point x="371" y="-149"/>
      <point x="329" y="154"/>
      <point x="435" y="489" type="curve" smooth="yes"/>
      <point x="543" y="827"/>
      <point x="782" y="1140"/>
      <point x="1101" y="1353" type="curve" smooth="yes"/>
      <point x="1107" y="1357"/>
      <point x="1109" y="1357"/>
      <point x="1112" y="1354" type="curve" smooth="yes"/>
      <point x="1128" y="1331" type="line" smooth="yes"/>
      <point x="1140" y="1312"/>
      <point x="1155" y="1304"/>
      <point x="1173" y="1304" type="curve" smooth="yes"/>
      <point x="1190" y="1304"/>
      <point x="1208" y="1310"/>
      <point x="1230" y="1324" type="curve" smooth="yes"/>
      <point x="1337" y="1392"/>
      <point x="1440" y="1427"/>
      <point x="1534" y="1427" type="curve" smooth="yes"/>
      <point x="1643" y="1427"/>
      <point x="1743" y="1381"/>
      <point x="1828" y="1292" type="curve" smooth="yes"/>
      <point x="1833" y="1288"/>
      <point x="1838" y="1285"/>
      <point x="1844" y="1285" type="curve" smooth="yes"/>
      <point x="1851" y="1285"/>
      <point x="1859" y="1288"/>
      <point x="1864" y="1292" type="curve" smooth="yes"/>
      <point x="2007" y="1381"/>
      <point x="2134" y="1427"/>
      <point x="2244" y="1427" type="curve" smooth="yes"/>
      <point x="2338" y="1427"/>
      <point x="2420" y="1393"/>
      <point x="2485" y="1324" type="curve" smooth="yes"/>
      <point x="2496" y="1310"/>
      <point x="2511" y="1304"/>
      <point x="2527" y="1304" type="curve" smooth="yes"/>
      <point x="2545" y="1304"/>
      <point x="2566" y="1312"/>
      <point x="2591" y="1331" type="curve" smooth="yes"/>
      <point x="2621" y="1354" type="line" smooth="yes"/>
      <point x="2626" y="1357"/>
      <point x="2627" y="1357"/>
      <point x="2633" y="1353" type="curve"/>
      <point x="2812" y="1140"/>
      <point x="2855" y="827"/>
      <point x="2747" y="489" type="curve" smooth="yes"/>
      <point x="2641" y="155"/>
      <point x="2406" y="-149"/>
      <point x="2087" y="-363" type="curve" smooth="yes"/>
      <point x="2079" y="-369"/>
      <point x="2078" y="-368"/>
      <point x="2075" y="-364" type="curve" smooth="yes"/>
      <point x="2060" y="-341" type="line" smooth="yes"/>
      <point x="2047" y="-323"/>
      <point x="2032" y="-314"/>
      <point x="2013" y="-314" type="curve" smooth="yes"/>
      <point x="1998" y="-314"/>
      <point x="1978" y="-321"/>
      <point x="1957" y="-335" type="curve" smooth="yes"/>
      <point x="1843" y="-408"/>
      <point x="1737" y="-444"/>
      <point x="1639" y="-444" type="curve" smooth="yes"/>
      <point x="1532" y="-444"/>
      <point x="1436" y="-400"/>
      <point x="1352" y="-314" type="curve" smooth="yes"/>
      <point x="1348" y="-309"/>
      <point x="1343" y="-307"/>
      <point x="1337" y="-307" type="curve" smooth="yes"/>
      <point x="1330" y="-307"/>
      <point x="1324" y="-309"/>
      <point x="1317" y="-314" type="curve" smooth="yes"/>
      <point x="1180" y="-400"/>
      <point x="1057" y="-444"/>
      <point x="950" y="-444" type="curve" smooth="yes"/>
      <point x="854" y="-444"/>
      <point x="771" y="-408"/>
      <point x="702" y="-335" type="curve" smooth="yes"/>
      <point x="690" y="-321"/>
      <point x="675" y="-314"/>
      <point x="658" y="-314" type="curve" smooth="yes"/>
      <point x="640" y="-314"/>
      <point x="621" y="-323"/>
      <point x="597" y="-341" type="curve" smooth="yes"/>
      <point x="566" y="-364" type="line" smooth="yes"/>
      <point x="562" y="-367"/>
      <point x="558" y="-367"/>
      <point x="556" y="-363" type="curve" smooth="yes"/>
    </contour>
    <contour>
      <point x="1821" y="1434"/>
      <point x="1786" y="1486"/>
      <point x="1807" y="1553" type="curve" smooth="yes"/>
      <point x="1829" y="1621"/>
      <point x="1901" y="1678"/>
      <point x="1967" y="1678" type="curve" smooth="yes"/>
      <point x="2033" y="1678"/>
      <point x="2073" y="1620"/>
      <point x="2051" y="1553" type="curve" smooth="yes"/>
      <point x="2030" y="1487"/>
      <point x="1957" y="1434"/>
      <point x="1889" y="1434" type="curve" smooth="yes"/>
    </contour>
  </outline>
</glyph>
<glyph name="asteriskArt-ar" format="1">
  <advance width="1355"/>
  <unicode hex="06DE"/>
  <outline>
    <contour>
      <point x="661" y="-156" type="line" smooth="yes"/>
      <point x="673" y="-156"/>
      <point x="683" y="-149"/>
      <point x="687" y="-138" type="curve" smooth="yes"/>
      <point x="708" y="-73" type="line" smooth="yes"/>
      <point x="708" y="-69"/>
      <point x="713" y="-68"/>
      <point x="717" y="-68" type="curve" smooth="yes"/>
      <point x="1011" y="-41"/>
      <point x="1303" y="203"/>
      <point x="1394" y="489" type="curve" smooth="yes"/>
      <point x="1486" y="778"/>
      <point x="1354" y="1018"/>
      <point x="1071" y="1044" type="curve" smooth="yes"/>
      <point x="1067" y="1044"/>
      <point x="1062" y="1045"/>
      <point x="1064" y="1050" type="curve" smooth="yes"/>
      <point x="1085" y="1114" type="line" smooth="yes"/>
      <point x="1089" y="1126"/>
      <point x="1083" y="1133"/>
      <point x="1071" y="1133" type="curve" smooth="yes"/>
      <point x="1010" y="1133" type="line" smooth="yes"/>
      <point x="999" y="1133"/>
      <point x="989" y="1124"/>
      <point x="986" y="1114" type="curve" smooth="yes"/>
      <point x="965" y="1050" type="line" smooth="yes"/>
      <point x="965" y="1046"/>
      <point x="959" y="1044"/>
      <point x="955" y="1044" type="curve" smooth="yes"/>
      <point x="658" y="1018"/>
      <point x="370" y="777"/>
      <point x="279" y="489" type="curve" smooth="yes"/>
      <point x="188" y="200"/>
      <point x="320" y="-41"/>
      <point x="602" y="-68" type="curve" smooth="yes"/>
      <point x="606" y="-68"/>
      <point x="609" y="-69"/>
      <point x="609" y="-73" type="curve" smooth="yes"/>
      <point x="588" y="-138" type="line" smooth="yes"/>
      <point x="585" y="-147"/>
      <point x="590" y="-156"/>
      <point x="600" y="-156" type="curve" smooth="yes"/>
    </contour>
    <contour>
      <point x="661" y="3"/>
      <point x="651" y="18"/>
      <point x="657" y="39" type="curve" smooth="yes"/>
      <point x="665" y="64"/>
      <point x="687" y="82"/>
      <point x="707" y="82" type="curve" smooth="yes"/>
      <point x="729" y="82"/>
      <point x="740" y="62"/>
      <point x="733" y="39" type="curve" smooth="yes"/>
      <point x="727" y="19"/>
      <point x="704" y="3"/>
      <point x="682" y="3" type="curve" smooth="yes"/>
    </contour>
    <contour>
      <point x="327" y="233"/>
      <point x="317" y="353"/>
      <point x="360" y="489" type="curve" smooth="yes"/>
      <point x="405" y="628"/>
      <point x="490" y="755"/>
      <point x="622" y="843" type="curve" smooth="yes"/>
      <point x="628" y="846"/>
      <point x="628" y="846"/>
      <point x="634" y="836" type="curve" smooth="yes"/>
      <point x="645" y="820"/>
      <point x="662" y="820"/>
      <point x="685" y="834" type="curve" smooth="yes"/>
      <point x="773" y="882"/>
      <point x="846" y="883"/>
      <point x="906" y="837" type="curve" smooth="yes"/>
      <point x="908" y="836"/>
      <point x="908" y="835"/>
      <point x="907" y="834" type="curve" smooth="yes"/>
      <point x="814" y="539" type="line" smooth="yes"/>
      <point x="813" y="534"/>
      <point x="807" y="531"/>
      <point x="802" y="531" type="curve" smooth="yes"/>
      <point x="483" y="531" type="line" smooth="yes"/>
      <point x="466" y="531"/>
      <point x="449" y="516"/>
      <point x="443" y="498" type="curve" smooth="yes"/>
      <point x="437" y="480" type="line" smooth="yes"/>
      <point x="432" y="464"/>
      <point x="442" y="449"/>
      <point x="458" y="449" type="curve" smooth="yes"/>
      <point x="777" y="449" type="line" smooth="yes"/>
      <point x="782" y="449"/>
      <point x="784" y="445"/>
      <point x="783" y="441" type="curve" smooth="yes"/>
      <point x="689" y="143" type="line" smooth="yes"/>
      <point x="687" y="141"/>
      <point x="686" y="139"/>
      <point x="683" y="138" type="curve" smooth="yes"/>
      <point x="596" y="93"/>
      <point x="527" y="97"/>
      <point x="468" y="148" type="curve" smooth="yes"/>
      <point x="453" y="162"/>
      <point x="435" y="160"/>
      <point x="413" y="143" type="curve" smooth="yes"/>
      <point x="405" y="138"/>
      <point x="402" y="139"/>
      <point x="401" y="140" type="curve" smooth="yes"/>
    </contour>
    <contour>
      <point x="943" y="895"/>
      <point x="932" y="911"/>
      <point x="939" y="933" type="curve" smooth="yes"/>
      <point x="946" y="955"/>
      <point x="970" y="974"/>
      <point x="990" y="974" type="curve" smooth="yes"/>
      <point x="1011" y="974"/>
      <point x="1024" y="954"/>
      <point x="1017" y="933" type="curve" smooth="yes"/>
      <point x="1011" y="912"/>
      <point x="987" y="895"/>
      <point x="965" y="895" type="curve" smooth="yes"/>
    </contour>
    <contour>
      <point x="1041" y="144" type="curve" smooth="yes"/>
      <point x="1029" y="160"/>
      <point x="1012" y="160"/>
      <point x="989" y="148" type="curve" smooth="yes"/>
      <point x="901" y="97"/>
      <point x="826" y="93"/>
      <point x="767" y="137" type="curve" smooth="yes"/>
      <point x="766" y="139"/>
      <point x="765" y="140"/>
      <point x="766" y="142" type="curve" smooth="yes"/>
      <point x="861" y="441" type="line" smooth="yes"/>
      <point x="862" y="445"/>
      <point x="867" y="449"/>
      <point x="872" y="449" type="curve" smooth="yes"/>
      <point x="1191" y="449" type="line" smooth="yes"/>
      <point x="1207" y="449"/>
      <point x="1226" y="464"/>
      <point x="1231" y="480" type="curve" smooth="yes"/>
      <point x="1237" y="498" type="line" smooth="yes"/>
      <point x="1243" y="516"/>
      <point x="1233" y="531"/>
      <point x="1216" y="531" type="curve" smooth="yes"/>
      <point x="897" y="531" type="line" smooth="yes"/>
      <point x="892" y="531"/>
      <point x="891" y="534"/>
      <point x="892" y="539" type="curve" smooth="yes"/>
      <point x="986" y="835" type="line" smooth="yes"/>
      <point x="987" y="837"/>
      <point x="987" y="838"/>
      <point x="992" y="841" type="curve" smooth="yes"/>
      <point x="1076" y="883"/>
      <point x="1151" y="883"/>
      <point x="1206" y="834" type="curve" smooth="yes"/>
      <point x="1223" y="821"/>
      <point x="1241" y="823"/>
      <point x="1261" y="836" type="curve" smooth="yes"/>
      <point x="1266" y="840"/>
      <point x="1270" y="843"/>
      <point x="1274" y="841" type="curve"/>
      <point x="1347" y="751"/>
      <point x="1355" y="626"/>
      <point x="1312" y="489" type="curve" smooth="yes"/>
      <point x="1270" y="357"/>
      <point x="1176" y="232"/>
      <point x="1050" y="141" type="curve" smooth="yes"/>
      <point x="1049" y="140"/>
      <point x="1044" y="138"/>
    </contour>
    <component base="period" xOffset="506" yOffset="628" xScale="0.457" yScale="0.438" xyScale="-0.085" yxScale="-0.011"/>
    <component base="period" xOffset="918" yOffset="628" xScale="0.457" yScale="0.438" xyScale="-0.085" yxScale="-0.011"/>
    <component base="period" xOffset="471" yOffset="292" xScale="0.457" yScale="0.438" xyScale="-0.085" yxScale="-0.011"/>
    <component base="period" xOffset="881" yOffset="292" xScale="0.457" yScale="0.438" xyScale="-0.085" yxScale="-0.011"/>
  </outline>
</glyph>
<glyph name="sajdah-ar" format="1">
  <advance width="925"/>
  <unicode hex="06E9"/>
  <outline>
    <contour>
      <point x="940" y="661" type="line" smooth="yes"/>
      <point x="990" y="661"/>
      <point x="1032" y="695"/>
      <point x="1049" y="750" type="curve" smooth="yes"/>
      <point x="1116" y="962"/>
      <point x="1069" y="961"/>
      <point x="858" y="1170" type="curve" smooth="yes"/>
      <point x="855" y="1175"/>
      <point x="849" y="1177"/>
      <point x="843" y="1177" type="curve" smooth="yes"/>
      <point x="836" y="1177"/>
      <point x="830" y="1175"/>
      <point x="822" y="1170" type="curve" smooth="yes"/>
      <point x="481" y="963"/>
      <point x="432" y="963"/>
      <point x="364" y="750" type="curve" smooth="yes"/>
      <point x="347" y="696"/>
      <point x="372" y="661"/>
      <point x="425" y="661" type="curve" smooth="yes"/>
    </contour>
    <contour>
      <point x="709" y="0" type="line" smooth="yes"/>
      <point x="723" y="0"/>
      <point x="738" y="12"/>
      <point x="743" y="26" type="curve" smooth="yes"/>
      <point x="835" y="317" type="line" smooth="yes"/>
      <point x="840" y="331"/>
      <point x="832" y="343"/>
      <point x="818" y="343" type="curve" smooth="yes"/>
      <point x="338" y="343" type="line" smooth="yes"/>
      <point x="323" y="343"/>
      <point x="307" y="332"/>
      <point x="302" y="317" type="curve" smooth="yes"/>
      <point x="210" y="26" type="line" smooth="yes"/>
      <point x="205" y="11"/>
      <point x="214" y="0"/>
      <point x="229" y="0" type="curve" smooth="yes"/>
    </contour>
    <contour>
      <point x="836" y="399" type="line" smooth="yes"/>
      <point x="850" y="399"/>
      <point x="865" y="411"/>
      <point x="870" y="425" type="curve" smooth="yes"/>
      <point x="919" y="579" type="line" smooth="yes"/>
      <point x="923" y="593"/>
      <point x="916" y="605"/>
      <point x="902" y="605" type="curve" smooth="yes"/>
      <point x="422" y="605" type="line" smooth="yes"/>
      <point x="407" y="605"/>
      <point x="391" y="594"/>
      <point x="386" y="579" type="curve" smooth="yes"/>
      <point x="337" y="425" type="line" smooth="yes"/>
      <point x="332" y="410"/>
      <point x="341" y="399"/>
      <point x="356" y="399" type="curve" smooth="yes"/>
    </contour>
  </outline>
</glyph>
<glyph name="four-persian" format="1">
  <advance width="1178"/>
  <unicode hex="06F4"/>
  <outline>
    <contour>
      <point x="444" y="-12" type="line"/>
      <point x="458" y="-10"/>
      <point x="470" y="1"/>
      <point x="475" y="15" type="curve" smooth="yes"/>
      <point x="560" y="284"/>
      <point x="604" y="448"/>
      <point x="640" y="635" type="curve"/>
      <point x="690" y="615"/>
      <point x="757" y="606"/>
      <point x="832" y="606" type="curve" smooth="yes"/>
      <point x="973" y="606"/>
      <point x="1145" y="634"/>
      <point x="1225" y="660" type="curve" smooth="yes"/>
      <point x="1237" y="664"/>
      <point x="1247" y="672"/>
      <point x="1254" y="685" type="curve" smooth="yes"/>
      <point x="1324" y="820" type="line" smooth="yes"/>
      <point x="1334" y="839"/>
      <point x="1326" y="851"/>
      <point x="1305" y="847" type="curve" smooth="yes"/>
      <point x="1198" y="826"/>
      <point x="1029" y="804"/>
      <point x="928" y="804" type="curve"/>
      <point x="888" y="805" type="line"/>
      <point x="885" y="805"/>
      <point x="884" y="806"/>
      <point x="883" y="811" type="curve" smooth="yes"/>
      <point x="888" y="1110" type="line" smooth="yes"/>
      <point x="887" y="1115"/>
      <point x="890" y="1117"/>
      <point x="895" y="1119" type="curve" smooth="yes"/>
      <point x="958" y="1146"/>
      <point x="1017" y="1147"/>
      <point x="1075" y="1147" type="curve" smooth="yes"/>
      <point x="1136" y="1147"/>
      <point x="1207" y="1141"/>
      <point x="1273" y="1129" type="curve" smooth="yes"/>
      <point x="1289" y="1126"/>
      <point x="1306" y="1139"/>
      <point x="1309" y="1157" type="curve" smooth="yes"/>
      <point x="1327" y="1268" type="line" smooth="yes"/>
      <point x="1331" y="1283"/>
      <point x="1328" y="1290"/>
      <point x="1315" y="1295" type="curve" smooth="yes"/>
      <point x="1273" y="1312"/>
      <point x="1204" y="1322"/>
      <point x="1140" y="1322" type="curve" smooth="yes"/>
      <point x="955" y="1322"/>
      <point x="804" y="1243"/>
      <point x="744" y="1056" type="curve" smooth="yes"/>
      <point x="724" y="992"/>
      <point x="709" y="890"/>
      <point x="716" y="816" type="curve"/>
      <point x="650" y="846"/>
      <point x="669" y="1073"/>
      <point x="659" y="1191" type="curve" smooth="yes"/>
      <point x="658" y="1201"/>
      <point x="652" y="1207"/>
      <point x="645" y="1207" type="curve" smooth="yes"/>
      <point x="638" y="1207"/>
      <point x="631" y="1203"/>
      <point x="622" y="1196" type="curve" smooth="yes"/>
      <point x="473" y="1066" type="line" smooth="yes"/>
      <point x="467" y="1059"/>
      <point x="463" y="1053"/>
      <point x="460" y="1046" type="curve" smooth="yes"/>
      <point x="460" y="1043"/>
      <point x="459" y="1038"/>
      <point x="459" y="1033" type="curve" smooth="yes"/>
      <point x="474" y="711"/>
      <point x="489" y="459"/>
      <point x="341" y="-7" type="curve" smooth="yes"/>
      <point x="337" y="-23"/>
      <point x="343" y="-33"/>
      <point x="356" y="-32" type="curve"/>
    </contour>
  </outline>
</glyph>
<glyph name="five-persian" format="1">
  <advance width="1034"/>
  <unicode hex="06F5"/>
  <outline>
    <contour>
      <point x="789" y="-33"/>
      <point x="965" y="152"/>
      <point x="1019" y="324" type="curve" smooth="yes"/>
      <point x="1104" y="589"/>
      <point x="981" y="839"/>
      <point x="803" y="1166" type="curve" smooth="yes"/>
      <point x="800" y="1173"/>
      <point x="796" y="1177"/>
      <point x="789" y="1177" type="curve" smooth="yes"/>
      <point x="781" y="1177"/>
      <point x="772" y="1172"/>
      <point x="764" y="1164" type="curve" smooth="yes"/>
      <point x="634" y="1010" type="line" smooth="yes"/>
      <point x="629" y="1004"/>
      <point x="627" y="999"/>
      <point x="625" y="995" type="curve" smooth="yes"/>
      <point x="623" y="988"/>
      <point x="624" y="982"/>
      <point x="627" y="976" type="curve" smooth="yes"/>
      <point x="676" y="889" type="line"/>
      <point x="522" y="742"/>
      <point x="279" y="497"/>
      <point x="194" y="227" type="curve" smooth="yes"/>
      <point x="144" y="71"/>
      <point x="181" y="-26"/>
      <point x="293" y="-26" type="curve" smooth="yes"/>
      <point x="361" y="-26"/>
      <point x="437" y="17"/>
      <point x="506" y="93" type="curve"/>
      <point x="510" y="10"/>
      <point x="555" y="-33"/>
      <point x="638" y="-33" type="curve" smooth="yes"/>
    </contour>
    <contour>
      <point x="661" y="164"/>
      <point x="634" y="211"/>
      <point x="650" y="292" type="curve" smooth="yes"/>
      <point x="656" y="325"/>
      <point x="650" y="342"/>
      <point x="630" y="336" type="curve" smooth="yes"/>
      <point x="554" y="312" type="line" smooth="yes"/>
      <point x="540" y="308"/>
      <point x="528" y="299"/>
      <point x="523" y="287" type="curve" smooth="yes"/>
      <point x="496" y="217"/>
      <point x="437" y="171"/>
      <point x="391" y="171" type="curve" smooth="yes"/>
      <point x="326" y="171"/>
      <point x="294" y="220"/>
      <point x="316" y="289" type="curve" smooth="yes"/>
      <point x="367" y="449"/>
      <point x="619" y="706"/>
      <point x="732" y="796" type="curve"/>
      <point x="818" y="642"/>
      <point x="914" y="407"/>
      <point x="905" y="281" type="curve"/>
      <point x="861" y="218"/>
      <point x="774" y="164"/>
      <point x="722" y="164" type="curve" smooth="yes"/>
    </contour>
  </outline>
</glyph>
<glyph name="six-persian" format="1">
  <advance width="1151"/>
  <unicode hex="06F6"/>
  <outline>
    <contour>
      <point x="255" y="-30"/>
      <point x="260" y="-33"/>
      <point x="266" y="-33" type="curve" smooth="yes"/>
      <point x="274" y="-33"/>
      <point x="282" y="-28"/>
      <point x="291" y="-19" type="curve" smooth="yes"/>
      <point x="534" y="228"/>
      <point x="826" y="555"/>
      <point x="1297" y="875" type="curve" smooth="yes"/>
      <point x="1315" y="887"/>
      <point x="1324" y="898"/>
      <point x="1327" y="910" type="curve" smooth="yes"/>
      <point x="1361" y="1071" type="line" smooth="yes"/>
      <point x="1364" y="1086"/>
      <point x="1359" y="1093"/>
      <point x="1350" y="1093" type="curve" smooth="yes"/>
      <point x="1345" y="1093"/>
      <point x="1337" y="1091"/>
      <point x="1329" y="1086" type="curve" smooth="yes"/>
      <point x="1119" y="948"/>
      <point x="912" y="758"/>
      <point x="818" y="688" type="curve" smooth="yes"/>
      <point x="817" y="686"/>
      <point x="815" y="686"/>
      <point x="813" y="687" type="curve" smooth="yes"/>
      <point x="691" y="760"/>
      <point x="574" y="882"/>
      <point x="560" y="961" type="curve"/>
      <point x="649" y="1074"/>
      <point x="794" y="1140"/>
      <point x="946" y="1140" type="curve" smooth="yes"/>
      <point x="976" y="1140"/>
      <point x="1007" y="1138"/>
      <point x="1037" y="1132" type="curve" smooth="yes"/>
      <point x="1054" y="1129"/>
      <point x="1068" y="1139"/>
      <point x="1074" y="1155" type="curve" smooth="yes"/>
      <point x="1112" y="1254" type="line" smooth="yes"/>
      <point x="1117" y="1268"/>
      <point x="1113" y="1278"/>
      <point x="1101" y="1283" type="curve" smooth="yes"/>
      <point x="1045" y="1303"/>
      <point x="992" y="1311"/>
      <point x="939" y="1311" type="curve" smooth="yes"/>
      <point x="714" y="1311"/>
      <point x="485" y="1129"/>
      <point x="414" y="906" type="curve" smooth="yes"/>
      <point x="359" y="735"/>
      <point x="506" y="601"/>
      <point x="639" y="545" type="curve"/>
      <point x="482" y="387"/>
      <point x="337" y="216"/>
      <point x="216" y="83" type="curve" smooth="yes"/>
      <point x="211" y="78"/>
      <point x="209" y="73"/>
      <point x="207" y="69" type="curve" smooth="yes"/>
      <point x="204" y="61"/>
      <point x="206" y="55"/>
      <point x="208" y="48" type="curve" smooth="yes"/>
      <point x="252" y="-24" type="line" smooth="yes"/>
    </contour>
  </outline>
</glyph>
<glyph name="hyphentwo" format="1">
  <advance width="883"/>
  <unicode hex="2010"/>
  <outline>
    <contour>
      <point x="870" y="407" type="line" smooth="yes"/>
      <point x="885" y="407"/>
      <point x="900" y="419"/>
      <point x="904" y="434" type="curve" smooth="yes"/>
      <point x="940" y="544" type="line" smooth="yes"/>
      <point x="945" y="560"/>
      <point x="937" y="570"/>
      <point x="922" y="570" type="curve" smooth="yes"/>
      <point x="331" y="570" type="line" smooth="yes"/>
      <point x="317" y="570"/>
      <point x="301" y="559"/>
      <point x="297" y="544" type="curve" smooth="yes"/>
      <point x="261" y="434" type="line" smooth="yes"/>
      <point x="257" y="419"/>
      <point x="264" y="407"/>
      <point x="279" y="407" type="curve" smooth="yes"/>
    </contour>
  </outline>
</glyph>
<glyph name="bullet" format="1">
  <advance width="979"/>
  <unicode hex="2022"/>
  <outline>
    <contour>
      <point x="735" y="119"/>
      <point x="954" y="285"/>
      <point x="1018" y="490" type="curve" smooth="yes"/>
      <point x="1082" y="693"/>
      <point x="970" y="859"/>
      <point x="767" y="859" type="curve" smooth="yes"/>
      <point x="563" y="859"/>
      <point x="343" y="693"/>
      <point x="279" y="490" type="curve" smooth="yes"/>
      <point x="215" y="285"/>
      <point x="326" y="119"/>
      <point x="531" y="119" type="curve" smooth="yes"/>
    </contour>
  </outline>
</glyph>
<glyph name="minus" format="1">
  <advance width="1247"/>
  <unicode hex="2212"/>
  <outline>
    <contour>
      <point x="1257" y="401" type="line"/>
      <point x="1313" y="576" type="line"/>
      <point x="307" y="576" type="line"/>
      <point x="251" y="401" type="line"/>
    </contour>
  </outline>
</glyph>
<glyph name="dottedCircle" format="1">
  <advance width="1057"/>
  <unicode hex="25CC"/>
  <outline>
    <contour>
      <point x="869" y="617"/>
      <point x="902" y="617" type="curve" smooth="yes"/>
      <point x="936" y="617"/>
      <point x="981" y="660"/>
      <point x="992" y="692" type="curve" smooth="yes"/>
      <point x="1002" y="726"/>
      <point x="973" y="756"/>
      <point x="940" y="756" type="curve" smooth="yes"/>
      <point x="904" y="756"/>
      <point x="862" y="714"/>
      <point x="851" y="681" type="curve" smooth="yes"/>
      <point x="840" y="645"/>
    </contour>
    <contour>
      <point x="339" y="26"/>
      <point x="371" y="26" type="curve" smooth="yes"/>
      <point x="408" y="26"/>
      <point x="449" y="67"/>
      <point x="460" y="102" type="curve" smooth="yes"/>
      <point x="470" y="134"/>
      <point x="442" y="163"/>
      <point x="411" y="163" type="curve" smooth="yes"/>
      <point x="376" y="163"/>
      <point x="333" y="123"/>
      <point x="321" y="88" type="curve" smooth="yes"/>
      <point x="311" y="55"/>
    </contour>
    <contour>
      <point x="363" y="180"/>
      <point x="375" y="218" type="curve" smooth="yes"/>
      <point x="384" y="248"/>
      <point x="369" y="288"/>
      <point x="332" y="288" type="curve" smooth="yes"/>
      <point x="302" y="288"/>
      <point x="249" y="259"/>
      <point x="237" y="223" type="curve" smooth="yes"/>
      <point x="228" y="192"/>
      <point x="241" y="152"/>
      <point x="279" y="152" type="curve" smooth="yes"/>
      <point x="310" y="152"/>
    </contour>
    <contour>
      <point x="568" y="-17"/>
      <point x="599" y="6"/>
      <point x="613" y="47" type="curve" smooth="yes"/>
      <point x="625" y="87"/>
      <point x="608" y="112"/>
      <point x="567" y="112" type="curve" smooth="yes"/>
      <point x="524" y="112"/>
      <point x="492" y="89"/>
      <point x="479" y="47" type="curve" smooth="yes"/>
      <point x="465" y="6"/>
      <point x="482" y="-17"/>
      <point x="525" y="-17" type="curve" smooth="yes"/>
    </contour>
    <contour>
      <point x="337" y="325"/>
      <point x="368" y="348"/>
      <point x="382" y="391" type="curve" smooth="yes"/>
      <point x="394" y="430"/>
      <point x="376" y="455"/>
      <point x="334" y="455" type="curve" smooth="yes"/>
      <point x="291" y="455"/>
      <point x="260" y="432"/>
      <point x="247" y="391" type="curve" smooth="yes"/>
      <point x="233" y="348"/>
      <point x="250" y="325"/>
      <point x="293" y="325" type="curve" smooth="yes"/>
    </contour>
    <contour>
      <point x="359" y="493"/>
      <point x="392" y="493" type="curve" smooth="yes"/>
      <point x="427" y="493"/>
      <point x="470" y="534"/>
      <point x="482" y="568" type="curve" smooth="yes"/>
      <point x="492" y="603"/>
      <point x="463" y="631"/>
      <point x="432" y="631" type="curve" smooth="yes"/>
      <point x="396" y="631"/>
      <point x="352" y="589"/>
      <point x="341" y="556" type="curve" smooth="yes"/>
      <point x="330" y="520"/>
    </contour>
    <contour>
      <point x="788" y="53"/>
      <point x="800" y="90" type="curve" smooth="yes"/>
      <point x="809" y="120"/>
      <point x="795" y="161"/>
      <point x="760" y="161" type="curve" smooth="yes"/>
      <point x="729" y="161"/>
      <point x="677" y="132"/>
      <point x="665" y="96" type="curve" smooth="yes"/>
      <point x="656" y="65"/>
      <point x="667" y="25"/>
      <point x="704" y="25" type="curve" smooth="yes"/>
      <point x="735" y="25"/>
    </contour>
    <contour>
      <point x="848" y="150"/>
      <point x="880" y="150" type="curve" smooth="yes"/>
      <point x="915" y="150"/>
      <point x="957" y="191"/>
      <point x="969" y="225" type="curve" smooth="yes"/>
      <point x="979" y="258"/>
      <point x="951" y="287"/>
      <point x="918" y="287" type="curve" smooth="yes"/>
      <point x="882" y="287"/>
      <point x="839" y="245"/>
      <point x="828" y="212" type="curve" smooth="yes"/>
      <point x="818" y="179"/>
    </contour>
    <contour>
      <point x="634" y="651"/>
      <point x="646" y="686" type="curve" smooth="yes"/>
      <point x="655" y="716"/>
      <point x="638" y="756"/>
      <point x="602" y="756" type="curve" smooth="yes"/>
      <point x="570" y="756"/>
      <point x="521" y="728"/>
      <point x="508" y="690" type="curve" smooth="yes"/>
      <point x="499" y="660"/>
      <point x="514" y="621"/>
      <point x="550" y="621" type="curve" smooth="yes"/>
      <point x="580" y="621"/>
    </contour>
    <contour>
      <point x="1019" y="325"/>
      <point x="1050" y="348"/>
      <point x="1064" y="391" type="curve" smooth="yes"/>
      <point x="1076" y="431"/>
      <point x="1059" y="455"/>
      <point x="1018" y="455" type="curve" smooth="yes"/>
      <point x="975" y="455"/>
      <point x="944" y="432"/>
      <point x="931" y="391" type="curve" smooth="yes"/>
      <point x="917" y="348"/>
      <point x="934" y="325"/>
      <point x="977" y="325" type="curve" smooth="yes"/>
    </contour>
    <contour>
      <point x="786" y="670"/>
      <point x="818" y="693"/>
      <point x="831" y="735" type="curve" smooth="yes"/>
      <point x="844" y="775"/>
      <point x="826" y="800"/>
      <point x="785" y="800" type="curve" smooth="yes"/>
      <point x="742" y="800"/>
      <point x="711" y="777"/>
      <point x="697" y="735" type="curve" smooth="yes"/>
      <point x="684" y="693"/>
      <point x="700" y="670"/>
      <point x="743" y="670" type="curve" smooth="yes"/>
    </contour>
    <contour>
      <point x="1063" y="522"/>
      <point x="1075" y="559" type="curve" smooth="yes"/>
      <point x="1084" y="590"/>
      <point x="1071" y="628"/>
      <point x="1033" y="628" type="curve" smooth="yes"/>
      <point x="1001" y="628"/>
      <point x="951" y="601"/>
      <point x="939" y="564" type="curve" smooth="yes"/>
      <point x="928" y="530"/>
      <point x="946" y="494"/>
      <point x="979" y="494" type="curve" smooth="yes"/>
      <point x="1011" y="494"/>
    </contour>
  </outline>
</glyph>
